M48
VER,1
FMAT,2
INCH,LZ
ICI,OFF
DETECT,ON
ATC,ON
T01C.012
T02C.02756
T03C.032
T04C.04331
T05C.052
%
T01
X004528Y00065
X006496Y00065
X008465Y00065
X010433Y00065
X012402Y00065
X01437Y00065
X016339Y00065
X018307Y00065
X020276Y00065
X022244Y00065
X024213Y00065
X02575Y001181
X0042Y002165
X02575Y00315
X0207Y0035
X0216Y0035
X016339Y004134
X002165Y0042
X0042Y0042
X02575Y0042
X026772Y0042
X02874Y0042
X00065Y004528
X020276Y005512
X0293Y005512
X00065Y006496
X0257Y00704
X0293Y00748
X00435Y00775
X00705Y007725
X0206Y008
X02245Y0081
X00065Y008465
X002362Y008465
X023267Y00845
X02695Y00865
X021083Y00895
X0229Y0093
X0243Y0093
X0268Y00925
X0293Y009449
X01045Y01025
X0132Y01025
X00065Y010433
X002362Y010433
X0207Y01065
X00435Y01145
X0293Y011417
X0132Y011704
X02295Y0118
X0243Y0118
X026325Y011775
X01045Y012023
X0117Y01195
X0148Y0121
X00065Y012402
X002362Y012402
X012517Y0123
X0155Y0124
X02605Y0126
X026725Y0126
X004Y0131
X00595Y0131
X026375Y01305
X013386Y013386
X0143Y01335
X01635Y01335
X0293Y013386
X00515Y0136
X0116Y0134
X00635Y01365
X0223Y013825
X01935Y0139
X00065Y01437
X002362Y01437
X00375Y01425
X017425Y01425
X02015Y014268
X02295Y0145
X01Y0149
X0119Y0149
X0293Y015354
X01354Y01545
X00065Y016339
X009449Y016535
X0131Y016444
X011975Y016825
X0123Y016825
X012625Y016825
X023433Y01685
X01145Y01705
X011975Y017175
X0123Y017175
X012625Y017175
X0293Y017323
X01945Y0174
X00285Y01785
X0042Y0178
X0219Y0178
X02548Y01765
X00065Y018307
X0089Y01865
X0192Y019
X0217Y01895
X0089Y01935
X0163Y01921
X0293Y019291
X00625Y0196
X02655Y0195
X0089Y01985
X00065Y020276
X0192Y02035
X0217Y02035
X02265Y020233
X0089Y02055
X002559Y020669
X00525Y02065
X006882Y020857
X02555Y02086
X0089Y02105
X0163Y02111
X0283Y0212
X0089Y02175
X00065Y0222
X005512Y0222
X00748Y0222
X009449Y0222
X011417Y0222
X013386Y0222
X015354Y0222
X017323Y0222
X019291Y0222
X02126Y0222
X025197Y0222
X027165Y0222
X0293Y0222
X0293Y02105
X02415Y0134
X0048Y0074
X0075Y00775
X01815Y0153
X0269Y01585
X024883Y01725
X02045Y0121
X013Y019375
X005225Y0064
X00945Y01435
X00525Y019
X014558Y02025
X0123Y0202
X010189Y02025
X011625Y019375
X011625Y019
X013Y019
X012Y018375
X012625Y018375
X01675Y01005
X019Y01
X0194Y009158
X018Y01155
X015875Y01155
X00655Y016
X00945Y00795
X0095Y0086
X0097Y0063
X01145Y007
X011095Y00935
X01145Y0037
X0206Y0063
X0206Y0069
X02025Y00745
X00805Y006375
X008975Y014275
T02
X00145Y01975
X002Y01875
X00255Y01975
X0031Y01875
X00365Y01975
X0042Y01875
X00475Y01975
T03
X007906Y003453
X008906Y003453
X006906Y003453
T04
X001969Y006496
X001969Y006578
X001969Y00666
X001969Y006741
X001969Y006823
X001969Y006905
X001969Y006987
X001969Y007068
X001969Y00715
X001969Y007232
X001969Y007314
X001969Y007396
X001969Y007477
X001969Y007559
X013789Y006754
X01383Y006825
X013871Y006896
X013912Y006967
X013953Y007038
X013994Y007108
X014035Y007179
X014076Y00725
X014116Y007321
X014157Y007392
X014198Y007462
X014239Y007533
X01428Y007604
X014321Y007675
X007736Y017264
X007818Y017264
X0079Y017264
X007982Y017264
X008063Y017264
X008145Y017264
X008227Y017264
X008309Y017264
X00839Y017264
X008472Y017264
X008554Y017264
X008636Y017264
X008717Y017264
X008799Y017264
X017579Y01687
X017661Y01687
X017742Y01687
X017824Y01687
X017906Y01687
X017988Y01687
X018069Y01687
X018151Y01687
X018233Y01687
X018315Y01687
X018396Y01687
X018478Y01687
X01856Y01687
X018642Y01687
X017837Y005049
X017908Y005008
X017979Y004967
X018049Y004927
X01812Y004886
X018191Y004845
X018262Y004804
X018333Y004763
X018403Y004722
X018474Y004681
X018545Y00464
X018616Y004599
X018687Y004559
X018758Y004518
X028346Y011102
X028346Y011021
X028346Y010939
X028346Y010857
X028346Y010775
X028346Y010694
X028346Y010612
X028346Y01053
X028346Y010448
X028346Y010366
X028346Y010285
X028346Y010203
X028346Y010121
X028346Y010039
T05
X008661Y015531
X006693Y005768
X004724Y015531
X023228Y002528
X023228Y018528
M30
