G04 #@! TF.GenerationSoftware,KiCad,Pcbnew,(5.1.5)-3*
G04 #@! TF.CreationDate,2020-04-20T12:10:47-07:00*
G04 #@! TF.ProjectId,10096510 Battery Connection,31303039-3635-4313-9020-426174746572,rev?*
G04 #@! TF.SameCoordinates,PXb874050PY8789ff8*
G04 #@! TF.FileFunction,Copper,L1,Top*
G04 #@! TF.FilePolarity,Positive*
%FSLAX46Y46*%
G04 Gerber Fmt 4.6, Leading zero omitted, Abs format (unit mm)*
G04 Created by KiCad (PCBNEW (5.1.5)-3) date 2020-04-20 12:10:47*
%MOMM*%
%LPD*%
G04 APERTURE LIST*
%ADD10C,0.254000*%
%ADD11C,4.292600*%
%ADD12C,2.000000*%
%ADD13C,1.574800*%
%ADD14R,1.574800X1.574800*%
%ADD15C,0.100000*%
%ADD16C,2.235200*%
%ADD17C,1.016000*%
%ADD18C,0.250000*%
%ADD19C,3.048000*%
%ADD20C,1.524000*%
%ADD21C,0.635000*%
%ADD22C,0.304800*%
%ADD23C,1.016000*%
G04 APERTURE END LIST*
D10*
X-15588948Y-24704523D02*
X-14863234Y-24704523D01*
X-15226091Y-25974523D02*
X-15226091Y-24704523D01*
X-14197996Y-24704523D02*
X-13956091Y-24704523D01*
X-13835139Y-24765000D01*
X-13714186Y-24885952D01*
X-13653710Y-25127857D01*
X-13653710Y-25551190D01*
X-13714186Y-25793095D01*
X-13835139Y-25914047D01*
X-13956091Y-25974523D01*
X-14197996Y-25974523D01*
X-14318948Y-25914047D01*
X-14439900Y-25793095D01*
X-14500377Y-25551190D01*
X-14500377Y-25127857D01*
X-14439900Y-24885952D01*
X-14318948Y-24765000D01*
X-14197996Y-24704523D01*
X-13109424Y-25974523D02*
X-13109424Y-24704523D01*
X-12625615Y-24704523D01*
X-12504662Y-24765000D01*
X-12444186Y-24825476D01*
X-12383710Y-24946428D01*
X-12383710Y-25127857D01*
X-12444186Y-25248809D01*
X-12504662Y-25309285D01*
X-12625615Y-25369761D01*
X-13109424Y-25369761D01*
X-10146091Y-25853571D02*
X-10206567Y-25914047D01*
X-10387996Y-25974523D01*
X-10508948Y-25974523D01*
X-10690377Y-25914047D01*
X-10811329Y-25793095D01*
X-10871805Y-25672142D01*
X-10932281Y-25430238D01*
X-10932281Y-25248809D01*
X-10871805Y-25006904D01*
X-10811329Y-24885952D01*
X-10690377Y-24765000D01*
X-10508948Y-24704523D01*
X-10387996Y-24704523D01*
X-10206567Y-24765000D01*
X-10146091Y-24825476D01*
X-9359900Y-24704523D02*
X-9117996Y-24704523D01*
X-8997043Y-24765000D01*
X-8876091Y-24885952D01*
X-8815615Y-25127857D01*
X-8815615Y-25551190D01*
X-8876091Y-25793095D01*
X-8997043Y-25914047D01*
X-9117996Y-25974523D01*
X-9359900Y-25974523D01*
X-9480853Y-25914047D01*
X-9601805Y-25793095D01*
X-9662281Y-25551190D01*
X-9662281Y-25127857D01*
X-9601805Y-24885952D01*
X-9480853Y-24765000D01*
X-9359900Y-24704523D01*
X-8271329Y-25974523D02*
X-8271329Y-24704523D01*
X-7787520Y-24704523D01*
X-7666567Y-24765000D01*
X-7606091Y-24825476D01*
X-7545615Y-24946428D01*
X-7545615Y-25127857D01*
X-7606091Y-25248809D01*
X-7666567Y-25309285D01*
X-7787520Y-25369761D01*
X-8271329Y-25369761D01*
X-7001329Y-25974523D02*
X-7001329Y-24704523D01*
X-6517520Y-24704523D01*
X-6396567Y-24765000D01*
X-6336091Y-24825476D01*
X-6275615Y-24946428D01*
X-6275615Y-25127857D01*
X-6336091Y-25248809D01*
X-6396567Y-25309285D01*
X-6517520Y-25369761D01*
X-7001329Y-25369761D01*
X-5731329Y-25309285D02*
X-5307996Y-25309285D01*
X-5126567Y-25974523D02*
X-5731329Y-25974523D01*
X-5731329Y-24704523D01*
X-5126567Y-24704523D01*
X-3856567Y-25974523D02*
X-4279900Y-25369761D01*
X-4582281Y-25974523D02*
X-4582281Y-24704523D01*
X-4098472Y-24704523D01*
X-3977520Y-24765000D01*
X-3917043Y-24825476D01*
X-3856567Y-24946428D01*
X-3856567Y-25127857D01*
X-3917043Y-25248809D01*
X-3977520Y-25309285D01*
X-4098472Y-25369761D01*
X-4582281Y-25369761D01*
X-1981805Y-26458333D02*
X-2042281Y-26397857D01*
X-2163234Y-26216428D01*
X-2223710Y-26095476D01*
X-2284186Y-25914047D01*
X-2344662Y-25611666D01*
X-2344662Y-25369761D01*
X-2284186Y-25067380D01*
X-2223710Y-24885952D01*
X-2163234Y-24765000D01*
X-2042281Y-24583571D01*
X-1981805Y-24523095D01*
X-1074662Y-25309285D02*
X-1497996Y-25309285D01*
X-1497996Y-25974523D02*
X-1497996Y-24704523D01*
X-893234Y-24704523D01*
X316290Y-25974523D02*
X-107043Y-25369761D01*
X-409424Y-25974523D02*
X-409424Y-24704523D01*
X74385Y-24704523D01*
X195338Y-24765000D01*
X255814Y-24825476D01*
X316290Y-24946428D01*
X316290Y-25127857D01*
X255814Y-25248809D01*
X195338Y-25309285D01*
X74385Y-25369761D01*
X-409424Y-25369761D01*
X1102480Y-24704523D02*
X1344385Y-24704523D01*
X1465338Y-24765000D01*
X1586290Y-24885952D01*
X1646766Y-25127857D01*
X1646766Y-25551190D01*
X1586290Y-25793095D01*
X1465338Y-25914047D01*
X1344385Y-25974523D01*
X1102480Y-25974523D01*
X981528Y-25914047D01*
X860576Y-25793095D01*
X800100Y-25551190D01*
X800100Y-25127857D01*
X860576Y-24885952D01*
X981528Y-24765000D01*
X1102480Y-24704523D01*
X2191052Y-25974523D02*
X2191052Y-24704523D01*
X2916766Y-25974523D01*
X2916766Y-24704523D01*
X3340100Y-24704523D02*
X4065814Y-24704523D01*
X3702957Y-25974523D02*
X3702957Y-24704523D01*
X4489147Y-25853571D02*
X4549623Y-25914047D01*
X4489147Y-25974523D01*
X4428671Y-25914047D01*
X4489147Y-25853571D01*
X4489147Y-25974523D01*
X5759147Y-24765000D02*
X5638195Y-24704523D01*
X5456766Y-24704523D01*
X5275338Y-24765000D01*
X5154385Y-24885952D01*
X5093909Y-25006904D01*
X5033433Y-25248809D01*
X5033433Y-25430238D01*
X5093909Y-25672142D01*
X5154385Y-25793095D01*
X5275338Y-25914047D01*
X5456766Y-25974523D01*
X5577719Y-25974523D01*
X5759147Y-25914047D01*
X5819623Y-25853571D01*
X5819623Y-25430238D01*
X5577719Y-25430238D01*
X6787242Y-25309285D02*
X6968671Y-25369761D01*
X7029147Y-25430238D01*
X7089623Y-25551190D01*
X7089623Y-25732619D01*
X7029147Y-25853571D01*
X6968671Y-25914047D01*
X6847719Y-25974523D01*
X6363909Y-25974523D01*
X6363909Y-24704523D01*
X6787242Y-24704523D01*
X6908195Y-24765000D01*
X6968671Y-24825476D01*
X7029147Y-24946428D01*
X7029147Y-25067380D01*
X6968671Y-25188333D01*
X6908195Y-25248809D01*
X6787242Y-25309285D01*
X6363909Y-25309285D01*
X8359623Y-25974523D02*
X7936290Y-25369761D01*
X7633909Y-25974523D02*
X7633909Y-24704523D01*
X8117719Y-24704523D01*
X8238671Y-24765000D01*
X8299147Y-24825476D01*
X8359623Y-24946428D01*
X8359623Y-25127857D01*
X8299147Y-25248809D01*
X8238671Y-25309285D01*
X8117719Y-25369761D01*
X7633909Y-25369761D01*
X8782957Y-26458333D02*
X8843433Y-26397857D01*
X8964385Y-26216428D01*
X9024861Y-26095476D01*
X9085338Y-25914047D01*
X9145814Y-25611666D01*
X9145814Y-25369761D01*
X9085338Y-25067380D01*
X9024861Y-24885952D01*
X8964385Y-24765000D01*
X8843433Y-24583571D01*
X8782957Y-24523095D01*
D11*
X54711600Y8991600D03*
D12*
X56007000Y12979400D03*
X53467000Y12979400D03*
X56007000Y16992600D03*
X53467000Y16992600D03*
X56007000Y20980400D03*
X53467000Y20980400D03*
D13*
X16510000Y34493200D03*
X16510000Y31953200D03*
X19050000Y34493200D03*
X19050000Y31953200D03*
X21590000Y34493200D03*
X21590000Y31953200D03*
X24130000Y34493200D03*
X24130000Y31953200D03*
X26670000Y34493200D03*
D14*
X26670000Y31953200D03*
G04 #@! TA.AperFunction,SMDPad,CuDef*
D15*
G36*
X26427691Y39843947D02*
G01*
X26448926Y39840797D01*
X26469750Y39835581D01*
X26489962Y39828349D01*
X26509368Y39819170D01*
X26527781Y39808134D01*
X26545024Y39795346D01*
X26560930Y39780930D01*
X26575346Y39765024D01*
X26588134Y39747781D01*
X26599170Y39729368D01*
X26608349Y39709962D01*
X26615581Y39689750D01*
X26620797Y39668926D01*
X26623947Y39647691D01*
X26625000Y39626250D01*
X26625000Y39113750D01*
X26623947Y39092309D01*
X26620797Y39071074D01*
X26615581Y39050250D01*
X26608349Y39030038D01*
X26599170Y39010632D01*
X26588134Y38992219D01*
X26575346Y38974976D01*
X26560930Y38959070D01*
X26545024Y38944654D01*
X26527781Y38931866D01*
X26509368Y38920830D01*
X26489962Y38911651D01*
X26469750Y38904419D01*
X26448926Y38899203D01*
X26427691Y38896053D01*
X26406250Y38895000D01*
X25968750Y38895000D01*
X25947309Y38896053D01*
X25926074Y38899203D01*
X25905250Y38904419D01*
X25885038Y38911651D01*
X25865632Y38920830D01*
X25847219Y38931866D01*
X25829976Y38944654D01*
X25814070Y38959070D01*
X25799654Y38974976D01*
X25786866Y38992219D01*
X25775830Y39010632D01*
X25766651Y39030038D01*
X25759419Y39050250D01*
X25754203Y39071074D01*
X25751053Y39092309D01*
X25750000Y39113750D01*
X25750000Y39626250D01*
X25751053Y39647691D01*
X25754203Y39668926D01*
X25759419Y39689750D01*
X25766651Y39709962D01*
X25775830Y39729368D01*
X25786866Y39747781D01*
X25799654Y39765024D01*
X25814070Y39780930D01*
X25829976Y39795346D01*
X25847219Y39808134D01*
X25865632Y39819170D01*
X25885038Y39828349D01*
X25905250Y39835581D01*
X25926074Y39840797D01*
X25947309Y39843947D01*
X25968750Y39845000D01*
X26406250Y39845000D01*
X26427691Y39843947D01*
G37*
G04 #@! TD.AperFunction*
G04 #@! TA.AperFunction,SMDPad,CuDef*
G36*
X24852691Y39843947D02*
G01*
X24873926Y39840797D01*
X24894750Y39835581D01*
X24914962Y39828349D01*
X24934368Y39819170D01*
X24952781Y39808134D01*
X24970024Y39795346D01*
X24985930Y39780930D01*
X25000346Y39765024D01*
X25013134Y39747781D01*
X25024170Y39729368D01*
X25033349Y39709962D01*
X25040581Y39689750D01*
X25045797Y39668926D01*
X25048947Y39647691D01*
X25050000Y39626250D01*
X25050000Y39113750D01*
X25048947Y39092309D01*
X25045797Y39071074D01*
X25040581Y39050250D01*
X25033349Y39030038D01*
X25024170Y39010632D01*
X25013134Y38992219D01*
X25000346Y38974976D01*
X24985930Y38959070D01*
X24970024Y38944654D01*
X24952781Y38931866D01*
X24934368Y38920830D01*
X24914962Y38911651D01*
X24894750Y38904419D01*
X24873926Y38899203D01*
X24852691Y38896053D01*
X24831250Y38895000D01*
X24393750Y38895000D01*
X24372309Y38896053D01*
X24351074Y38899203D01*
X24330250Y38904419D01*
X24310038Y38911651D01*
X24290632Y38920830D01*
X24272219Y38931866D01*
X24254976Y38944654D01*
X24239070Y38959070D01*
X24224654Y38974976D01*
X24211866Y38992219D01*
X24200830Y39010632D01*
X24191651Y39030038D01*
X24184419Y39050250D01*
X24179203Y39071074D01*
X24176053Y39092309D01*
X24175000Y39113750D01*
X24175000Y39626250D01*
X24176053Y39647691D01*
X24179203Y39668926D01*
X24184419Y39689750D01*
X24191651Y39709962D01*
X24200830Y39729368D01*
X24211866Y39747781D01*
X24224654Y39765024D01*
X24239070Y39780930D01*
X24254976Y39795346D01*
X24272219Y39808134D01*
X24290632Y39819170D01*
X24310038Y39828349D01*
X24330250Y39835581D01*
X24351074Y39840797D01*
X24372309Y39843947D01*
X24393750Y39845000D01*
X24831250Y39845000D01*
X24852691Y39843947D01*
G37*
G04 #@! TD.AperFunction*
G04 #@! TA.AperFunction,SMDPad,CuDef*
G36*
X24852691Y41748947D02*
G01*
X24873926Y41745797D01*
X24894750Y41740581D01*
X24914962Y41733349D01*
X24934368Y41724170D01*
X24952781Y41713134D01*
X24970024Y41700346D01*
X24985930Y41685930D01*
X25000346Y41670024D01*
X25013134Y41652781D01*
X25024170Y41634368D01*
X25033349Y41614962D01*
X25040581Y41594750D01*
X25045797Y41573926D01*
X25048947Y41552691D01*
X25050000Y41531250D01*
X25050000Y41018750D01*
X25048947Y40997309D01*
X25045797Y40976074D01*
X25040581Y40955250D01*
X25033349Y40935038D01*
X25024170Y40915632D01*
X25013134Y40897219D01*
X25000346Y40879976D01*
X24985930Y40864070D01*
X24970024Y40849654D01*
X24952781Y40836866D01*
X24934368Y40825830D01*
X24914962Y40816651D01*
X24894750Y40809419D01*
X24873926Y40804203D01*
X24852691Y40801053D01*
X24831250Y40800000D01*
X24393750Y40800000D01*
X24372309Y40801053D01*
X24351074Y40804203D01*
X24330250Y40809419D01*
X24310038Y40816651D01*
X24290632Y40825830D01*
X24272219Y40836866D01*
X24254976Y40849654D01*
X24239070Y40864070D01*
X24224654Y40879976D01*
X24211866Y40897219D01*
X24200830Y40915632D01*
X24191651Y40935038D01*
X24184419Y40955250D01*
X24179203Y40976074D01*
X24176053Y40997309D01*
X24175000Y41018750D01*
X24175000Y41531250D01*
X24176053Y41552691D01*
X24179203Y41573926D01*
X24184419Y41594750D01*
X24191651Y41614962D01*
X24200830Y41634368D01*
X24211866Y41652781D01*
X24224654Y41670024D01*
X24239070Y41685930D01*
X24254976Y41700346D01*
X24272219Y41713134D01*
X24290632Y41724170D01*
X24310038Y41733349D01*
X24330250Y41740581D01*
X24351074Y41745797D01*
X24372309Y41748947D01*
X24393750Y41750000D01*
X24831250Y41750000D01*
X24852691Y41748947D01*
G37*
G04 #@! TD.AperFunction*
G04 #@! TA.AperFunction,SMDPad,CuDef*
G36*
X26427691Y41748947D02*
G01*
X26448926Y41745797D01*
X26469750Y41740581D01*
X26489962Y41733349D01*
X26509368Y41724170D01*
X26527781Y41713134D01*
X26545024Y41700346D01*
X26560930Y41685930D01*
X26575346Y41670024D01*
X26588134Y41652781D01*
X26599170Y41634368D01*
X26608349Y41614962D01*
X26615581Y41594750D01*
X26620797Y41573926D01*
X26623947Y41552691D01*
X26625000Y41531250D01*
X26625000Y41018750D01*
X26623947Y40997309D01*
X26620797Y40976074D01*
X26615581Y40955250D01*
X26608349Y40935038D01*
X26599170Y40915632D01*
X26588134Y40897219D01*
X26575346Y40879976D01*
X26560930Y40864070D01*
X26545024Y40849654D01*
X26527781Y40836866D01*
X26509368Y40825830D01*
X26489962Y40816651D01*
X26469750Y40809419D01*
X26448926Y40804203D01*
X26427691Y40801053D01*
X26406250Y40800000D01*
X25968750Y40800000D01*
X25947309Y40801053D01*
X25926074Y40804203D01*
X25905250Y40809419D01*
X25885038Y40816651D01*
X25865632Y40825830D01*
X25847219Y40836866D01*
X25829976Y40849654D01*
X25814070Y40864070D01*
X25799654Y40879976D01*
X25786866Y40897219D01*
X25775830Y40915632D01*
X25766651Y40935038D01*
X25759419Y40955250D01*
X25754203Y40976074D01*
X25751053Y40997309D01*
X25750000Y41018750D01*
X25750000Y41531250D01*
X25751053Y41552691D01*
X25754203Y41573926D01*
X25759419Y41594750D01*
X25766651Y41614962D01*
X25775830Y41634368D01*
X25786866Y41652781D01*
X25799654Y41670024D01*
X25814070Y41685930D01*
X25829976Y41700346D01*
X25847219Y41713134D01*
X25865632Y41724170D01*
X25885038Y41733349D01*
X25905250Y41740581D01*
X25926074Y41745797D01*
X25947309Y41748947D01*
X25968750Y41750000D01*
X26406250Y41750000D01*
X26427691Y41748947D01*
G37*
G04 #@! TD.AperFunction*
D16*
X27940000Y18495000D03*
X25440000Y20995000D03*
X30440000Y20995000D03*
X27940000Y23495000D03*
X25440000Y25995000D03*
X30440000Y25995000D03*
G04 #@! TA.AperFunction,SMDPad,CuDef*
D15*
G36*
X31936958Y32829290D02*
G01*
X31951276Y32827166D01*
X31965317Y32823649D01*
X31978946Y32818772D01*
X31992031Y32812583D01*
X32004447Y32805142D01*
X32016073Y32796519D01*
X32026798Y32786798D01*
X32036519Y32776073D01*
X32045142Y32764447D01*
X32052583Y32752031D01*
X32058772Y32738946D01*
X32063649Y32725317D01*
X32067166Y32711276D01*
X32069290Y32696958D01*
X32070000Y32682500D01*
X32070000Y32387500D01*
X32069290Y32373042D01*
X32067166Y32358724D01*
X32063649Y32344683D01*
X32058772Y32331054D01*
X32052583Y32317969D01*
X32045142Y32305553D01*
X32036519Y32293927D01*
X32026798Y32283202D01*
X32016073Y32273481D01*
X32004447Y32264858D01*
X31992031Y32257417D01*
X31978946Y32251228D01*
X31965317Y32246351D01*
X31951276Y32242834D01*
X31936958Y32240710D01*
X31922500Y32240000D01*
X31577500Y32240000D01*
X31563042Y32240710D01*
X31548724Y32242834D01*
X31534683Y32246351D01*
X31521054Y32251228D01*
X31507969Y32257417D01*
X31495553Y32264858D01*
X31483927Y32273481D01*
X31473202Y32283202D01*
X31463481Y32293927D01*
X31454858Y32305553D01*
X31447417Y32317969D01*
X31441228Y32331054D01*
X31436351Y32344683D01*
X31432834Y32358724D01*
X31430710Y32373042D01*
X31430000Y32387500D01*
X31430000Y32682500D01*
X31430710Y32696958D01*
X31432834Y32711276D01*
X31436351Y32725317D01*
X31441228Y32738946D01*
X31447417Y32752031D01*
X31454858Y32764447D01*
X31463481Y32776073D01*
X31473202Y32786798D01*
X31483927Y32796519D01*
X31495553Y32805142D01*
X31507969Y32812583D01*
X31521054Y32818772D01*
X31534683Y32823649D01*
X31548724Y32827166D01*
X31563042Y32829290D01*
X31577500Y32830000D01*
X31922500Y32830000D01*
X31936958Y32829290D01*
G37*
G04 #@! TD.AperFunction*
G04 #@! TA.AperFunction,SMDPad,CuDef*
G36*
X31936958Y33799290D02*
G01*
X31951276Y33797166D01*
X31965317Y33793649D01*
X31978946Y33788772D01*
X31992031Y33782583D01*
X32004447Y33775142D01*
X32016073Y33766519D01*
X32026798Y33756798D01*
X32036519Y33746073D01*
X32045142Y33734447D01*
X32052583Y33722031D01*
X32058772Y33708946D01*
X32063649Y33695317D01*
X32067166Y33681276D01*
X32069290Y33666958D01*
X32070000Y33652500D01*
X32070000Y33357500D01*
X32069290Y33343042D01*
X32067166Y33328724D01*
X32063649Y33314683D01*
X32058772Y33301054D01*
X32052583Y33287969D01*
X32045142Y33275553D01*
X32036519Y33263927D01*
X32026798Y33253202D01*
X32016073Y33243481D01*
X32004447Y33234858D01*
X31992031Y33227417D01*
X31978946Y33221228D01*
X31965317Y33216351D01*
X31951276Y33212834D01*
X31936958Y33210710D01*
X31922500Y33210000D01*
X31577500Y33210000D01*
X31563042Y33210710D01*
X31548724Y33212834D01*
X31534683Y33216351D01*
X31521054Y33221228D01*
X31507969Y33227417D01*
X31495553Y33234858D01*
X31483927Y33243481D01*
X31473202Y33253202D01*
X31463481Y33263927D01*
X31454858Y33275553D01*
X31447417Y33287969D01*
X31441228Y33301054D01*
X31436351Y33314683D01*
X31432834Y33328724D01*
X31430710Y33343042D01*
X31430000Y33357500D01*
X31430000Y33652500D01*
X31430710Y33666958D01*
X31432834Y33681276D01*
X31436351Y33695317D01*
X31441228Y33708946D01*
X31447417Y33722031D01*
X31454858Y33734447D01*
X31463481Y33746073D01*
X31473202Y33756798D01*
X31483927Y33766519D01*
X31495553Y33775142D01*
X31507969Y33782583D01*
X31521054Y33788772D01*
X31534683Y33793649D01*
X31548724Y33797166D01*
X31563042Y33799290D01*
X31577500Y33800000D01*
X31922500Y33800000D01*
X31936958Y33799290D01*
G37*
G04 #@! TD.AperFunction*
G04 #@! TA.AperFunction,SMDPad,CuDef*
G36*
X33841958Y37909290D02*
G01*
X33856276Y37907166D01*
X33870317Y37903649D01*
X33883946Y37898772D01*
X33897031Y37892583D01*
X33909447Y37885142D01*
X33921073Y37876519D01*
X33931798Y37866798D01*
X33941519Y37856073D01*
X33950142Y37844447D01*
X33957583Y37832031D01*
X33963772Y37818946D01*
X33968649Y37805317D01*
X33972166Y37791276D01*
X33974290Y37776958D01*
X33975000Y37762500D01*
X33975000Y37467500D01*
X33974290Y37453042D01*
X33972166Y37438724D01*
X33968649Y37424683D01*
X33963772Y37411054D01*
X33957583Y37397969D01*
X33950142Y37385553D01*
X33941519Y37373927D01*
X33931798Y37363202D01*
X33921073Y37353481D01*
X33909447Y37344858D01*
X33897031Y37337417D01*
X33883946Y37331228D01*
X33870317Y37326351D01*
X33856276Y37322834D01*
X33841958Y37320710D01*
X33827500Y37320000D01*
X33482500Y37320000D01*
X33468042Y37320710D01*
X33453724Y37322834D01*
X33439683Y37326351D01*
X33426054Y37331228D01*
X33412969Y37337417D01*
X33400553Y37344858D01*
X33388927Y37353481D01*
X33378202Y37363202D01*
X33368481Y37373927D01*
X33359858Y37385553D01*
X33352417Y37397969D01*
X33346228Y37411054D01*
X33341351Y37424683D01*
X33337834Y37438724D01*
X33335710Y37453042D01*
X33335000Y37467500D01*
X33335000Y37762500D01*
X33335710Y37776958D01*
X33337834Y37791276D01*
X33341351Y37805317D01*
X33346228Y37818946D01*
X33352417Y37832031D01*
X33359858Y37844447D01*
X33368481Y37856073D01*
X33378202Y37866798D01*
X33388927Y37876519D01*
X33400553Y37885142D01*
X33412969Y37892583D01*
X33426054Y37898772D01*
X33439683Y37903649D01*
X33453724Y37907166D01*
X33468042Y37909290D01*
X33482500Y37910000D01*
X33827500Y37910000D01*
X33841958Y37909290D01*
G37*
G04 #@! TD.AperFunction*
G04 #@! TA.AperFunction,SMDPad,CuDef*
G36*
X33841958Y38879290D02*
G01*
X33856276Y38877166D01*
X33870317Y38873649D01*
X33883946Y38868772D01*
X33897031Y38862583D01*
X33909447Y38855142D01*
X33921073Y38846519D01*
X33931798Y38836798D01*
X33941519Y38826073D01*
X33950142Y38814447D01*
X33957583Y38802031D01*
X33963772Y38788946D01*
X33968649Y38775317D01*
X33972166Y38761276D01*
X33974290Y38746958D01*
X33975000Y38732500D01*
X33975000Y38437500D01*
X33974290Y38423042D01*
X33972166Y38408724D01*
X33968649Y38394683D01*
X33963772Y38381054D01*
X33957583Y38367969D01*
X33950142Y38355553D01*
X33941519Y38343927D01*
X33931798Y38333202D01*
X33921073Y38323481D01*
X33909447Y38314858D01*
X33897031Y38307417D01*
X33883946Y38301228D01*
X33870317Y38296351D01*
X33856276Y38292834D01*
X33841958Y38290710D01*
X33827500Y38290000D01*
X33482500Y38290000D01*
X33468042Y38290710D01*
X33453724Y38292834D01*
X33439683Y38296351D01*
X33426054Y38301228D01*
X33412969Y38307417D01*
X33400553Y38314858D01*
X33388927Y38323481D01*
X33378202Y38333202D01*
X33368481Y38343927D01*
X33359858Y38355553D01*
X33352417Y38367969D01*
X33346228Y38381054D01*
X33341351Y38394683D01*
X33337834Y38408724D01*
X33335710Y38423042D01*
X33335000Y38437500D01*
X33335000Y38732500D01*
X33335710Y38746958D01*
X33337834Y38761276D01*
X33341351Y38775317D01*
X33346228Y38788946D01*
X33352417Y38802031D01*
X33359858Y38814447D01*
X33368481Y38826073D01*
X33378202Y38836798D01*
X33388927Y38846519D01*
X33400553Y38855142D01*
X33412969Y38862583D01*
X33426054Y38868772D01*
X33439683Y38873649D01*
X33453724Y38877166D01*
X33468042Y38879290D01*
X33482500Y38880000D01*
X33827500Y38880000D01*
X33841958Y38879290D01*
G37*
G04 #@! TD.AperFunction*
G04 #@! TA.AperFunction,SMDPad,CuDef*
G36*
X46632691Y19003947D02*
G01*
X46653926Y19000797D01*
X46674750Y18995581D01*
X46694962Y18988349D01*
X46714368Y18979170D01*
X46732781Y18968134D01*
X46750024Y18955346D01*
X46765930Y18940930D01*
X46780346Y18925024D01*
X46793134Y18907781D01*
X46804170Y18889368D01*
X46813349Y18869962D01*
X46820581Y18849750D01*
X46825797Y18828926D01*
X46828947Y18807691D01*
X46830000Y18786250D01*
X46830000Y18348750D01*
X46828947Y18327309D01*
X46825797Y18306074D01*
X46820581Y18285250D01*
X46813349Y18265038D01*
X46804170Y18245632D01*
X46793134Y18227219D01*
X46780346Y18209976D01*
X46765930Y18194070D01*
X46750024Y18179654D01*
X46732781Y18166866D01*
X46714368Y18155830D01*
X46694962Y18146651D01*
X46674750Y18139419D01*
X46653926Y18134203D01*
X46632691Y18131053D01*
X46611250Y18130000D01*
X46098750Y18130000D01*
X46077309Y18131053D01*
X46056074Y18134203D01*
X46035250Y18139419D01*
X46015038Y18146651D01*
X45995632Y18155830D01*
X45977219Y18166866D01*
X45959976Y18179654D01*
X45944070Y18194070D01*
X45929654Y18209976D01*
X45916866Y18227219D01*
X45905830Y18245632D01*
X45896651Y18265038D01*
X45889419Y18285250D01*
X45884203Y18306074D01*
X45881053Y18327309D01*
X45880000Y18348750D01*
X45880000Y18786250D01*
X45881053Y18807691D01*
X45884203Y18828926D01*
X45889419Y18849750D01*
X45896651Y18869962D01*
X45905830Y18889368D01*
X45916866Y18907781D01*
X45929654Y18925024D01*
X45944070Y18940930D01*
X45959976Y18955346D01*
X45977219Y18968134D01*
X45995632Y18979170D01*
X46015038Y18988349D01*
X46035250Y18995581D01*
X46056074Y19000797D01*
X46077309Y19003947D01*
X46098750Y19005000D01*
X46611250Y19005000D01*
X46632691Y19003947D01*
G37*
G04 #@! TD.AperFunction*
G04 #@! TA.AperFunction,SMDPad,CuDef*
G36*
X46632691Y17428947D02*
G01*
X46653926Y17425797D01*
X46674750Y17420581D01*
X46694962Y17413349D01*
X46714368Y17404170D01*
X46732781Y17393134D01*
X46750024Y17380346D01*
X46765930Y17365930D01*
X46780346Y17350024D01*
X46793134Y17332781D01*
X46804170Y17314368D01*
X46813349Y17294962D01*
X46820581Y17274750D01*
X46825797Y17253926D01*
X46828947Y17232691D01*
X46830000Y17211250D01*
X46830000Y16773750D01*
X46828947Y16752309D01*
X46825797Y16731074D01*
X46820581Y16710250D01*
X46813349Y16690038D01*
X46804170Y16670632D01*
X46793134Y16652219D01*
X46780346Y16634976D01*
X46765930Y16619070D01*
X46750024Y16604654D01*
X46732781Y16591866D01*
X46714368Y16580830D01*
X46694962Y16571651D01*
X46674750Y16564419D01*
X46653926Y16559203D01*
X46632691Y16556053D01*
X46611250Y16555000D01*
X46098750Y16555000D01*
X46077309Y16556053D01*
X46056074Y16559203D01*
X46035250Y16564419D01*
X46015038Y16571651D01*
X45995632Y16580830D01*
X45977219Y16591866D01*
X45959976Y16604654D01*
X45944070Y16619070D01*
X45929654Y16634976D01*
X45916866Y16652219D01*
X45905830Y16670632D01*
X45896651Y16690038D01*
X45889419Y16710250D01*
X45884203Y16731074D01*
X45881053Y16752309D01*
X45880000Y16773750D01*
X45880000Y17211250D01*
X45881053Y17232691D01*
X45884203Y17253926D01*
X45889419Y17274750D01*
X45896651Y17294962D01*
X45905830Y17314368D01*
X45916866Y17332781D01*
X45929654Y17350024D01*
X45944070Y17365930D01*
X45959976Y17380346D01*
X45977219Y17393134D01*
X45995632Y17404170D01*
X46015038Y17413349D01*
X46035250Y17420581D01*
X46056074Y17425797D01*
X46077309Y17428947D01*
X46098750Y17430000D01*
X46611250Y17430000D01*
X46632691Y17428947D01*
G37*
G04 #@! TD.AperFunction*
G04 #@! TA.AperFunction,SMDPad,CuDef*
G36*
X19137691Y27778947D02*
G01*
X19158926Y27775797D01*
X19179750Y27770581D01*
X19199962Y27763349D01*
X19219368Y27754170D01*
X19237781Y27743134D01*
X19255024Y27730346D01*
X19270930Y27715930D01*
X19285346Y27700024D01*
X19298134Y27682781D01*
X19309170Y27664368D01*
X19318349Y27644962D01*
X19325581Y27624750D01*
X19330797Y27603926D01*
X19333947Y27582691D01*
X19335000Y27561250D01*
X19335000Y27048750D01*
X19333947Y27027309D01*
X19330797Y27006074D01*
X19325581Y26985250D01*
X19318349Y26965038D01*
X19309170Y26945632D01*
X19298134Y26927219D01*
X19285346Y26909976D01*
X19270930Y26894070D01*
X19255024Y26879654D01*
X19237781Y26866866D01*
X19219368Y26855830D01*
X19199962Y26846651D01*
X19179750Y26839419D01*
X19158926Y26834203D01*
X19137691Y26831053D01*
X19116250Y26830000D01*
X18678750Y26830000D01*
X18657309Y26831053D01*
X18636074Y26834203D01*
X18615250Y26839419D01*
X18595038Y26846651D01*
X18575632Y26855830D01*
X18557219Y26866866D01*
X18539976Y26879654D01*
X18524070Y26894070D01*
X18509654Y26909976D01*
X18496866Y26927219D01*
X18485830Y26945632D01*
X18476651Y26965038D01*
X18469419Y26985250D01*
X18464203Y27006074D01*
X18461053Y27027309D01*
X18460000Y27048750D01*
X18460000Y27561250D01*
X18461053Y27582691D01*
X18464203Y27603926D01*
X18469419Y27624750D01*
X18476651Y27644962D01*
X18485830Y27664368D01*
X18496866Y27682781D01*
X18509654Y27700024D01*
X18524070Y27715930D01*
X18539976Y27730346D01*
X18557219Y27743134D01*
X18575632Y27754170D01*
X18595038Y27763349D01*
X18615250Y27770581D01*
X18636074Y27775797D01*
X18657309Y27778947D01*
X18678750Y27780000D01*
X19116250Y27780000D01*
X19137691Y27778947D01*
G37*
G04 #@! TD.AperFunction*
G04 #@! TA.AperFunction,SMDPad,CuDef*
G36*
X20712691Y27778947D02*
G01*
X20733926Y27775797D01*
X20754750Y27770581D01*
X20774962Y27763349D01*
X20794368Y27754170D01*
X20812781Y27743134D01*
X20830024Y27730346D01*
X20845930Y27715930D01*
X20860346Y27700024D01*
X20873134Y27682781D01*
X20884170Y27664368D01*
X20893349Y27644962D01*
X20900581Y27624750D01*
X20905797Y27603926D01*
X20908947Y27582691D01*
X20910000Y27561250D01*
X20910000Y27048750D01*
X20908947Y27027309D01*
X20905797Y27006074D01*
X20900581Y26985250D01*
X20893349Y26965038D01*
X20884170Y26945632D01*
X20873134Y26927219D01*
X20860346Y26909976D01*
X20845930Y26894070D01*
X20830024Y26879654D01*
X20812781Y26866866D01*
X20794368Y26855830D01*
X20774962Y26846651D01*
X20754750Y26839419D01*
X20733926Y26834203D01*
X20712691Y26831053D01*
X20691250Y26830000D01*
X20253750Y26830000D01*
X20232309Y26831053D01*
X20211074Y26834203D01*
X20190250Y26839419D01*
X20170038Y26846651D01*
X20150632Y26855830D01*
X20132219Y26866866D01*
X20114976Y26879654D01*
X20099070Y26894070D01*
X20084654Y26909976D01*
X20071866Y26927219D01*
X20060830Y26945632D01*
X20051651Y26965038D01*
X20044419Y26985250D01*
X20039203Y27006074D01*
X20036053Y27027309D01*
X20035000Y27048750D01*
X20035000Y27561250D01*
X20036053Y27582691D01*
X20039203Y27603926D01*
X20044419Y27624750D01*
X20051651Y27644962D01*
X20060830Y27664368D01*
X20071866Y27682781D01*
X20084654Y27700024D01*
X20099070Y27715930D01*
X20114976Y27730346D01*
X20132219Y27743134D01*
X20150632Y27754170D01*
X20170038Y27763349D01*
X20190250Y27770581D01*
X20211074Y27775797D01*
X20232309Y27778947D01*
X20253750Y27780000D01*
X20691250Y27780000D01*
X20712691Y27778947D01*
G37*
G04 #@! TD.AperFunction*
D17*
X35560000Y35560000D03*
X40640000Y35560000D03*
X40640000Y30480000D03*
X35560000Y30480000D03*
X35560000Y25400000D03*
X40640000Y25400000D03*
X60960000Y10160000D03*
X60960000Y5080000D03*
X55880000Y5080000D03*
X50800000Y5080000D03*
X50800000Y15240000D03*
X50800000Y10160000D03*
X45720000Y10160000D03*
X45720000Y15240000D03*
X45720000Y5080000D03*
X40640000Y5080000D03*
X40640000Y10160000D03*
X40640000Y15240000D03*
X35560000Y15240000D03*
X35560000Y10160000D03*
X35560000Y5080000D03*
X30480000Y5080000D03*
X30480000Y10160000D03*
X30480000Y30480000D03*
X40640000Y40640000D03*
X35560000Y40640000D03*
X58293000Y16992600D03*
X61976000Y16992600D03*
D18*
X43586800Y-28877000D02*
X43586800Y-28377000D01*
X43586800Y-28377000D02*
X43586800Y-27877000D01*
D19*
X20548600Y20980400D02*
X25450800Y20980400D01*
X17780000Y23749000D02*
X20548600Y20980400D01*
X17780000Y23749000D02*
X17780000Y27305000D01*
D20*
X16510000Y31953200D02*
X16510000Y34493200D01*
X16510000Y34493200D02*
X19050000Y34493200D01*
X19050000Y31953200D02*
X19050000Y34493200D01*
X16510000Y34493200D02*
X19050000Y31953200D01*
X16510000Y31953200D02*
X19050000Y31953200D01*
D19*
X17780000Y33147000D02*
X17818100Y33185100D01*
X17780000Y27305000D02*
X17780000Y33147000D01*
D21*
X20447000Y27305000D02*
X25400000Y27305000D01*
D19*
X25450800Y25984200D02*
X25450800Y31038800D01*
D20*
X24130000Y31953200D02*
X26670000Y31953200D01*
X24130000Y31953200D02*
X24130000Y34493200D01*
X25400000Y33223200D02*
X26670000Y34493200D01*
X24130000Y31953200D02*
X25400000Y33223200D01*
X24130000Y34493200D02*
X26670000Y34493200D01*
X26670000Y31953200D02*
X26670000Y34493200D01*
D21*
X30454600Y25984200D02*
X32131000Y25984200D01*
X27940000Y23495000D02*
X29616400Y23495000D01*
X30454600Y24307800D02*
X30454600Y25984200D01*
X30454600Y25984200D02*
X30454600Y27660600D01*
X27940000Y18491200D02*
X29616400Y18491200D01*
X27940000Y16814800D02*
X27940000Y18491200D01*
D22*
X30403800Y25933400D02*
X30454600Y25984200D01*
X27940000Y23495000D02*
X27940000Y25171400D01*
D23*
X54711600Y6273800D02*
X54711600Y8991600D01*
X51993800Y8991600D02*
X54711600Y8991600D01*
X54711600Y8991600D02*
X57277000Y8991600D01*
D21*
X57277000Y8991600D02*
X57429400Y8991600D01*
X30403800Y25933400D02*
X30454600Y25984200D01*
X28930600Y25933400D02*
X30403800Y25933400D01*
X28930600Y25933400D02*
X28930600Y25933400D01*
X27940000Y24968200D02*
X28930600Y25933400D01*
X27940000Y23495000D02*
X27940000Y24968200D01*
D22*
X46355000Y17018000D02*
X47320200Y17018000D01*
X45415200Y17018000D02*
X46355000Y17018000D01*
X46355000Y16052800D02*
X46355000Y17018000D01*
X31750000Y32461200D02*
X32562800Y32461200D01*
X30962600Y32461200D02*
X31750000Y32461200D01*
X31750000Y31597600D02*
X31750000Y32461200D01*
X33655000Y37541200D02*
X34467800Y37541200D01*
X32867600Y37541200D02*
X33655000Y37541200D01*
X33655000Y36677600D02*
X33655000Y37541200D01*
D21*
X27940000Y18491200D02*
X27940000Y23495000D01*
D19*
X46355000Y20980400D02*
X46609000Y20980400D01*
D21*
X46355000Y18516600D02*
X46355000Y20980400D01*
D19*
X53467000Y20980400D02*
X56007000Y20980400D01*
X46609000Y20980400D02*
X53467000Y20980400D01*
X30454600Y20980400D02*
X46355000Y20980400D01*
D22*
X53467000Y16992600D02*
X56007000Y16992600D01*
X56007000Y16992600D02*
X58293000Y16992600D01*
X33655000Y38633400D02*
X33655000Y39370000D01*
X31750000Y41275000D02*
X33655000Y39370000D01*
X26035000Y41275000D02*
X31750000Y41275000D01*
X33655000Y38633400D02*
X35661600Y38633400D01*
X35661600Y38633400D02*
X36830000Y37465000D01*
X36830000Y29210000D02*
X36830000Y37465000D01*
X36830000Y29210000D02*
X39370000Y26670000D01*
X39370000Y26670000D02*
X58420000Y26670000D01*
X58420000Y26670000D02*
X61976000Y23114000D01*
X61976000Y16992600D02*
X61976000Y23114000D01*
X53467000Y12979400D02*
X56007000Y12979400D01*
X26162000Y39370000D02*
X29845000Y39370000D01*
X29845000Y39370000D02*
X31750000Y37465000D01*
X31750000Y33655000D02*
X31750000Y37465000D01*
X31750000Y33553400D02*
X33121600Y33553400D01*
X33121600Y33553400D02*
X34417000Y32258000D01*
X34417000Y28448000D02*
X34417000Y32258000D01*
X34417000Y28448000D02*
X38608000Y24257000D01*
X38608000Y24257000D02*
X57658000Y24257000D01*
X57658000Y24257000D02*
X60071000Y21844000D01*
X60071000Y14986000D02*
X60071000Y21844000D01*
X58089800Y12979400D02*
X60071000Y14986000D01*
X56007000Y12979400D02*
X58089800Y12979400D01*
X22860000Y41275000D02*
X24663400Y41275000D01*
X21590000Y39979600D02*
X22860000Y41275000D01*
X21590000Y34493200D02*
X21590000Y39979600D01*
X21590000Y31953200D02*
X22860000Y33223200D01*
X22860000Y33223200D02*
X22860000Y38735000D01*
X22860000Y38735000D02*
X23495000Y39370000D01*
X23495000Y39370000D02*
X24765000Y39370000D01*
D10*
G36*
X41656018Y41597914D02*
G01*
X41659800Y29392961D01*
X41662248Y29368185D01*
X41669482Y29344363D01*
X41681225Y29322410D01*
X41700123Y29300177D01*
X42440123Y28609177D01*
X42459898Y28594051D01*
X42482243Y28583073D01*
X42506301Y28576665D01*
X42526870Y28575000D01*
X62542724Y28585976D01*
X63839800Y27561474D01*
X63839800Y5277354D01*
X62457598Y4290000D01*
X28383629Y4290000D01*
X27003800Y5517986D01*
X27003800Y7040023D01*
X52939628Y7040023D01*
X53173325Y6658281D01*
X53658090Y6403012D01*
X54183341Y6247222D01*
X54728893Y6196896D01*
X55273780Y6253969D01*
X55797063Y6416247D01*
X56249875Y6658281D01*
X56483572Y7040023D01*
X54711600Y8811995D01*
X52939628Y7040023D01*
X27003800Y7040023D01*
X27003800Y8974307D01*
X51916896Y8974307D01*
X51973969Y8429420D01*
X52136247Y7906137D01*
X52378281Y7453325D01*
X52760023Y7219628D01*
X54531995Y8991600D01*
X54891205Y8991600D01*
X56663177Y7219628D01*
X57044919Y7453325D01*
X57300188Y7938090D01*
X57455978Y8463341D01*
X57506304Y9008893D01*
X57449231Y9553780D01*
X57286953Y10077063D01*
X57044919Y10529875D01*
X56663177Y10763572D01*
X54891205Y8991600D01*
X54531995Y8991600D01*
X52760023Y10763572D01*
X52378281Y10529875D01*
X52123012Y10045110D01*
X51967222Y9519859D01*
X51916896Y8974307D01*
X27003800Y8974307D01*
X27003800Y16555000D01*
X45241928Y16555000D01*
X45254188Y16430518D01*
X45290498Y16310820D01*
X45349463Y16200506D01*
X45428815Y16103815D01*
X45525506Y16024463D01*
X45635820Y15965498D01*
X45755518Y15929188D01*
X45880000Y15916928D01*
X46069250Y15920000D01*
X46228000Y16078750D01*
X46228000Y16865500D01*
X46482000Y16865500D01*
X46482000Y16078750D01*
X46640750Y15920000D01*
X46830000Y15916928D01*
X46954482Y15929188D01*
X47074180Y15965498D01*
X47184494Y16024463D01*
X47281185Y16103815D01*
X47360537Y16200506D01*
X47419502Y16310820D01*
X47455812Y16430518D01*
X47468072Y16555000D01*
X47465000Y16706750D01*
X47306250Y16865500D01*
X46482000Y16865500D01*
X46228000Y16865500D01*
X45403750Y16865500D01*
X45245000Y16706750D01*
X45241928Y16555000D01*
X27003800Y16555000D01*
X27003800Y17015668D01*
X27010304Y16999317D01*
X27319961Y16846682D01*
X27653446Y16757390D01*
X27997942Y16734875D01*
X28340213Y16779999D01*
X28667103Y16891029D01*
X28869696Y16999317D01*
X28979651Y17275744D01*
X27940000Y18315395D01*
X27925858Y18301252D01*
X27746253Y18480857D01*
X27760395Y18495000D01*
X27746253Y18509142D01*
X27925858Y18688747D01*
X27940000Y18674605D01*
X27954143Y18688747D01*
X28133748Y18509142D01*
X28119605Y18495000D01*
X29159256Y17455349D01*
X29435683Y17565304D01*
X29588318Y17874961D01*
X29677610Y18208446D01*
X29700125Y18552942D01*
X29655001Y18895213D01*
X29627890Y18975031D01*
X30031362Y18852639D01*
X30348539Y18821400D01*
X45245390Y18821400D01*
X45241928Y18786250D01*
X45241928Y18348750D01*
X45258392Y18181592D01*
X45307150Y18020858D01*
X45386329Y17872725D01*
X45404100Y17851070D01*
X45349463Y17784494D01*
X45290498Y17674180D01*
X45254188Y17554482D01*
X45241928Y17430000D01*
X45245000Y17278250D01*
X45403750Y17119500D01*
X46228000Y17119500D01*
X46228000Y17139500D01*
X46482000Y17139500D01*
X46482000Y17119500D01*
X47306250Y17119500D01*
X47465000Y17278250D01*
X47468072Y17430000D01*
X47455812Y17554482D01*
X47419502Y17674180D01*
X47360537Y17784494D01*
X47305900Y17851070D01*
X47323671Y17872725D01*
X47402850Y18020858D01*
X47451608Y18181592D01*
X47468072Y18348750D01*
X47468072Y18786250D01*
X47464610Y18821400D01*
X56113061Y18821400D01*
X56430238Y18852639D01*
X56837211Y18976093D01*
X57212280Y19176572D01*
X57541030Y19446370D01*
X57810828Y19775120D01*
X58011307Y20150189D01*
X58134761Y20557162D01*
X58176446Y20980400D01*
X58134761Y21403638D01*
X58011307Y21810611D01*
X57810828Y22185680D01*
X57541030Y22514430D01*
X57212280Y22784228D01*
X56837211Y22984707D01*
X56430238Y23108161D01*
X56113061Y23139400D01*
X30348539Y23139400D01*
X30031362Y23108161D01*
X29624389Y22984707D01*
X29616586Y22980536D01*
X29677610Y23208446D01*
X29700125Y23552942D01*
X29655001Y23895213D01*
X29543971Y24222103D01*
X29435683Y24424696D01*
X29159256Y24534651D01*
X28119605Y23495000D01*
X28133748Y23480857D01*
X27954143Y23301252D01*
X27940000Y23315395D01*
X27925858Y23301252D01*
X27813000Y23414110D01*
X27813000Y23575890D01*
X27925858Y23688747D01*
X27940000Y23674605D01*
X28979651Y24714256D01*
X28955193Y24775744D01*
X29400349Y24775744D01*
X29510304Y24499317D01*
X29819961Y24346682D01*
X30153446Y24257390D01*
X30497942Y24234875D01*
X30840213Y24279999D01*
X31167103Y24391029D01*
X31369696Y24499317D01*
X31479651Y24775744D01*
X30440000Y25815395D01*
X29400349Y24775744D01*
X28955193Y24775744D01*
X28869696Y24990683D01*
X28560039Y25143318D01*
X28408735Y25183830D01*
X28776330Y25443659D01*
X28836029Y25267897D01*
X28944317Y25065304D01*
X29220744Y24955349D01*
X30260395Y25995000D01*
X30619605Y25995000D01*
X31659256Y24955349D01*
X31935683Y25065304D01*
X32088318Y25374961D01*
X32177610Y25708446D01*
X32200125Y26052942D01*
X32155001Y26395213D01*
X32043971Y26722103D01*
X31935683Y26924696D01*
X31659256Y27034651D01*
X30619605Y25995000D01*
X30260395Y25995000D01*
X30246253Y26009142D01*
X30425858Y26188747D01*
X30440000Y26174605D01*
X31479651Y27214256D01*
X31369696Y27490683D01*
X31060039Y27643318D01*
X30726554Y27732610D01*
X30382058Y27755125D01*
X30039787Y27710001D01*
X29712897Y27598971D01*
X29633800Y27556693D01*
X29633800Y32240000D01*
X30791928Y32240000D01*
X30804188Y32115518D01*
X30840498Y31995820D01*
X30899463Y31885506D01*
X30978815Y31788815D01*
X31075506Y31709463D01*
X31185820Y31650498D01*
X31305518Y31614188D01*
X31430000Y31601928D01*
X31464250Y31605000D01*
X31623000Y31763750D01*
X31623000Y32408000D01*
X31877000Y32408000D01*
X31877000Y31763750D01*
X32035750Y31605000D01*
X32070000Y31601928D01*
X32194482Y31614188D01*
X32314180Y31650498D01*
X32424494Y31709463D01*
X32521185Y31788815D01*
X32600537Y31885506D01*
X32659502Y31995820D01*
X32695812Y32115518D01*
X32708072Y32240000D01*
X32705000Y32249250D01*
X32546250Y32408000D01*
X31877000Y32408000D01*
X31623000Y32408000D01*
X30953750Y32408000D01*
X30795000Y32249250D01*
X30791928Y32240000D01*
X29633800Y32240000D01*
X29633800Y38467650D01*
X30962601Y37138848D01*
X30962600Y34135583D01*
X30924321Y34088940D01*
X30851726Y33953125D01*
X30807023Y33805757D01*
X30791928Y33652500D01*
X30791928Y33357500D01*
X30807023Y33204243D01*
X30844312Y33081316D01*
X30840498Y33074180D01*
X30804188Y32954482D01*
X30791928Y32830000D01*
X30795000Y32820750D01*
X30953750Y32662000D01*
X31220237Y32662000D01*
X31276875Y32631726D01*
X31424243Y32587023D01*
X31577500Y32571928D01*
X31922500Y32571928D01*
X32075757Y32587023D01*
X32223125Y32631726D01*
X32279763Y32662000D01*
X32546250Y32662000D01*
X32650250Y32766000D01*
X32795450Y32766000D01*
X33629601Y31931847D01*
X33629600Y28486663D01*
X33625792Y28448000D01*
X33629600Y28409337D01*
X33629600Y28409328D01*
X33640994Y28293644D01*
X33686018Y28145218D01*
X33759134Y28008429D01*
X33857531Y27888531D01*
X33887578Y27863872D01*
X38023877Y23727572D01*
X38048531Y23697531D01*
X38168428Y23599134D01*
X38305217Y23526018D01*
X38453643Y23480994D01*
X38569327Y23469600D01*
X38569336Y23469600D01*
X38607999Y23465792D01*
X38646662Y23469600D01*
X57331850Y23469600D01*
X59283601Y21517847D01*
X59283600Y17567406D01*
X59180826Y17721220D01*
X59021620Y17880426D01*
X58834413Y18005513D01*
X58626401Y18091675D01*
X58405576Y18135600D01*
X58180424Y18135600D01*
X57959599Y18091675D01*
X57751587Y18005513D01*
X57564380Y17880426D01*
X57463954Y17780000D01*
X57447274Y17780000D01*
X57276987Y18034852D01*
X57049252Y18262587D01*
X56781463Y18441518D01*
X56483912Y18564768D01*
X56168033Y18627600D01*
X55845967Y18627600D01*
X55530088Y18564768D01*
X55232537Y18441518D01*
X54964748Y18262587D01*
X54737013Y18034852D01*
X54737000Y18034833D01*
X54736987Y18034852D01*
X54509252Y18262587D01*
X54241463Y18441518D01*
X53943912Y18564768D01*
X53628033Y18627600D01*
X53305967Y18627600D01*
X52990088Y18564768D01*
X52692537Y18441518D01*
X52424748Y18262587D01*
X52197013Y18034852D01*
X52018082Y17767063D01*
X51894832Y17469512D01*
X51832000Y17153633D01*
X51832000Y16831567D01*
X51894832Y16515688D01*
X52018082Y16218137D01*
X52197013Y15950348D01*
X52424748Y15722613D01*
X52692537Y15543682D01*
X52990088Y15420432D01*
X53305967Y15357600D01*
X53628033Y15357600D01*
X53943912Y15420432D01*
X54241463Y15543682D01*
X54509252Y15722613D01*
X54736987Y15950348D01*
X54737000Y15950367D01*
X54737013Y15950348D01*
X54964748Y15722613D01*
X55232537Y15543682D01*
X55530088Y15420432D01*
X55845967Y15357600D01*
X56168033Y15357600D01*
X56483912Y15420432D01*
X56781463Y15543682D01*
X57049252Y15722613D01*
X57276987Y15950348D01*
X57447274Y16205200D01*
X57463954Y16205200D01*
X57564380Y16104774D01*
X57751587Y15979687D01*
X57959599Y15893525D01*
X58180424Y15849600D01*
X58405576Y15849600D01*
X58626401Y15893525D01*
X58834413Y15979687D01*
X59021620Y16104774D01*
X59180826Y16263980D01*
X59283600Y16417793D01*
X59283600Y15309218D01*
X57760707Y13766800D01*
X57447274Y13766800D01*
X57276987Y14021652D01*
X57049252Y14249387D01*
X56781463Y14428318D01*
X56483912Y14551568D01*
X56168033Y14614400D01*
X55845967Y14614400D01*
X55530088Y14551568D01*
X55232537Y14428318D01*
X54964748Y14249387D01*
X54737013Y14021652D01*
X54737000Y14021633D01*
X54736987Y14021652D01*
X54509252Y14249387D01*
X54241463Y14428318D01*
X53943912Y14551568D01*
X53628033Y14614400D01*
X53305967Y14614400D01*
X52990088Y14551568D01*
X52692537Y14428318D01*
X52424748Y14249387D01*
X52197013Y14021652D01*
X52018082Y13753863D01*
X51894832Y13456312D01*
X51832000Y13140433D01*
X51832000Y12818367D01*
X51894832Y12502488D01*
X52018082Y12204937D01*
X52197013Y11937148D01*
X52424748Y11709413D01*
X52692537Y11530482D01*
X52990088Y11407232D01*
X53235860Y11358345D01*
X53173325Y11324919D01*
X52939628Y10943177D01*
X54711600Y9171205D01*
X56483572Y10943177D01*
X56249875Y11324919D01*
X56200584Y11350875D01*
X56483912Y11407232D01*
X56781463Y11530482D01*
X57049252Y11709413D01*
X57276987Y11937148D01*
X57447274Y12192000D01*
X58053649Y12192000D01*
X58094839Y12188208D01*
X58169308Y12196022D01*
X58244157Y12203394D01*
X58246585Y12204131D01*
X58249096Y12204394D01*
X58320613Y12226586D01*
X58392583Y12248418D01*
X58394819Y12249613D01*
X58397232Y12250362D01*
X58463067Y12286093D01*
X58529372Y12321534D01*
X58531332Y12323143D01*
X58533553Y12324348D01*
X58591161Y12372243D01*
X58649269Y12419931D01*
X58675521Y12451919D01*
X60602377Y14403476D01*
X60630469Y14426531D01*
X60656713Y14458509D01*
X60658482Y14460301D01*
X60681276Y14488440D01*
X60728866Y14546428D01*
X60730060Y14548662D01*
X60731652Y14550627D01*
X60766601Y14617025D01*
X60801982Y14683217D01*
X60802716Y14685638D01*
X60803896Y14687879D01*
X60825226Y14759842D01*
X60847006Y14831643D01*
X60847254Y14834163D01*
X60847973Y14836588D01*
X60854844Y14911221D01*
X60858400Y14947327D01*
X60858400Y14949849D01*
X60862192Y14991039D01*
X60858400Y15027180D01*
X60858400Y16752330D01*
X60876925Y16659199D01*
X60963087Y16451187D01*
X61088174Y16263980D01*
X61247380Y16104774D01*
X61434587Y15979687D01*
X61642599Y15893525D01*
X61863424Y15849600D01*
X62088576Y15849600D01*
X62309401Y15893525D01*
X62517413Y15979687D01*
X62704620Y16104774D01*
X62863826Y16263980D01*
X62988913Y16451187D01*
X63075075Y16659199D01*
X63119000Y16880024D01*
X63119000Y17105176D01*
X63075075Y17326001D01*
X62988913Y17534013D01*
X62863826Y17721220D01*
X62763400Y17821646D01*
X62763400Y23075338D01*
X62767208Y23114001D01*
X62763400Y23152664D01*
X62763400Y23152673D01*
X62752006Y23268357D01*
X62706982Y23416783D01*
X62633866Y23553572D01*
X62596474Y23599134D01*
X62560121Y23643431D01*
X62560119Y23643433D01*
X62535469Y23673469D01*
X62505433Y23698119D01*
X59004128Y27199422D01*
X58979469Y27229469D01*
X58859572Y27327866D01*
X58722783Y27400982D01*
X58574357Y27446006D01*
X58458673Y27457400D01*
X58458663Y27457400D01*
X58420000Y27461208D01*
X58381337Y27457400D01*
X39696152Y27457400D01*
X37617400Y29536150D01*
X37617400Y37426338D01*
X37621208Y37465001D01*
X37617400Y37503664D01*
X37617400Y37503673D01*
X37606006Y37619357D01*
X37560982Y37767783D01*
X37487866Y37904572D01*
X37429629Y37975534D01*
X37414121Y37994431D01*
X37414119Y37994433D01*
X37389469Y38024469D01*
X37359433Y38049119D01*
X36245727Y39162823D01*
X36221069Y39192869D01*
X36101172Y39291266D01*
X35964383Y39364382D01*
X35815957Y39409406D01*
X35700273Y39420800D01*
X35700263Y39420800D01*
X35661600Y39424608D01*
X35622937Y39420800D01*
X34441206Y39420800D01*
X34431006Y39524357D01*
X34385982Y39672783D01*
X34321506Y39793408D01*
X34312866Y39809573D01*
X34239121Y39899430D01*
X34214469Y39929469D01*
X34184428Y39954123D01*
X32334128Y41804422D01*
X32309469Y41834469D01*
X32189572Y41932866D01*
X32052783Y42005982D01*
X31904357Y42051006D01*
X31788673Y42062400D01*
X31788663Y42062400D01*
X31750000Y42066208D01*
X31711337Y42062400D01*
X29709648Y42062400D01*
X30039076Y42545000D01*
X40560950Y42545000D01*
X41656018Y41597914D01*
G37*
X41656018Y41597914D02*
X41659800Y29392961D01*
X41662248Y29368185D01*
X41669482Y29344363D01*
X41681225Y29322410D01*
X41700123Y29300177D01*
X42440123Y28609177D01*
X42459898Y28594051D01*
X42482243Y28583073D01*
X42506301Y28576665D01*
X42526870Y28575000D01*
X62542724Y28585976D01*
X63839800Y27561474D01*
X63839800Y5277354D01*
X62457598Y4290000D01*
X28383629Y4290000D01*
X27003800Y5517986D01*
X27003800Y7040023D01*
X52939628Y7040023D01*
X53173325Y6658281D01*
X53658090Y6403012D01*
X54183341Y6247222D01*
X54728893Y6196896D01*
X55273780Y6253969D01*
X55797063Y6416247D01*
X56249875Y6658281D01*
X56483572Y7040023D01*
X54711600Y8811995D01*
X52939628Y7040023D01*
X27003800Y7040023D01*
X27003800Y8974307D01*
X51916896Y8974307D01*
X51973969Y8429420D01*
X52136247Y7906137D01*
X52378281Y7453325D01*
X52760023Y7219628D01*
X54531995Y8991600D01*
X54891205Y8991600D01*
X56663177Y7219628D01*
X57044919Y7453325D01*
X57300188Y7938090D01*
X57455978Y8463341D01*
X57506304Y9008893D01*
X57449231Y9553780D01*
X57286953Y10077063D01*
X57044919Y10529875D01*
X56663177Y10763572D01*
X54891205Y8991600D01*
X54531995Y8991600D01*
X52760023Y10763572D01*
X52378281Y10529875D01*
X52123012Y10045110D01*
X51967222Y9519859D01*
X51916896Y8974307D01*
X27003800Y8974307D01*
X27003800Y16555000D01*
X45241928Y16555000D01*
X45254188Y16430518D01*
X45290498Y16310820D01*
X45349463Y16200506D01*
X45428815Y16103815D01*
X45525506Y16024463D01*
X45635820Y15965498D01*
X45755518Y15929188D01*
X45880000Y15916928D01*
X46069250Y15920000D01*
X46228000Y16078750D01*
X46228000Y16865500D01*
X46482000Y16865500D01*
X46482000Y16078750D01*
X46640750Y15920000D01*
X46830000Y15916928D01*
X46954482Y15929188D01*
X47074180Y15965498D01*
X47184494Y16024463D01*
X47281185Y16103815D01*
X47360537Y16200506D01*
X47419502Y16310820D01*
X47455812Y16430518D01*
X47468072Y16555000D01*
X47465000Y16706750D01*
X47306250Y16865500D01*
X46482000Y16865500D01*
X46228000Y16865500D01*
X45403750Y16865500D01*
X45245000Y16706750D01*
X45241928Y16555000D01*
X27003800Y16555000D01*
X27003800Y17015668D01*
X27010304Y16999317D01*
X27319961Y16846682D01*
X27653446Y16757390D01*
X27997942Y16734875D01*
X28340213Y16779999D01*
X28667103Y16891029D01*
X28869696Y16999317D01*
X28979651Y17275744D01*
X27940000Y18315395D01*
X27925858Y18301252D01*
X27746253Y18480857D01*
X27760395Y18495000D01*
X27746253Y18509142D01*
X27925858Y18688747D01*
X27940000Y18674605D01*
X27954143Y18688747D01*
X28133748Y18509142D01*
X28119605Y18495000D01*
X29159256Y17455349D01*
X29435683Y17565304D01*
X29588318Y17874961D01*
X29677610Y18208446D01*
X29700125Y18552942D01*
X29655001Y18895213D01*
X29627890Y18975031D01*
X30031362Y18852639D01*
X30348539Y18821400D01*
X45245390Y18821400D01*
X45241928Y18786250D01*
X45241928Y18348750D01*
X45258392Y18181592D01*
X45307150Y18020858D01*
X45386329Y17872725D01*
X45404100Y17851070D01*
X45349463Y17784494D01*
X45290498Y17674180D01*
X45254188Y17554482D01*
X45241928Y17430000D01*
X45245000Y17278250D01*
X45403750Y17119500D01*
X46228000Y17119500D01*
X46228000Y17139500D01*
X46482000Y17139500D01*
X46482000Y17119500D01*
X47306250Y17119500D01*
X47465000Y17278250D01*
X47468072Y17430000D01*
X47455812Y17554482D01*
X47419502Y17674180D01*
X47360537Y17784494D01*
X47305900Y17851070D01*
X47323671Y17872725D01*
X47402850Y18020858D01*
X47451608Y18181592D01*
X47468072Y18348750D01*
X47468072Y18786250D01*
X47464610Y18821400D01*
X56113061Y18821400D01*
X56430238Y18852639D01*
X56837211Y18976093D01*
X57212280Y19176572D01*
X57541030Y19446370D01*
X57810828Y19775120D01*
X58011307Y20150189D01*
X58134761Y20557162D01*
X58176446Y20980400D01*
X58134761Y21403638D01*
X58011307Y21810611D01*
X57810828Y22185680D01*
X57541030Y22514430D01*
X57212280Y22784228D01*
X56837211Y22984707D01*
X56430238Y23108161D01*
X56113061Y23139400D01*
X30348539Y23139400D01*
X30031362Y23108161D01*
X29624389Y22984707D01*
X29616586Y22980536D01*
X29677610Y23208446D01*
X29700125Y23552942D01*
X29655001Y23895213D01*
X29543971Y24222103D01*
X29435683Y24424696D01*
X29159256Y24534651D01*
X28119605Y23495000D01*
X28133748Y23480857D01*
X27954143Y23301252D01*
X27940000Y23315395D01*
X27925858Y23301252D01*
X27813000Y23414110D01*
X27813000Y23575890D01*
X27925858Y23688747D01*
X27940000Y23674605D01*
X28979651Y24714256D01*
X28955193Y24775744D01*
X29400349Y24775744D01*
X29510304Y24499317D01*
X29819961Y24346682D01*
X30153446Y24257390D01*
X30497942Y24234875D01*
X30840213Y24279999D01*
X31167103Y24391029D01*
X31369696Y24499317D01*
X31479651Y24775744D01*
X30440000Y25815395D01*
X29400349Y24775744D01*
X28955193Y24775744D01*
X28869696Y24990683D01*
X28560039Y25143318D01*
X28408735Y25183830D01*
X28776330Y25443659D01*
X28836029Y25267897D01*
X28944317Y25065304D01*
X29220744Y24955349D01*
X30260395Y25995000D01*
X30619605Y25995000D01*
X31659256Y24955349D01*
X31935683Y25065304D01*
X32088318Y25374961D01*
X32177610Y25708446D01*
X32200125Y26052942D01*
X32155001Y26395213D01*
X32043971Y26722103D01*
X31935683Y26924696D01*
X31659256Y27034651D01*
X30619605Y25995000D01*
X30260395Y25995000D01*
X30246253Y26009142D01*
X30425858Y26188747D01*
X30440000Y26174605D01*
X31479651Y27214256D01*
X31369696Y27490683D01*
X31060039Y27643318D01*
X30726554Y27732610D01*
X30382058Y27755125D01*
X30039787Y27710001D01*
X29712897Y27598971D01*
X29633800Y27556693D01*
X29633800Y32240000D01*
X30791928Y32240000D01*
X30804188Y32115518D01*
X30840498Y31995820D01*
X30899463Y31885506D01*
X30978815Y31788815D01*
X31075506Y31709463D01*
X31185820Y31650498D01*
X31305518Y31614188D01*
X31430000Y31601928D01*
X31464250Y31605000D01*
X31623000Y31763750D01*
X31623000Y32408000D01*
X31877000Y32408000D01*
X31877000Y31763750D01*
X32035750Y31605000D01*
X32070000Y31601928D01*
X32194482Y31614188D01*
X32314180Y31650498D01*
X32424494Y31709463D01*
X32521185Y31788815D01*
X32600537Y31885506D01*
X32659502Y31995820D01*
X32695812Y32115518D01*
X32708072Y32240000D01*
X32705000Y32249250D01*
X32546250Y32408000D01*
X31877000Y32408000D01*
X31623000Y32408000D01*
X30953750Y32408000D01*
X30795000Y32249250D01*
X30791928Y32240000D01*
X29633800Y32240000D01*
X29633800Y38467650D01*
X30962601Y37138848D01*
X30962600Y34135583D01*
X30924321Y34088940D01*
X30851726Y33953125D01*
X30807023Y33805757D01*
X30791928Y33652500D01*
X30791928Y33357500D01*
X30807023Y33204243D01*
X30844312Y33081316D01*
X30840498Y33074180D01*
X30804188Y32954482D01*
X30791928Y32830000D01*
X30795000Y32820750D01*
X30953750Y32662000D01*
X31220237Y32662000D01*
X31276875Y32631726D01*
X31424243Y32587023D01*
X31577500Y32571928D01*
X31922500Y32571928D01*
X32075757Y32587023D01*
X32223125Y32631726D01*
X32279763Y32662000D01*
X32546250Y32662000D01*
X32650250Y32766000D01*
X32795450Y32766000D01*
X33629601Y31931847D01*
X33629600Y28486663D01*
X33625792Y28448000D01*
X33629600Y28409337D01*
X33629600Y28409328D01*
X33640994Y28293644D01*
X33686018Y28145218D01*
X33759134Y28008429D01*
X33857531Y27888531D01*
X33887578Y27863872D01*
X38023877Y23727572D01*
X38048531Y23697531D01*
X38168428Y23599134D01*
X38305217Y23526018D01*
X38453643Y23480994D01*
X38569327Y23469600D01*
X38569336Y23469600D01*
X38607999Y23465792D01*
X38646662Y23469600D01*
X57331850Y23469600D01*
X59283601Y21517847D01*
X59283600Y17567406D01*
X59180826Y17721220D01*
X59021620Y17880426D01*
X58834413Y18005513D01*
X58626401Y18091675D01*
X58405576Y18135600D01*
X58180424Y18135600D01*
X57959599Y18091675D01*
X57751587Y18005513D01*
X57564380Y17880426D01*
X57463954Y17780000D01*
X57447274Y17780000D01*
X57276987Y18034852D01*
X57049252Y18262587D01*
X56781463Y18441518D01*
X56483912Y18564768D01*
X56168033Y18627600D01*
X55845967Y18627600D01*
X55530088Y18564768D01*
X55232537Y18441518D01*
X54964748Y18262587D01*
X54737013Y18034852D01*
X54737000Y18034833D01*
X54736987Y18034852D01*
X54509252Y18262587D01*
X54241463Y18441518D01*
X53943912Y18564768D01*
X53628033Y18627600D01*
X53305967Y18627600D01*
X52990088Y18564768D01*
X52692537Y18441518D01*
X52424748Y18262587D01*
X52197013Y18034852D01*
X52018082Y17767063D01*
X51894832Y17469512D01*
X51832000Y17153633D01*
X51832000Y16831567D01*
X51894832Y16515688D01*
X52018082Y16218137D01*
X52197013Y15950348D01*
X52424748Y15722613D01*
X52692537Y15543682D01*
X52990088Y15420432D01*
X53305967Y15357600D01*
X53628033Y15357600D01*
X53943912Y15420432D01*
X54241463Y15543682D01*
X54509252Y15722613D01*
X54736987Y15950348D01*
X54737000Y15950367D01*
X54737013Y15950348D01*
X54964748Y15722613D01*
X55232537Y15543682D01*
X55530088Y15420432D01*
X55845967Y15357600D01*
X56168033Y15357600D01*
X56483912Y15420432D01*
X56781463Y15543682D01*
X57049252Y15722613D01*
X57276987Y15950348D01*
X57447274Y16205200D01*
X57463954Y16205200D01*
X57564380Y16104774D01*
X57751587Y15979687D01*
X57959599Y15893525D01*
X58180424Y15849600D01*
X58405576Y15849600D01*
X58626401Y15893525D01*
X58834413Y15979687D01*
X59021620Y16104774D01*
X59180826Y16263980D01*
X59283600Y16417793D01*
X59283600Y15309218D01*
X57760707Y13766800D01*
X57447274Y13766800D01*
X57276987Y14021652D01*
X57049252Y14249387D01*
X56781463Y14428318D01*
X56483912Y14551568D01*
X56168033Y14614400D01*
X55845967Y14614400D01*
X55530088Y14551568D01*
X55232537Y14428318D01*
X54964748Y14249387D01*
X54737013Y14021652D01*
X54737000Y14021633D01*
X54736987Y14021652D01*
X54509252Y14249387D01*
X54241463Y14428318D01*
X53943912Y14551568D01*
X53628033Y14614400D01*
X53305967Y14614400D01*
X52990088Y14551568D01*
X52692537Y14428318D01*
X52424748Y14249387D01*
X52197013Y14021652D01*
X52018082Y13753863D01*
X51894832Y13456312D01*
X51832000Y13140433D01*
X51832000Y12818367D01*
X51894832Y12502488D01*
X52018082Y12204937D01*
X52197013Y11937148D01*
X52424748Y11709413D01*
X52692537Y11530482D01*
X52990088Y11407232D01*
X53235860Y11358345D01*
X53173325Y11324919D01*
X52939628Y10943177D01*
X54711600Y9171205D01*
X56483572Y10943177D01*
X56249875Y11324919D01*
X56200584Y11350875D01*
X56483912Y11407232D01*
X56781463Y11530482D01*
X57049252Y11709413D01*
X57276987Y11937148D01*
X57447274Y12192000D01*
X58053649Y12192000D01*
X58094839Y12188208D01*
X58169308Y12196022D01*
X58244157Y12203394D01*
X58246585Y12204131D01*
X58249096Y12204394D01*
X58320613Y12226586D01*
X58392583Y12248418D01*
X58394819Y12249613D01*
X58397232Y12250362D01*
X58463067Y12286093D01*
X58529372Y12321534D01*
X58531332Y12323143D01*
X58533553Y12324348D01*
X58591161Y12372243D01*
X58649269Y12419931D01*
X58675521Y12451919D01*
X60602377Y14403476D01*
X60630469Y14426531D01*
X60656713Y14458509D01*
X60658482Y14460301D01*
X60681276Y14488440D01*
X60728866Y14546428D01*
X60730060Y14548662D01*
X60731652Y14550627D01*
X60766601Y14617025D01*
X60801982Y14683217D01*
X60802716Y14685638D01*
X60803896Y14687879D01*
X60825226Y14759842D01*
X60847006Y14831643D01*
X60847254Y14834163D01*
X60847973Y14836588D01*
X60854844Y14911221D01*
X60858400Y14947327D01*
X60858400Y14949849D01*
X60862192Y14991039D01*
X60858400Y15027180D01*
X60858400Y16752330D01*
X60876925Y16659199D01*
X60963087Y16451187D01*
X61088174Y16263980D01*
X61247380Y16104774D01*
X61434587Y15979687D01*
X61642599Y15893525D01*
X61863424Y15849600D01*
X62088576Y15849600D01*
X62309401Y15893525D01*
X62517413Y15979687D01*
X62704620Y16104774D01*
X62863826Y16263980D01*
X62988913Y16451187D01*
X63075075Y16659199D01*
X63119000Y16880024D01*
X63119000Y17105176D01*
X63075075Y17326001D01*
X62988913Y17534013D01*
X62863826Y17721220D01*
X62763400Y17821646D01*
X62763400Y23075338D01*
X62767208Y23114001D01*
X62763400Y23152664D01*
X62763400Y23152673D01*
X62752006Y23268357D01*
X62706982Y23416783D01*
X62633866Y23553572D01*
X62596474Y23599134D01*
X62560121Y23643431D01*
X62560119Y23643433D01*
X62535469Y23673469D01*
X62505433Y23698119D01*
X59004128Y27199422D01*
X58979469Y27229469D01*
X58859572Y27327866D01*
X58722783Y27400982D01*
X58574357Y27446006D01*
X58458673Y27457400D01*
X58458663Y27457400D01*
X58420000Y27461208D01*
X58381337Y27457400D01*
X39696152Y27457400D01*
X37617400Y29536150D01*
X37617400Y37426338D01*
X37621208Y37465001D01*
X37617400Y37503664D01*
X37617400Y37503673D01*
X37606006Y37619357D01*
X37560982Y37767783D01*
X37487866Y37904572D01*
X37429629Y37975534D01*
X37414121Y37994431D01*
X37414119Y37994433D01*
X37389469Y38024469D01*
X37359433Y38049119D01*
X36245727Y39162823D01*
X36221069Y39192869D01*
X36101172Y39291266D01*
X35964383Y39364382D01*
X35815957Y39409406D01*
X35700273Y39420800D01*
X35700263Y39420800D01*
X35661600Y39424608D01*
X35622937Y39420800D01*
X34441206Y39420800D01*
X34431006Y39524357D01*
X34385982Y39672783D01*
X34321506Y39793408D01*
X34312866Y39809573D01*
X34239121Y39899430D01*
X34214469Y39929469D01*
X34184428Y39954123D01*
X32334128Y41804422D01*
X32309469Y41834469D01*
X32189572Y41932866D01*
X32052783Y42005982D01*
X31904357Y42051006D01*
X31788673Y42062400D01*
X31788663Y42062400D01*
X31750000Y42066208D01*
X31711337Y42062400D01*
X29709648Y42062400D01*
X30039076Y42545000D01*
X40560950Y42545000D01*
X41656018Y41597914D01*
G36*
X32799082Y39112367D02*
G01*
X32756726Y39033125D01*
X32712023Y38885757D01*
X32696928Y38732500D01*
X32696928Y38437500D01*
X32712023Y38284243D01*
X32749312Y38161316D01*
X32745498Y38154180D01*
X32709188Y38034482D01*
X32696928Y37910000D01*
X32700000Y37900750D01*
X32858750Y37742000D01*
X33125237Y37742000D01*
X33181875Y37711726D01*
X33329243Y37667023D01*
X33482500Y37651928D01*
X33827500Y37651928D01*
X33980757Y37667023D01*
X34128125Y37711726D01*
X34184763Y37742000D01*
X34451250Y37742000D01*
X34555250Y37846000D01*
X35335450Y37846000D01*
X36042601Y37138847D01*
X36042600Y29248663D01*
X36038792Y29210000D01*
X36042600Y29171337D01*
X36042600Y29171328D01*
X36053994Y29055644D01*
X36099018Y28907218D01*
X36172134Y28770429D01*
X36270531Y28650531D01*
X36300578Y28625872D01*
X38785881Y26140567D01*
X38810531Y26110531D01*
X38840567Y26085881D01*
X38840569Y26085879D01*
X38880703Y26052942D01*
X38930428Y26012134D01*
X39067217Y25939018D01*
X39215643Y25893994D01*
X39331327Y25882600D01*
X39331336Y25882600D01*
X39369999Y25878792D01*
X39408662Y25882600D01*
X58093850Y25882600D01*
X61188601Y22787847D01*
X61188600Y17821646D01*
X61088174Y17721220D01*
X60963087Y17534013D01*
X60876925Y17326001D01*
X60858400Y17232870D01*
X60858400Y21805338D01*
X60862208Y21844001D01*
X60858400Y21882664D01*
X60858400Y21882673D01*
X60847006Y21998357D01*
X60801982Y22146783D01*
X60728866Y22283572D01*
X60630469Y22403469D01*
X60600433Y22428119D01*
X58242128Y24786423D01*
X58217469Y24816469D01*
X58097572Y24914866D01*
X57960783Y24987982D01*
X57812357Y25033006D01*
X57696673Y25044400D01*
X57696663Y25044400D01*
X57658000Y25048208D01*
X57619337Y25044400D01*
X38934151Y25044400D01*
X35204400Y28774150D01*
X35204400Y32219338D01*
X35208208Y32258001D01*
X35204400Y32296664D01*
X35204400Y32296673D01*
X35193006Y32412357D01*
X35147982Y32560783D01*
X35074866Y32697572D01*
X34976469Y32817469D01*
X34946433Y32842119D01*
X33705727Y34082823D01*
X33681069Y34112869D01*
X33561172Y34211266D01*
X33424383Y34284382D01*
X33275957Y34329406D01*
X33160273Y34340800D01*
X33160263Y34340800D01*
X33121600Y34344608D01*
X33082937Y34340800D01*
X32537400Y34340800D01*
X32537400Y37320000D01*
X32696928Y37320000D01*
X32709188Y37195518D01*
X32745498Y37075820D01*
X32804463Y36965506D01*
X32883815Y36868815D01*
X32980506Y36789463D01*
X33090820Y36730498D01*
X33210518Y36694188D01*
X33335000Y36681928D01*
X33369250Y36685000D01*
X33528000Y36843750D01*
X33528000Y37488000D01*
X33782000Y37488000D01*
X33782000Y36843750D01*
X33940750Y36685000D01*
X33975000Y36681928D01*
X34099482Y36694188D01*
X34219180Y36730498D01*
X34329494Y36789463D01*
X34426185Y36868815D01*
X34505537Y36965506D01*
X34564502Y37075820D01*
X34600812Y37195518D01*
X34613072Y37320000D01*
X34610000Y37329250D01*
X34451250Y37488000D01*
X33782000Y37488000D01*
X33528000Y37488000D01*
X32858750Y37488000D01*
X32700000Y37329250D01*
X32696928Y37320000D01*
X32537400Y37320000D01*
X32537400Y37426337D01*
X32541208Y37465000D01*
X32537400Y37503663D01*
X32537400Y37503673D01*
X32526006Y37619357D01*
X32480982Y37767783D01*
X32439174Y37846000D01*
X32407866Y37904573D01*
X32334121Y37994430D01*
X32309469Y38024469D01*
X32279428Y38049123D01*
X30429128Y39899422D01*
X30404469Y39929469D01*
X30284572Y40027866D01*
X30147783Y40100982D01*
X29999357Y40146006D01*
X29883673Y40157400D01*
X29883663Y40157400D01*
X29845000Y40161208D01*
X29806337Y40157400D01*
X29633800Y40157400D01*
X29633800Y40487600D01*
X31423850Y40487600D01*
X32799082Y39112367D01*
G37*
X32799082Y39112367D02*
X32756726Y39033125D01*
X32712023Y38885757D01*
X32696928Y38732500D01*
X32696928Y38437500D01*
X32712023Y38284243D01*
X32749312Y38161316D01*
X32745498Y38154180D01*
X32709188Y38034482D01*
X32696928Y37910000D01*
X32700000Y37900750D01*
X32858750Y37742000D01*
X33125237Y37742000D01*
X33181875Y37711726D01*
X33329243Y37667023D01*
X33482500Y37651928D01*
X33827500Y37651928D01*
X33980757Y37667023D01*
X34128125Y37711726D01*
X34184763Y37742000D01*
X34451250Y37742000D01*
X34555250Y37846000D01*
X35335450Y37846000D01*
X36042601Y37138847D01*
X36042600Y29248663D01*
X36038792Y29210000D01*
X36042600Y29171337D01*
X36042600Y29171328D01*
X36053994Y29055644D01*
X36099018Y28907218D01*
X36172134Y28770429D01*
X36270531Y28650531D01*
X36300578Y28625872D01*
X38785881Y26140567D01*
X38810531Y26110531D01*
X38840567Y26085881D01*
X38840569Y26085879D01*
X38880703Y26052942D01*
X38930428Y26012134D01*
X39067217Y25939018D01*
X39215643Y25893994D01*
X39331327Y25882600D01*
X39331336Y25882600D01*
X39369999Y25878792D01*
X39408662Y25882600D01*
X58093850Y25882600D01*
X61188601Y22787847D01*
X61188600Y17821646D01*
X61088174Y17721220D01*
X60963087Y17534013D01*
X60876925Y17326001D01*
X60858400Y17232870D01*
X60858400Y21805338D01*
X60862208Y21844001D01*
X60858400Y21882664D01*
X60858400Y21882673D01*
X60847006Y21998357D01*
X60801982Y22146783D01*
X60728866Y22283572D01*
X60630469Y22403469D01*
X60600433Y22428119D01*
X58242128Y24786423D01*
X58217469Y24816469D01*
X58097572Y24914866D01*
X57960783Y24987982D01*
X57812357Y25033006D01*
X57696673Y25044400D01*
X57696663Y25044400D01*
X57658000Y25048208D01*
X57619337Y25044400D01*
X38934151Y25044400D01*
X35204400Y28774150D01*
X35204400Y32219338D01*
X35208208Y32258001D01*
X35204400Y32296664D01*
X35204400Y32296673D01*
X35193006Y32412357D01*
X35147982Y32560783D01*
X35074866Y32697572D01*
X34976469Y32817469D01*
X34946433Y32842119D01*
X33705727Y34082823D01*
X33681069Y34112869D01*
X33561172Y34211266D01*
X33424383Y34284382D01*
X33275957Y34329406D01*
X33160273Y34340800D01*
X33160263Y34340800D01*
X33121600Y34344608D01*
X33082937Y34340800D01*
X32537400Y34340800D01*
X32537400Y37320000D01*
X32696928Y37320000D01*
X32709188Y37195518D01*
X32745498Y37075820D01*
X32804463Y36965506D01*
X32883815Y36868815D01*
X32980506Y36789463D01*
X33090820Y36730498D01*
X33210518Y36694188D01*
X33335000Y36681928D01*
X33369250Y36685000D01*
X33528000Y36843750D01*
X33528000Y37488000D01*
X33782000Y37488000D01*
X33782000Y36843750D01*
X33940750Y36685000D01*
X33975000Y36681928D01*
X34099482Y36694188D01*
X34219180Y36730498D01*
X34329494Y36789463D01*
X34426185Y36868815D01*
X34505537Y36965506D01*
X34564502Y37075820D01*
X34600812Y37195518D01*
X34613072Y37320000D01*
X34610000Y37329250D01*
X34451250Y37488000D01*
X33782000Y37488000D01*
X33528000Y37488000D01*
X32858750Y37488000D01*
X32700000Y37329250D01*
X32696928Y37320000D01*
X32537400Y37320000D01*
X32537400Y37426337D01*
X32541208Y37465000D01*
X32537400Y37503663D01*
X32537400Y37503673D01*
X32526006Y37619357D01*
X32480982Y37767783D01*
X32439174Y37846000D01*
X32407866Y37904573D01*
X32334121Y37994430D01*
X32309469Y38024469D01*
X32279428Y38049123D01*
X30429128Y39899422D01*
X30404469Y39929469D01*
X30284572Y40027866D01*
X30147783Y40100982D01*
X29999357Y40146006D01*
X29883673Y40157400D01*
X29883663Y40157400D01*
X29845000Y40161208D01*
X29806337Y40157400D01*
X29633800Y40157400D01*
X29633800Y40487600D01*
X31423850Y40487600D01*
X32799082Y39112367D01*
M02*
