G04 #@! TF.GenerationSoftware,KiCad,Pcbnew,(5.1.5)-3*
G04 #@! TF.CreationDate,2020-04-20T12:10:48-07:00*
G04 #@! TF.ProjectId,10096510 Battery Connection,31303039-3635-4313-9020-426174746572,rev?*
G04 #@! TF.SameCoordinates,PXb874050PY8789ff8*
G04 #@! TF.FileFunction,Soldermask,Top*
G04 #@! TF.FilePolarity,Negative*
%FSLAX46Y46*%
G04 Gerber Fmt 4.6, Leading zero omitted, Abs format (unit mm)*
G04 Created by KiCad (PCBNEW (5.1.5)-3) date 2020-04-20 12:10:48*
%MOMM*%
%LPD*%
G04 APERTURE LIST*
%ADD10C,0.254000*%
%ADD11C,1.000000*%
%ADD12C,0.584200*%
%ADD13C,0.100000*%
G04 APERTURE END LIST*
D10*
X-15588948Y-27244523D02*
X-14863234Y-27244523D01*
X-15226091Y-28514523D02*
X-15226091Y-27244523D01*
X-14197996Y-27244523D02*
X-13956091Y-27244523D01*
X-13835139Y-27305000D01*
X-13714186Y-27425952D01*
X-13653710Y-27667857D01*
X-13653710Y-28091190D01*
X-13714186Y-28333095D01*
X-13835139Y-28454047D01*
X-13956091Y-28514523D01*
X-14197996Y-28514523D01*
X-14318948Y-28454047D01*
X-14439900Y-28333095D01*
X-14500377Y-28091190D01*
X-14500377Y-27667857D01*
X-14439900Y-27425952D01*
X-14318948Y-27305000D01*
X-14197996Y-27244523D01*
X-13109424Y-28514523D02*
X-13109424Y-27244523D01*
X-12625615Y-27244523D01*
X-12504662Y-27305000D01*
X-12444186Y-27365476D01*
X-12383710Y-27486428D01*
X-12383710Y-27667857D01*
X-12444186Y-27788809D01*
X-12504662Y-27849285D01*
X-12625615Y-27909761D01*
X-13109424Y-27909761D01*
X-10932281Y-28454047D02*
X-10750853Y-28514523D01*
X-10448472Y-28514523D01*
X-10327520Y-28454047D01*
X-10267043Y-28393571D01*
X-10206567Y-28272619D01*
X-10206567Y-28151666D01*
X-10267043Y-28030714D01*
X-10327520Y-27970238D01*
X-10448472Y-27909761D01*
X-10690377Y-27849285D01*
X-10811329Y-27788809D01*
X-10871805Y-27728333D01*
X-10932281Y-27607380D01*
X-10932281Y-27486428D01*
X-10871805Y-27365476D01*
X-10811329Y-27305000D01*
X-10690377Y-27244523D01*
X-10387996Y-27244523D01*
X-10206567Y-27305000D01*
X-9420377Y-27244523D02*
X-9178472Y-27244523D01*
X-9057520Y-27305000D01*
X-8936567Y-27425952D01*
X-8876091Y-27667857D01*
X-8876091Y-28091190D01*
X-8936567Y-28333095D01*
X-9057520Y-28454047D01*
X-9178472Y-28514523D01*
X-9420377Y-28514523D01*
X-9541329Y-28454047D01*
X-9662281Y-28333095D01*
X-9722758Y-28091190D01*
X-9722758Y-27667857D01*
X-9662281Y-27425952D01*
X-9541329Y-27305000D01*
X-9420377Y-27244523D01*
X-7727043Y-28514523D02*
X-8331805Y-28514523D01*
X-8331805Y-27244523D01*
X-7303710Y-28514523D02*
X-7303710Y-27244523D01*
X-7001329Y-27244523D01*
X-6819900Y-27305000D01*
X-6698948Y-27425952D01*
X-6638472Y-27546904D01*
X-6577996Y-27788809D01*
X-6577996Y-27970238D01*
X-6638472Y-28212142D01*
X-6698948Y-28333095D01*
X-6819900Y-28454047D01*
X-7001329Y-28514523D01*
X-7303710Y-28514523D01*
X-6033710Y-27849285D02*
X-5610377Y-27849285D01*
X-5428948Y-28514523D02*
X-6033710Y-28514523D01*
X-6033710Y-27244523D01*
X-5428948Y-27244523D01*
X-4158948Y-28514523D02*
X-4582281Y-27909761D01*
X-4884662Y-28514523D02*
X-4884662Y-27244523D01*
X-4400853Y-27244523D01*
X-4279900Y-27305000D01*
X-4219424Y-27365476D01*
X-4158948Y-27486428D01*
X-4158948Y-27667857D01*
X-4219424Y-27788809D01*
X-4279900Y-27849285D01*
X-4400853Y-27909761D01*
X-4884662Y-27909761D01*
X-3614662Y-28514523D02*
X-3614662Y-27244523D01*
X-3191329Y-28151666D01*
X-2767996Y-27244523D01*
X-2767996Y-28514523D01*
X-2223710Y-28151666D02*
X-1618948Y-28151666D01*
X-2344662Y-28514523D02*
X-1921329Y-27244523D01*
X-1497996Y-28514523D01*
X-1135139Y-28454047D02*
X-953710Y-28514523D01*
X-651329Y-28514523D01*
X-530377Y-28454047D01*
X-469900Y-28393571D01*
X-409424Y-28272619D01*
X-409424Y-28151666D01*
X-469900Y-28030714D01*
X-530377Y-27970238D01*
X-651329Y-27909761D01*
X-893234Y-27849285D01*
X-1014186Y-27788809D01*
X-1074662Y-27728333D01*
X-1135139Y-27607380D01*
X-1135139Y-27486428D01*
X-1074662Y-27365476D01*
X-1014186Y-27305000D01*
X-893234Y-27244523D01*
X-590853Y-27244523D01*
X-409424Y-27305000D01*
X134861Y-28514523D02*
X134861Y-27244523D01*
X860576Y-28514523D02*
X316290Y-27788809D01*
X860576Y-27244523D02*
X134861Y-27970238D01*
X2735338Y-28998333D02*
X2674861Y-28937857D01*
X2553909Y-28756428D01*
X2493433Y-28635476D01*
X2432957Y-28454047D01*
X2372480Y-28151666D01*
X2372480Y-27909761D01*
X2432957Y-27607380D01*
X2493433Y-27425952D01*
X2553909Y-27305000D01*
X2674861Y-27123571D01*
X2735338Y-27063095D01*
X3642480Y-27849285D02*
X3219147Y-27849285D01*
X3219147Y-28514523D02*
X3219147Y-27244523D01*
X3823909Y-27244523D01*
X4005338Y-28635476D02*
X4972957Y-28635476D01*
X5275338Y-28514523D02*
X5275338Y-27244523D01*
X5698671Y-28151666D01*
X6122004Y-27244523D01*
X6122004Y-28514523D01*
X6666290Y-28151666D02*
X7271052Y-28151666D01*
X6545338Y-28514523D02*
X6968671Y-27244523D01*
X7392004Y-28514523D01*
X7754861Y-28454047D02*
X7936290Y-28514523D01*
X8238671Y-28514523D01*
X8359623Y-28454047D01*
X8420100Y-28393571D01*
X8480576Y-28272619D01*
X8480576Y-28151666D01*
X8420100Y-28030714D01*
X8359623Y-27970238D01*
X8238671Y-27909761D01*
X7996766Y-27849285D01*
X7875814Y-27788809D01*
X7815338Y-27728333D01*
X7754861Y-27607380D01*
X7754861Y-27486428D01*
X7815338Y-27365476D01*
X7875814Y-27305000D01*
X7996766Y-27244523D01*
X8299147Y-27244523D01*
X8480576Y-27305000D01*
X9024861Y-28514523D02*
X9024861Y-27244523D01*
X9750576Y-28514523D02*
X9206290Y-27788809D01*
X9750576Y-27244523D02*
X9024861Y-27970238D01*
X10294861Y-28393571D02*
X10355338Y-28454047D01*
X10294861Y-28514523D01*
X10234385Y-28454047D01*
X10294861Y-28393571D01*
X10294861Y-28514523D01*
X11564861Y-27305000D02*
X11443909Y-27244523D01*
X11262480Y-27244523D01*
X11081052Y-27305000D01*
X10960100Y-27425952D01*
X10899623Y-27546904D01*
X10839147Y-27788809D01*
X10839147Y-27970238D01*
X10899623Y-28212142D01*
X10960100Y-28333095D01*
X11081052Y-28454047D01*
X11262480Y-28514523D01*
X11383433Y-28514523D01*
X11564861Y-28454047D01*
X11625338Y-28393571D01*
X11625338Y-27970238D01*
X11383433Y-27970238D01*
X12592957Y-27849285D02*
X12774385Y-27909761D01*
X12834861Y-27970238D01*
X12895338Y-28091190D01*
X12895338Y-28272619D01*
X12834861Y-28393571D01*
X12774385Y-28454047D01*
X12653433Y-28514523D01*
X12169623Y-28514523D01*
X12169623Y-27244523D01*
X12592957Y-27244523D01*
X12713909Y-27305000D01*
X12774385Y-27365476D01*
X12834861Y-27486428D01*
X12834861Y-27607380D01*
X12774385Y-27728333D01*
X12713909Y-27788809D01*
X12592957Y-27849285D01*
X12169623Y-27849285D01*
X14165338Y-28514523D02*
X13742004Y-27909761D01*
X13439623Y-28514523D02*
X13439623Y-27244523D01*
X13923433Y-27244523D01*
X14044385Y-27305000D01*
X14104861Y-27365476D01*
X14165338Y-27486428D01*
X14165338Y-27667857D01*
X14104861Y-27788809D01*
X14044385Y-27849285D01*
X13923433Y-27909761D01*
X13439623Y-27909761D01*
X14588671Y-28998333D02*
X14649147Y-28937857D01*
X14770100Y-28756428D01*
X14830576Y-28635476D01*
X14891052Y-28454047D01*
X14951528Y-28151666D01*
X14951528Y-27909761D01*
X14891052Y-27607380D01*
X14830576Y-27425952D01*
X14770100Y-27305000D01*
X14649147Y-27123571D01*
X14588671Y-27063095D01*
D11*
X30795216Y30480000D02*
G75*
G03X30795216Y30480000I-315216J0D01*
G01*
X58608216Y16992600D02*
G75*
G03X58608216Y16992600I-315216J0D01*
G01*
X62291216Y16992600D02*
G75*
G03X62291216Y16992600I-315216J0D01*
G01*
X40955216Y10160000D02*
G75*
G03X40955216Y10160000I-315216J0D01*
G01*
X40955216Y15240000D02*
G75*
G03X40955216Y15240000I-315216J0D01*
G01*
X40955216Y5080000D02*
G75*
G03X40955216Y5080000I-315216J0D01*
G01*
X35875216Y5080000D02*
G75*
G03X35875216Y5080000I-315216J0D01*
G01*
X35875216Y10160000D02*
G75*
G03X35875216Y10160000I-315216J0D01*
G01*
X35875216Y15240000D02*
G75*
G03X35875216Y15240000I-315216J0D01*
G01*
X46035216Y5080000D02*
G75*
G03X46035216Y5080000I-315216J0D01*
G01*
X46035216Y10160000D02*
G75*
G03X46035216Y10160000I-315216J0D01*
G01*
X46035216Y15240000D02*
G75*
G03X46035216Y15240000I-315216J0D01*
G01*
X51115216Y15240000D02*
G75*
G03X51115216Y15240000I-315216J0D01*
G01*
X51115216Y10160000D02*
G75*
G03X51115216Y10160000I-315216J0D01*
G01*
X30795216Y10160000D02*
G75*
G03X30795216Y10160000I-315216J0D01*
G01*
X30795216Y5080000D02*
G75*
G03X30795216Y5080000I-315216J0D01*
G01*
X51115216Y5080000D02*
G75*
G03X51115216Y5080000I-315216J0D01*
G01*
X56195216Y5080000D02*
G75*
G03X56195216Y5080000I-315216J0D01*
G01*
X61275216Y5080000D02*
G75*
G03X61275216Y5080000I-315216J0D01*
G01*
X61275216Y10160000D02*
G75*
G03X61275216Y10160000I-315216J0D01*
G01*
X40955216Y25400000D02*
G75*
G03X40955216Y25400000I-315216J0D01*
G01*
X35875216Y25400000D02*
G75*
G03X35875216Y25400000I-315216J0D01*
G01*
X35875216Y30480000D02*
G75*
G03X35875216Y30480000I-315216J0D01*
G01*
X40955216Y30480000D02*
G75*
G03X40955216Y30480000I-315216J0D01*
G01*
X40955216Y35560000D02*
G75*
G03X40955216Y35560000I-315216J0D01*
G01*
X35875216Y35560000D02*
G75*
G03X35875216Y35560000I-315216J0D01*
G01*
X40955216Y40640000D02*
G75*
G03X40955216Y40640000I-315216J0D01*
G01*
X35875216Y40640000D02*
G75*
G03X35875216Y40640000I-315216J0D01*
G01*
D12*
X43002200Y29997400D02*
X43002200Y44983400D01*
X43002200Y29997400D02*
X68021200Y29997400D01*
X68021200Y0D02*
X68021200Y29997400D01*
X0Y0D02*
X68021200Y0D01*
X0Y0D02*
X0Y44983400D01*
X0Y44983400D02*
X43002200Y44983400D01*
D13*
G36*
X55352528Y11104460D02*
G01*
X55752410Y10938823D01*
X55752412Y10938822D01*
X56112297Y10698355D01*
X56418355Y10392297D01*
X56658823Y10032410D01*
X56824460Y9632528D01*
X56908900Y9208017D01*
X56908900Y8775183D01*
X56824460Y8350672D01*
X56658823Y7950790D01*
X56658822Y7950788D01*
X56418355Y7590903D01*
X56112297Y7284845D01*
X55752412Y7044378D01*
X55752411Y7044377D01*
X55752410Y7044377D01*
X55352528Y6878740D01*
X54928017Y6794300D01*
X54495183Y6794300D01*
X54070672Y6878740D01*
X53670790Y7044377D01*
X53670789Y7044377D01*
X53670788Y7044378D01*
X53310903Y7284845D01*
X53004845Y7590903D01*
X52764378Y7950788D01*
X52764377Y7950790D01*
X52598740Y8350672D01*
X52514300Y8775183D01*
X52514300Y9208017D01*
X52598740Y9632528D01*
X52764377Y10032410D01*
X53004845Y10392297D01*
X53310903Y10698355D01*
X53670788Y10938822D01*
X53670790Y10938823D01*
X54070672Y11104460D01*
X54495183Y11188900D01*
X54928017Y11188900D01*
X55352528Y11104460D01*
G37*
G36*
X56313564Y13990011D02*
G01*
X56504833Y13910785D01*
X56504835Y13910784D01*
X56676973Y13795765D01*
X56823365Y13649373D01*
X56938385Y13477233D01*
X57017611Y13285964D01*
X57058000Y13082916D01*
X57058000Y12875884D01*
X57017611Y12672836D01*
X56938385Y12481567D01*
X56938384Y12481565D01*
X56823365Y12309427D01*
X56676973Y12163035D01*
X56504835Y12048016D01*
X56504834Y12048015D01*
X56504833Y12048015D01*
X56313564Y11968789D01*
X56110516Y11928400D01*
X55903484Y11928400D01*
X55700436Y11968789D01*
X55509167Y12048015D01*
X55509166Y12048015D01*
X55509165Y12048016D01*
X55337027Y12163035D01*
X55190635Y12309427D01*
X55075616Y12481565D01*
X55075615Y12481567D01*
X54996389Y12672836D01*
X54956000Y12875884D01*
X54956000Y13082916D01*
X54996389Y13285964D01*
X55075615Y13477233D01*
X55190635Y13649373D01*
X55337027Y13795765D01*
X55509165Y13910784D01*
X55509167Y13910785D01*
X55700436Y13990011D01*
X55903484Y14030400D01*
X56110516Y14030400D01*
X56313564Y13990011D01*
G37*
G36*
X53773564Y13990011D02*
G01*
X53964833Y13910785D01*
X53964835Y13910784D01*
X54136973Y13795765D01*
X54283365Y13649373D01*
X54398385Y13477233D01*
X54477611Y13285964D01*
X54518000Y13082916D01*
X54518000Y12875884D01*
X54477611Y12672836D01*
X54398385Y12481567D01*
X54398384Y12481565D01*
X54283365Y12309427D01*
X54136973Y12163035D01*
X53964835Y12048016D01*
X53964834Y12048015D01*
X53964833Y12048015D01*
X53773564Y11968789D01*
X53570516Y11928400D01*
X53363484Y11928400D01*
X53160436Y11968789D01*
X52969167Y12048015D01*
X52969166Y12048015D01*
X52969165Y12048016D01*
X52797027Y12163035D01*
X52650635Y12309427D01*
X52535616Y12481565D01*
X52535615Y12481567D01*
X52456389Y12672836D01*
X52416000Y12875884D01*
X52416000Y13082916D01*
X52456389Y13285964D01*
X52535615Y13477233D01*
X52650635Y13649373D01*
X52797027Y13795765D01*
X52969165Y13910784D01*
X52969167Y13910785D01*
X53160436Y13990011D01*
X53363484Y14030400D01*
X53570516Y14030400D01*
X53773564Y13990011D01*
G37*
G36*
X53773564Y18003211D02*
G01*
X53964833Y17923985D01*
X53964835Y17923984D01*
X54136973Y17808965D01*
X54283365Y17662573D01*
X54398385Y17490433D01*
X54477611Y17299164D01*
X54518000Y17096116D01*
X54518000Y16889084D01*
X54477611Y16686036D01*
X54409910Y16522592D01*
X54398384Y16494765D01*
X54283365Y16322627D01*
X54136973Y16176235D01*
X53964835Y16061216D01*
X53964834Y16061215D01*
X53964833Y16061215D01*
X53773564Y15981989D01*
X53570516Y15941600D01*
X53363484Y15941600D01*
X53160436Y15981989D01*
X52969167Y16061215D01*
X52969166Y16061215D01*
X52969165Y16061216D01*
X52797027Y16176235D01*
X52650635Y16322627D01*
X52535616Y16494765D01*
X52524090Y16522592D01*
X52456389Y16686036D01*
X52416000Y16889084D01*
X52416000Y17096116D01*
X52456389Y17299164D01*
X52535615Y17490433D01*
X52650635Y17662573D01*
X52797027Y17808965D01*
X52969165Y17923984D01*
X52969167Y17923985D01*
X53160436Y18003211D01*
X53363484Y18043600D01*
X53570516Y18043600D01*
X53773564Y18003211D01*
G37*
G36*
X56313564Y18003211D02*
G01*
X56504833Y17923985D01*
X56504835Y17923984D01*
X56676973Y17808965D01*
X56823365Y17662573D01*
X56938385Y17490433D01*
X57017611Y17299164D01*
X57058000Y17096116D01*
X57058000Y16889084D01*
X57017611Y16686036D01*
X56949910Y16522592D01*
X56938384Y16494765D01*
X56823365Y16322627D01*
X56676973Y16176235D01*
X56504835Y16061216D01*
X56504834Y16061215D01*
X56504833Y16061215D01*
X56313564Y15981989D01*
X56110516Y15941600D01*
X55903484Y15941600D01*
X55700436Y15981989D01*
X55509167Y16061215D01*
X55509166Y16061215D01*
X55509165Y16061216D01*
X55337027Y16176235D01*
X55190635Y16322627D01*
X55075616Y16494765D01*
X55064090Y16522592D01*
X54996389Y16686036D01*
X54956000Y16889084D01*
X54956000Y17096116D01*
X54996389Y17299164D01*
X55075615Y17490433D01*
X55190635Y17662573D01*
X55337027Y17808965D01*
X55509165Y17923984D01*
X55509167Y17923985D01*
X55700436Y18003211D01*
X55903484Y18043600D01*
X56110516Y18043600D01*
X56313564Y18003211D01*
G37*
G36*
X46734591Y17476915D02*
G01*
X46768569Y17466607D01*
X46799890Y17449866D01*
X46827339Y17427339D01*
X46849866Y17399890D01*
X46866607Y17368569D01*
X46876915Y17334591D01*
X46881000Y17293110D01*
X46881000Y16691890D01*
X46876915Y16650409D01*
X46866607Y16616431D01*
X46849866Y16585110D01*
X46827339Y16557661D01*
X46799890Y16535134D01*
X46768569Y16518393D01*
X46734591Y16508085D01*
X46693110Y16504000D01*
X46016890Y16504000D01*
X45975409Y16508085D01*
X45941431Y16518393D01*
X45910110Y16535134D01*
X45882661Y16557661D01*
X45860134Y16585110D01*
X45843393Y16616431D01*
X45833085Y16650409D01*
X45829000Y16691890D01*
X45829000Y17293110D01*
X45833085Y17334591D01*
X45843393Y17368569D01*
X45860134Y17399890D01*
X45882661Y17427339D01*
X45910110Y17449866D01*
X45941431Y17466607D01*
X45975409Y17476915D01*
X46016890Y17481000D01*
X46693110Y17481000D01*
X46734591Y17476915D01*
G37*
G36*
X28280867Y19618692D02*
G01*
X28368959Y19582203D01*
X28493540Y19530600D01*
X28684939Y19402711D01*
X28847711Y19239939D01*
X28975600Y19048540D01*
X29017473Y18947448D01*
X29063692Y18835867D01*
X29108600Y18610098D01*
X29108600Y18379902D01*
X29063692Y18154133D01*
X29034263Y18083085D01*
X28975600Y17941460D01*
X28847711Y17750061D01*
X28684939Y17587289D01*
X28493540Y17459400D01*
X28416137Y17427339D01*
X28280867Y17371308D01*
X28055098Y17326400D01*
X27824902Y17326400D01*
X27599133Y17371308D01*
X27463863Y17427339D01*
X27386460Y17459400D01*
X27195061Y17587289D01*
X27032289Y17750061D01*
X26904400Y17941460D01*
X26845737Y18083085D01*
X26816308Y18154133D01*
X26771400Y18379902D01*
X26771400Y18610098D01*
X26816308Y18835867D01*
X26862527Y18947448D01*
X26904400Y19048540D01*
X27032289Y19239939D01*
X27195061Y19402711D01*
X27386460Y19530600D01*
X27511041Y19582203D01*
X27599133Y19618692D01*
X27824902Y19663600D01*
X28055098Y19663600D01*
X28280867Y19618692D01*
G37*
G36*
X46734591Y19051915D02*
G01*
X46768569Y19041607D01*
X46799890Y19024866D01*
X46827339Y19002339D01*
X46849866Y18974890D01*
X46866607Y18943569D01*
X46876915Y18909591D01*
X46881000Y18868110D01*
X46881000Y18266890D01*
X46876915Y18225409D01*
X46866607Y18191431D01*
X46849866Y18160110D01*
X46827339Y18132661D01*
X46799890Y18110134D01*
X46768569Y18093393D01*
X46734591Y18083085D01*
X46693110Y18079000D01*
X46016890Y18079000D01*
X45975409Y18083085D01*
X45941431Y18093393D01*
X45910110Y18110134D01*
X45882661Y18132661D01*
X45860134Y18160110D01*
X45843393Y18191431D01*
X45833085Y18225409D01*
X45829000Y18266890D01*
X45829000Y18868110D01*
X45833085Y18909591D01*
X45843393Y18943569D01*
X45860134Y18974890D01*
X45882661Y19002339D01*
X45910110Y19024866D01*
X45941431Y19041607D01*
X45975409Y19051915D01*
X46016890Y19056000D01*
X46693110Y19056000D01*
X46734591Y19051915D01*
G37*
G36*
X25780867Y22118692D02*
G01*
X25868959Y22082203D01*
X25993540Y22030600D01*
X26184939Y21902711D01*
X26347711Y21739939D01*
X26475600Y21548540D01*
X26504721Y21478235D01*
X26563692Y21335867D01*
X26608600Y21110098D01*
X26608600Y20879902D01*
X26563692Y20654133D01*
X26527203Y20566041D01*
X26475600Y20441460D01*
X26347711Y20250061D01*
X26184939Y20087289D01*
X25993540Y19959400D01*
X25868959Y19907797D01*
X25780867Y19871308D01*
X25555098Y19826400D01*
X25324902Y19826400D01*
X25099133Y19871308D01*
X25011041Y19907797D01*
X24886460Y19959400D01*
X24695061Y20087289D01*
X24532289Y20250061D01*
X24404400Y20441460D01*
X24352797Y20566041D01*
X24316308Y20654133D01*
X24271400Y20879902D01*
X24271400Y21110098D01*
X24316308Y21335867D01*
X24375279Y21478235D01*
X24404400Y21548540D01*
X24532289Y21739939D01*
X24695061Y21902711D01*
X24886460Y22030600D01*
X25011041Y22082203D01*
X25099133Y22118692D01*
X25324902Y22163600D01*
X25555098Y22163600D01*
X25780867Y22118692D01*
G37*
G36*
X30780867Y22118692D02*
G01*
X30868959Y22082203D01*
X30993540Y22030600D01*
X31184939Y21902711D01*
X31347711Y21739939D01*
X31475600Y21548540D01*
X31504721Y21478235D01*
X31563692Y21335867D01*
X31608600Y21110098D01*
X31608600Y20879902D01*
X31563692Y20654133D01*
X31527203Y20566041D01*
X31475600Y20441460D01*
X31347711Y20250061D01*
X31184939Y20087289D01*
X30993540Y19959400D01*
X30868959Y19907797D01*
X30780867Y19871308D01*
X30555098Y19826400D01*
X30324902Y19826400D01*
X30099133Y19871308D01*
X30011041Y19907797D01*
X29886460Y19959400D01*
X29695061Y20087289D01*
X29532289Y20250061D01*
X29404400Y20441460D01*
X29352797Y20566041D01*
X29316308Y20654133D01*
X29271400Y20879902D01*
X29271400Y21110098D01*
X29316308Y21335867D01*
X29375279Y21478235D01*
X29404400Y21548540D01*
X29532289Y21739939D01*
X29695061Y21902711D01*
X29886460Y22030600D01*
X30011041Y22082203D01*
X30099133Y22118692D01*
X30324902Y22163600D01*
X30555098Y22163600D01*
X30780867Y22118692D01*
G37*
G36*
X53773564Y21991011D02*
G01*
X53964833Y21911785D01*
X53964835Y21911784D01*
X54136973Y21796765D01*
X54283365Y21650373D01*
X54351408Y21548540D01*
X54398385Y21478233D01*
X54477611Y21286964D01*
X54518000Y21083916D01*
X54518000Y20876884D01*
X54477611Y20673836D01*
X54469449Y20654132D01*
X54398384Y20482565D01*
X54283365Y20310427D01*
X54136973Y20164035D01*
X53964835Y20049016D01*
X53964834Y20049015D01*
X53964833Y20049015D01*
X53773564Y19969789D01*
X53570516Y19929400D01*
X53363484Y19929400D01*
X53160436Y19969789D01*
X52969167Y20049015D01*
X52969166Y20049015D01*
X52969165Y20049016D01*
X52797027Y20164035D01*
X52650635Y20310427D01*
X52535616Y20482565D01*
X52464551Y20654132D01*
X52456389Y20673836D01*
X52416000Y20876884D01*
X52416000Y21083916D01*
X52456389Y21286964D01*
X52535615Y21478233D01*
X52582593Y21548540D01*
X52650635Y21650373D01*
X52797027Y21796765D01*
X52969165Y21911784D01*
X52969167Y21911785D01*
X53160436Y21991011D01*
X53363484Y22031400D01*
X53570516Y22031400D01*
X53773564Y21991011D01*
G37*
G36*
X56313564Y21991011D02*
G01*
X56504833Y21911785D01*
X56504835Y21911784D01*
X56676973Y21796765D01*
X56823365Y21650373D01*
X56891408Y21548540D01*
X56938385Y21478233D01*
X57017611Y21286964D01*
X57058000Y21083916D01*
X57058000Y20876884D01*
X57017611Y20673836D01*
X57009449Y20654132D01*
X56938384Y20482565D01*
X56823365Y20310427D01*
X56676973Y20164035D01*
X56504835Y20049016D01*
X56504834Y20049015D01*
X56504833Y20049015D01*
X56313564Y19969789D01*
X56110516Y19929400D01*
X55903484Y19929400D01*
X55700436Y19969789D01*
X55509167Y20049015D01*
X55509166Y20049015D01*
X55509165Y20049016D01*
X55337027Y20164035D01*
X55190635Y20310427D01*
X55075616Y20482565D01*
X55004551Y20654132D01*
X54996389Y20673836D01*
X54956000Y20876884D01*
X54956000Y21083916D01*
X54996389Y21286964D01*
X55075615Y21478233D01*
X55122593Y21548540D01*
X55190635Y21650373D01*
X55337027Y21796765D01*
X55509165Y21911784D01*
X55509167Y21911785D01*
X55700436Y21991011D01*
X55903484Y22031400D01*
X56110516Y22031400D01*
X56313564Y21991011D01*
G37*
G36*
X28280867Y24618692D02*
G01*
X28368959Y24582203D01*
X28493540Y24530600D01*
X28684939Y24402711D01*
X28847711Y24239939D01*
X28975600Y24048540D01*
X29027203Y23923959D01*
X29063692Y23835867D01*
X29108600Y23610098D01*
X29108600Y23379902D01*
X29063692Y23154133D01*
X29027203Y23066041D01*
X28975600Y22941460D01*
X28847711Y22750061D01*
X28684939Y22587289D01*
X28493540Y22459400D01*
X28368959Y22407797D01*
X28280867Y22371308D01*
X28055098Y22326400D01*
X27824902Y22326400D01*
X27599133Y22371308D01*
X27511041Y22407797D01*
X27386460Y22459400D01*
X27195061Y22587289D01*
X27032289Y22750061D01*
X26904400Y22941460D01*
X26852797Y23066041D01*
X26816308Y23154133D01*
X26771400Y23379902D01*
X26771400Y23610098D01*
X26816308Y23835867D01*
X26852797Y23923959D01*
X26904400Y24048540D01*
X27032289Y24239939D01*
X27195061Y24402711D01*
X27386460Y24530600D01*
X27511041Y24582203D01*
X27599133Y24618692D01*
X27824902Y24663600D01*
X28055098Y24663600D01*
X28280867Y24618692D01*
G37*
G36*
X30780867Y27118692D02*
G01*
X30868959Y27082203D01*
X30993540Y27030600D01*
X31184939Y26902711D01*
X31347711Y26739939D01*
X31475600Y26548540D01*
X31527203Y26423959D01*
X31563692Y26335867D01*
X31608600Y26110098D01*
X31608600Y25879902D01*
X31563692Y25654133D01*
X31527203Y25566041D01*
X31475600Y25441460D01*
X31347711Y25250061D01*
X31184939Y25087289D01*
X30993540Y24959400D01*
X30868959Y24907797D01*
X30780867Y24871308D01*
X30555098Y24826400D01*
X30324902Y24826400D01*
X30099133Y24871308D01*
X30011041Y24907797D01*
X29886460Y24959400D01*
X29695061Y25087289D01*
X29532289Y25250061D01*
X29404400Y25441460D01*
X29352797Y25566041D01*
X29316308Y25654133D01*
X29271400Y25879902D01*
X29271400Y26110098D01*
X29316308Y26335867D01*
X29352797Y26423959D01*
X29404400Y26548540D01*
X29532289Y26739939D01*
X29695061Y26902711D01*
X29886460Y27030600D01*
X30011041Y27082203D01*
X30099133Y27118692D01*
X30324902Y27163600D01*
X30555098Y27163600D01*
X30780867Y27118692D01*
G37*
G36*
X25780867Y27118692D02*
G01*
X25868959Y27082203D01*
X25993540Y27030600D01*
X26184939Y26902711D01*
X26347711Y26739939D01*
X26475600Y26548540D01*
X26527203Y26423959D01*
X26563692Y26335867D01*
X26608600Y26110098D01*
X26608600Y25879902D01*
X26563692Y25654133D01*
X26527203Y25566041D01*
X26475600Y25441460D01*
X26347711Y25250061D01*
X26184939Y25087289D01*
X25993540Y24959400D01*
X25868959Y24907797D01*
X25780867Y24871308D01*
X25555098Y24826400D01*
X25324902Y24826400D01*
X25099133Y24871308D01*
X25011041Y24907797D01*
X24886460Y24959400D01*
X24695061Y25087289D01*
X24532289Y25250061D01*
X24404400Y25441460D01*
X24352797Y25566041D01*
X24316308Y25654133D01*
X24271400Y25879902D01*
X24271400Y26110098D01*
X24316308Y26335867D01*
X24352797Y26423959D01*
X24404400Y26548540D01*
X24532289Y26739939D01*
X24695061Y26902711D01*
X24886460Y27030600D01*
X25011041Y27082203D01*
X25099133Y27118692D01*
X25324902Y27163600D01*
X25555098Y27163600D01*
X25780867Y27118692D01*
G37*
G36*
X19239591Y27826915D02*
G01*
X19273569Y27816607D01*
X19304890Y27799866D01*
X19332339Y27777339D01*
X19354866Y27749890D01*
X19371607Y27718569D01*
X19381915Y27684591D01*
X19386000Y27643110D01*
X19386000Y26966890D01*
X19381915Y26925409D01*
X19371607Y26891431D01*
X19354866Y26860110D01*
X19332339Y26832661D01*
X19304890Y26810134D01*
X19273569Y26793393D01*
X19239591Y26783085D01*
X19198110Y26779000D01*
X18596890Y26779000D01*
X18555409Y26783085D01*
X18521431Y26793393D01*
X18490110Y26810134D01*
X18462661Y26832661D01*
X18440134Y26860110D01*
X18423393Y26891431D01*
X18413085Y26925409D01*
X18409000Y26966890D01*
X18409000Y27643110D01*
X18413085Y27684591D01*
X18423393Y27718569D01*
X18440134Y27749890D01*
X18462661Y27777339D01*
X18490110Y27799866D01*
X18521431Y27816607D01*
X18555409Y27826915D01*
X18596890Y27831000D01*
X19198110Y27831000D01*
X19239591Y27826915D01*
G37*
G36*
X20814591Y27826915D02*
G01*
X20848569Y27816607D01*
X20879890Y27799866D01*
X20907339Y27777339D01*
X20929866Y27749890D01*
X20946607Y27718569D01*
X20956915Y27684591D01*
X20961000Y27643110D01*
X20961000Y26966890D01*
X20956915Y26925409D01*
X20946607Y26891431D01*
X20929866Y26860110D01*
X20907339Y26832661D01*
X20879890Y26810134D01*
X20848569Y26793393D01*
X20814591Y26783085D01*
X20773110Y26779000D01*
X20171890Y26779000D01*
X20130409Y26783085D01*
X20096431Y26793393D01*
X20065110Y26810134D01*
X20037661Y26832661D01*
X20015134Y26860110D01*
X19998393Y26891431D01*
X19988085Y26925409D01*
X19984000Y26966890D01*
X19984000Y27643110D01*
X19988085Y27684591D01*
X19998393Y27718569D01*
X20015134Y27749890D01*
X20037661Y27777339D01*
X20065110Y27799866D01*
X20096431Y27816607D01*
X20130409Y27826915D01*
X20171890Y27831000D01*
X20773110Y27831000D01*
X20814591Y27826915D01*
G37*
G36*
X27508400Y31114800D02*
G01*
X25831600Y31114800D01*
X25831600Y32791600D01*
X27508400Y32791600D01*
X27508400Y31114800D01*
G37*
G36*
X16673564Y32775490D02*
G01*
X16754552Y32759381D01*
X16907131Y32696181D01*
X17044449Y32604428D01*
X17161228Y32487649D01*
X17252981Y32350331D01*
X17316181Y32197752D01*
X17348400Y32035775D01*
X17348400Y31870625D01*
X17316181Y31708648D01*
X17252981Y31556069D01*
X17161228Y31418751D01*
X17044449Y31301972D01*
X16907131Y31210219D01*
X16754552Y31147019D01*
X16673563Y31130909D01*
X16592576Y31114800D01*
X16427424Y31114800D01*
X16346437Y31130909D01*
X16265448Y31147019D01*
X16112869Y31210219D01*
X15975551Y31301972D01*
X15858772Y31418751D01*
X15767019Y31556069D01*
X15703819Y31708648D01*
X15671600Y31870625D01*
X15671600Y32035775D01*
X15703819Y32197752D01*
X15767019Y32350331D01*
X15858772Y32487649D01*
X15975551Y32604428D01*
X16112869Y32696181D01*
X16265448Y32759381D01*
X16346436Y32775490D01*
X16427424Y32791600D01*
X16592576Y32791600D01*
X16673564Y32775490D01*
G37*
G36*
X19213564Y32775490D02*
G01*
X19294552Y32759381D01*
X19447131Y32696181D01*
X19584449Y32604428D01*
X19701228Y32487649D01*
X19792981Y32350331D01*
X19856181Y32197752D01*
X19888400Y32035775D01*
X19888400Y31870625D01*
X19856181Y31708648D01*
X19792981Y31556069D01*
X19701228Y31418751D01*
X19584449Y31301972D01*
X19447131Y31210219D01*
X19294552Y31147019D01*
X19213563Y31130909D01*
X19132576Y31114800D01*
X18967424Y31114800D01*
X18886437Y31130909D01*
X18805448Y31147019D01*
X18652869Y31210219D01*
X18515551Y31301972D01*
X18398772Y31418751D01*
X18307019Y31556069D01*
X18243819Y31708648D01*
X18211600Y31870625D01*
X18211600Y32035775D01*
X18243819Y32197752D01*
X18307019Y32350331D01*
X18398772Y32487649D01*
X18515551Y32604428D01*
X18652869Y32696181D01*
X18805448Y32759381D01*
X18886436Y32775490D01*
X18967424Y32791600D01*
X19132576Y32791600D01*
X19213564Y32775490D01*
G37*
G36*
X21753564Y32775490D02*
G01*
X21834552Y32759381D01*
X21987131Y32696181D01*
X22124449Y32604428D01*
X22241228Y32487649D01*
X22332981Y32350331D01*
X22396181Y32197752D01*
X22428400Y32035775D01*
X22428400Y31870625D01*
X22396181Y31708648D01*
X22332981Y31556069D01*
X22241228Y31418751D01*
X22124449Y31301972D01*
X21987131Y31210219D01*
X21834552Y31147019D01*
X21753563Y31130909D01*
X21672576Y31114800D01*
X21507424Y31114800D01*
X21426437Y31130909D01*
X21345448Y31147019D01*
X21192869Y31210219D01*
X21055551Y31301972D01*
X20938772Y31418751D01*
X20847019Y31556069D01*
X20783819Y31708648D01*
X20751600Y31870625D01*
X20751600Y32035775D01*
X20783819Y32197752D01*
X20847019Y32350331D01*
X20938772Y32487649D01*
X21055551Y32604428D01*
X21192869Y32696181D01*
X21345448Y32759381D01*
X21426436Y32775490D01*
X21507424Y32791600D01*
X21672576Y32791600D01*
X21753564Y32775490D01*
G37*
G36*
X24293564Y32775490D02*
G01*
X24374552Y32759381D01*
X24527131Y32696181D01*
X24664449Y32604428D01*
X24781228Y32487649D01*
X24872981Y32350331D01*
X24936181Y32197752D01*
X24968400Y32035775D01*
X24968400Y31870625D01*
X24936181Y31708648D01*
X24872981Y31556069D01*
X24781228Y31418751D01*
X24664449Y31301972D01*
X24527131Y31210219D01*
X24374552Y31147019D01*
X24293563Y31130909D01*
X24212576Y31114800D01*
X24047424Y31114800D01*
X23966437Y31130909D01*
X23885448Y31147019D01*
X23732869Y31210219D01*
X23595551Y31301972D01*
X23478772Y31418751D01*
X23387019Y31556069D01*
X23323819Y31708648D01*
X23291600Y31870625D01*
X23291600Y32035775D01*
X23323819Y32197752D01*
X23387019Y32350331D01*
X23478772Y32487649D01*
X23595551Y32604428D01*
X23732869Y32696181D01*
X23885448Y32759381D01*
X23966436Y32775490D01*
X24047424Y32791600D01*
X24212576Y32791600D01*
X24293564Y32775490D01*
G37*
G36*
X32031938Y32878284D02*
G01*
X32052557Y32872029D01*
X32071553Y32861876D01*
X32088208Y32848208D01*
X32101876Y32831553D01*
X32112029Y32812557D01*
X32118284Y32791938D01*
X32121000Y32764360D01*
X32121000Y32305640D01*
X32118284Y32278062D01*
X32112029Y32257443D01*
X32101876Y32238447D01*
X32088208Y32221792D01*
X32071553Y32208124D01*
X32052557Y32197971D01*
X32031938Y32191716D01*
X32004360Y32189000D01*
X31495640Y32189000D01*
X31468062Y32191716D01*
X31447443Y32197971D01*
X31428447Y32208124D01*
X31411792Y32221792D01*
X31398124Y32238447D01*
X31387971Y32257443D01*
X31381716Y32278062D01*
X31379000Y32305640D01*
X31379000Y32764360D01*
X31381716Y32791938D01*
X31387971Y32812557D01*
X31398124Y32831553D01*
X31411792Y32848208D01*
X31428447Y32861876D01*
X31447443Y32872029D01*
X31468062Y32878284D01*
X31495640Y32881000D01*
X32004360Y32881000D01*
X32031938Y32878284D01*
G37*
G36*
X32031938Y33848284D02*
G01*
X32052557Y33842029D01*
X32071553Y33831876D01*
X32088208Y33818208D01*
X32101876Y33801553D01*
X32112029Y33782557D01*
X32118284Y33761938D01*
X32121000Y33734360D01*
X32121000Y33275640D01*
X32118284Y33248062D01*
X32112029Y33227443D01*
X32101876Y33208447D01*
X32088208Y33191792D01*
X32071553Y33178124D01*
X32052557Y33167971D01*
X32031938Y33161716D01*
X32004360Y33159000D01*
X31495640Y33159000D01*
X31468062Y33161716D01*
X31447443Y33167971D01*
X31428447Y33178124D01*
X31411792Y33191792D01*
X31398124Y33208447D01*
X31387971Y33227443D01*
X31381716Y33248062D01*
X31379000Y33275640D01*
X31379000Y33734360D01*
X31381716Y33761938D01*
X31387971Y33782557D01*
X31398124Y33801553D01*
X31411792Y33818208D01*
X31428447Y33831876D01*
X31447443Y33842029D01*
X31468062Y33848284D01*
X31495640Y33851000D01*
X32004360Y33851000D01*
X32031938Y33848284D01*
G37*
G36*
X19213564Y35315490D02*
G01*
X19294552Y35299381D01*
X19447131Y35236181D01*
X19584449Y35144428D01*
X19701228Y35027649D01*
X19792981Y34890331D01*
X19856181Y34737752D01*
X19888400Y34575775D01*
X19888400Y34410625D01*
X19856181Y34248648D01*
X19792981Y34096069D01*
X19701228Y33958751D01*
X19584449Y33841972D01*
X19447131Y33750219D01*
X19294552Y33687019D01*
X19249210Y33678000D01*
X19132576Y33654800D01*
X18967424Y33654800D01*
X18850790Y33678000D01*
X18805448Y33687019D01*
X18652869Y33750219D01*
X18515551Y33841972D01*
X18398772Y33958751D01*
X18307019Y34096069D01*
X18243819Y34248648D01*
X18211600Y34410625D01*
X18211600Y34575775D01*
X18243819Y34737752D01*
X18307019Y34890331D01*
X18398772Y35027649D01*
X18515551Y35144428D01*
X18652869Y35236181D01*
X18805448Y35299381D01*
X18886436Y35315490D01*
X18967424Y35331600D01*
X19132576Y35331600D01*
X19213564Y35315490D01*
G37*
G36*
X16673564Y35315490D02*
G01*
X16754552Y35299381D01*
X16907131Y35236181D01*
X17044449Y35144428D01*
X17161228Y35027649D01*
X17252981Y34890331D01*
X17316181Y34737752D01*
X17348400Y34575775D01*
X17348400Y34410625D01*
X17316181Y34248648D01*
X17252981Y34096069D01*
X17161228Y33958751D01*
X17044449Y33841972D01*
X16907131Y33750219D01*
X16754552Y33687019D01*
X16709210Y33678000D01*
X16592576Y33654800D01*
X16427424Y33654800D01*
X16310790Y33678000D01*
X16265448Y33687019D01*
X16112869Y33750219D01*
X15975551Y33841972D01*
X15858772Y33958751D01*
X15767019Y34096069D01*
X15703819Y34248648D01*
X15671600Y34410625D01*
X15671600Y34575775D01*
X15703819Y34737752D01*
X15767019Y34890331D01*
X15858772Y35027649D01*
X15975551Y35144428D01*
X16112869Y35236181D01*
X16265448Y35299381D01*
X16346436Y35315490D01*
X16427424Y35331600D01*
X16592576Y35331600D01*
X16673564Y35315490D01*
G37*
G36*
X26833564Y35315490D02*
G01*
X26914552Y35299381D01*
X27067131Y35236181D01*
X27204449Y35144428D01*
X27321228Y35027649D01*
X27412981Y34890331D01*
X27476181Y34737752D01*
X27508400Y34575775D01*
X27508400Y34410625D01*
X27476181Y34248648D01*
X27412981Y34096069D01*
X27321228Y33958751D01*
X27204449Y33841972D01*
X27067131Y33750219D01*
X26914552Y33687019D01*
X26869210Y33678000D01*
X26752576Y33654800D01*
X26587424Y33654800D01*
X26470790Y33678000D01*
X26425448Y33687019D01*
X26272869Y33750219D01*
X26135551Y33841972D01*
X26018772Y33958751D01*
X25927019Y34096069D01*
X25863819Y34248648D01*
X25831600Y34410625D01*
X25831600Y34575775D01*
X25863819Y34737752D01*
X25927019Y34890331D01*
X26018772Y35027649D01*
X26135551Y35144428D01*
X26272869Y35236181D01*
X26425448Y35299381D01*
X26506436Y35315490D01*
X26587424Y35331600D01*
X26752576Y35331600D01*
X26833564Y35315490D01*
G37*
G36*
X24293564Y35315490D02*
G01*
X24374552Y35299381D01*
X24527131Y35236181D01*
X24664449Y35144428D01*
X24781228Y35027649D01*
X24872981Y34890331D01*
X24936181Y34737752D01*
X24968400Y34575775D01*
X24968400Y34410625D01*
X24936181Y34248648D01*
X24872981Y34096069D01*
X24781228Y33958751D01*
X24664449Y33841972D01*
X24527131Y33750219D01*
X24374552Y33687019D01*
X24329210Y33678000D01*
X24212576Y33654800D01*
X24047424Y33654800D01*
X23930790Y33678000D01*
X23885448Y33687019D01*
X23732869Y33750219D01*
X23595551Y33841972D01*
X23478772Y33958751D01*
X23387019Y34096069D01*
X23323819Y34248648D01*
X23291600Y34410625D01*
X23291600Y34575775D01*
X23323819Y34737752D01*
X23387019Y34890331D01*
X23478772Y35027649D01*
X23595551Y35144428D01*
X23732869Y35236181D01*
X23885448Y35299381D01*
X23966436Y35315490D01*
X24047424Y35331600D01*
X24212576Y35331600D01*
X24293564Y35315490D01*
G37*
G36*
X21753564Y35315490D02*
G01*
X21834552Y35299381D01*
X21987131Y35236181D01*
X22124449Y35144428D01*
X22241228Y35027649D01*
X22332981Y34890331D01*
X22396181Y34737752D01*
X22428400Y34575775D01*
X22428400Y34410625D01*
X22396181Y34248648D01*
X22332981Y34096069D01*
X22241228Y33958751D01*
X22124449Y33841972D01*
X21987131Y33750219D01*
X21834552Y33687019D01*
X21789210Y33678000D01*
X21672576Y33654800D01*
X21507424Y33654800D01*
X21390790Y33678000D01*
X21345448Y33687019D01*
X21192869Y33750219D01*
X21055551Y33841972D01*
X20938772Y33958751D01*
X20847019Y34096069D01*
X20783819Y34248648D01*
X20751600Y34410625D01*
X20751600Y34575775D01*
X20783819Y34737752D01*
X20847019Y34890331D01*
X20938772Y35027649D01*
X21055551Y35144428D01*
X21192869Y35236181D01*
X21345448Y35299381D01*
X21426436Y35315490D01*
X21507424Y35331600D01*
X21672576Y35331600D01*
X21753564Y35315490D01*
G37*
G36*
X33936938Y37958284D02*
G01*
X33957557Y37952029D01*
X33976553Y37941876D01*
X33993208Y37928208D01*
X34006876Y37911553D01*
X34017029Y37892557D01*
X34023284Y37871938D01*
X34026000Y37844360D01*
X34026000Y37385640D01*
X34023284Y37358062D01*
X34017029Y37337443D01*
X34006876Y37318447D01*
X33993208Y37301792D01*
X33976553Y37288124D01*
X33957557Y37277971D01*
X33936938Y37271716D01*
X33909360Y37269000D01*
X33400640Y37269000D01*
X33373062Y37271716D01*
X33352443Y37277971D01*
X33333447Y37288124D01*
X33316792Y37301792D01*
X33303124Y37318447D01*
X33292971Y37337443D01*
X33286716Y37358062D01*
X33284000Y37385640D01*
X33284000Y37844360D01*
X33286716Y37871938D01*
X33292971Y37892557D01*
X33303124Y37911553D01*
X33316792Y37928208D01*
X33333447Y37941876D01*
X33352443Y37952029D01*
X33373062Y37958284D01*
X33400640Y37961000D01*
X33909360Y37961000D01*
X33936938Y37958284D01*
G37*
G36*
X33936938Y38928284D02*
G01*
X33957557Y38922029D01*
X33976553Y38911876D01*
X33993208Y38898208D01*
X34006876Y38881553D01*
X34017029Y38862557D01*
X34023284Y38841938D01*
X34026000Y38814360D01*
X34026000Y38355640D01*
X34023284Y38328062D01*
X34017029Y38307443D01*
X34006876Y38288447D01*
X33993208Y38271792D01*
X33976553Y38258124D01*
X33957557Y38247971D01*
X33936938Y38241716D01*
X33909360Y38239000D01*
X33400640Y38239000D01*
X33373062Y38241716D01*
X33352443Y38247971D01*
X33333447Y38258124D01*
X33316792Y38271792D01*
X33303124Y38288447D01*
X33292971Y38307443D01*
X33286716Y38328062D01*
X33284000Y38355640D01*
X33284000Y38814360D01*
X33286716Y38841938D01*
X33292971Y38862557D01*
X33303124Y38881553D01*
X33316792Y38898208D01*
X33333447Y38911876D01*
X33352443Y38922029D01*
X33373062Y38928284D01*
X33400640Y38931000D01*
X33909360Y38931000D01*
X33936938Y38928284D01*
G37*
G36*
X24954591Y39891915D02*
G01*
X24988569Y39881607D01*
X25019890Y39864866D01*
X25047339Y39842339D01*
X25069866Y39814890D01*
X25086607Y39783569D01*
X25096915Y39749591D01*
X25101000Y39708110D01*
X25101000Y39031890D01*
X25096915Y38990409D01*
X25086607Y38956431D01*
X25069866Y38925110D01*
X25047339Y38897661D01*
X25019890Y38875134D01*
X24988569Y38858393D01*
X24954591Y38848085D01*
X24913110Y38844000D01*
X24311890Y38844000D01*
X24270409Y38848085D01*
X24236431Y38858393D01*
X24205110Y38875134D01*
X24177661Y38897661D01*
X24155134Y38925110D01*
X24138393Y38956431D01*
X24128085Y38990409D01*
X24124000Y39031890D01*
X24124000Y39708110D01*
X24128085Y39749591D01*
X24138393Y39783569D01*
X24155134Y39814890D01*
X24177661Y39842339D01*
X24205110Y39864866D01*
X24236431Y39881607D01*
X24270409Y39891915D01*
X24311890Y39896000D01*
X24913110Y39896000D01*
X24954591Y39891915D01*
G37*
G36*
X26529591Y39891915D02*
G01*
X26563569Y39881607D01*
X26594890Y39864866D01*
X26622339Y39842339D01*
X26644866Y39814890D01*
X26661607Y39783569D01*
X26671915Y39749591D01*
X26676000Y39708110D01*
X26676000Y39031890D01*
X26671915Y38990409D01*
X26661607Y38956431D01*
X26644866Y38925110D01*
X26622339Y38897661D01*
X26594890Y38875134D01*
X26563569Y38858393D01*
X26529591Y38848085D01*
X26488110Y38844000D01*
X25886890Y38844000D01*
X25845409Y38848085D01*
X25811431Y38858393D01*
X25780110Y38875134D01*
X25752661Y38897661D01*
X25730134Y38925110D01*
X25713393Y38956431D01*
X25703085Y38990409D01*
X25699000Y39031890D01*
X25699000Y39708110D01*
X25703085Y39749591D01*
X25713393Y39783569D01*
X25730134Y39814890D01*
X25752661Y39842339D01*
X25780110Y39864866D01*
X25811431Y39881607D01*
X25845409Y39891915D01*
X25886890Y39896000D01*
X26488110Y39896000D01*
X26529591Y39891915D01*
G37*
G36*
X26529591Y41796915D02*
G01*
X26563569Y41786607D01*
X26594890Y41769866D01*
X26622339Y41747339D01*
X26644866Y41719890D01*
X26661607Y41688569D01*
X26671915Y41654591D01*
X26676000Y41613110D01*
X26676000Y40936890D01*
X26671915Y40895409D01*
X26661607Y40861431D01*
X26644866Y40830110D01*
X26622339Y40802661D01*
X26594890Y40780134D01*
X26563569Y40763393D01*
X26529591Y40753085D01*
X26488110Y40749000D01*
X25886890Y40749000D01*
X25845409Y40753085D01*
X25811431Y40763393D01*
X25780110Y40780134D01*
X25752661Y40802661D01*
X25730134Y40830110D01*
X25713393Y40861431D01*
X25703085Y40895409D01*
X25699000Y40936890D01*
X25699000Y41613110D01*
X25703085Y41654591D01*
X25713393Y41688569D01*
X25730134Y41719890D01*
X25752661Y41747339D01*
X25780110Y41769866D01*
X25811431Y41786607D01*
X25845409Y41796915D01*
X25886890Y41801000D01*
X26488110Y41801000D01*
X26529591Y41796915D01*
G37*
G36*
X24954591Y41796915D02*
G01*
X24988569Y41786607D01*
X25019890Y41769866D01*
X25047339Y41747339D01*
X25069866Y41719890D01*
X25086607Y41688569D01*
X25096915Y41654591D01*
X25101000Y41613110D01*
X25101000Y40936890D01*
X25096915Y40895409D01*
X25086607Y40861431D01*
X25069866Y40830110D01*
X25047339Y40802661D01*
X25019890Y40780134D01*
X24988569Y40763393D01*
X24954591Y40753085D01*
X24913110Y40749000D01*
X24311890Y40749000D01*
X24270409Y40753085D01*
X24236431Y40763393D01*
X24205110Y40780134D01*
X24177661Y40802661D01*
X24155134Y40830110D01*
X24138393Y40861431D01*
X24128085Y40895409D01*
X24124000Y40936890D01*
X24124000Y41613110D01*
X24128085Y41654591D01*
X24138393Y41688569D01*
X24155134Y41719890D01*
X24177661Y41747339D01*
X24205110Y41769866D01*
X24236431Y41786607D01*
X24270409Y41796915D01*
X24311890Y41801000D01*
X24913110Y41801000D01*
X24954591Y41796915D01*
G37*
M02*
