M48
; DRILL file {KiCad (5.1.5)-3} date 4/20/2020 12:10:39 PM
; FORMAT={3:3/ absolute / metric / suppress trailing zeros}
; #@! TF.CreationDate,2020-04-20T12:10:39-07:00
; #@! TF.GenerationSoftware,Kicad,Pcbnew,(5.1.5)-3
; #@! TF.FileFunction,Plated,1,2,PTH
FMAT,2
METRIC,LZ
T1C0.400
T2C0.914
T3C1.219
T4C2.896
%
G90
G05
T1
X03048Y03048
X03048Y01016
X03048Y00508
X03556Y04064
X03556Y03556
X03556Y03048
X03556Y0254
X03556Y01524
X03556Y01016
X03556Y00508
X04064Y04064
X04064Y03556
X04064Y03048
X04064Y0254
X04064Y01524
X04064Y01016
X04064Y00508
X04572Y01524
X04572Y01016
X04572Y00508
X0508Y01524
X0508Y01016
X0508Y00508
X05588Y00508
X058293Y016993
X06096Y01016
X06096Y00508
X061976Y016993
T2
X01651Y034493
X01651Y031953
X01905Y034493
X01905Y031953
X02159Y034493
X02159Y031953
X02413Y034493
X02413Y031953
X02667Y034493
X02667Y031953
T3
X02544Y025995
X02544Y020995
X02794Y023495
X02794Y018495
X03044Y025995
X03044Y020995
T4
X054712Y008992
T0
M30
