G04 #@! TF.GenerationSoftware,KiCad,Pcbnew,(5.1.5)-3*
G04 #@! TF.CreationDate,2020-04-20T12:10:48-07:00*
G04 #@! TF.ProjectId,10096510 Battery Connection,31303039-3635-4313-9020-426174746572,rev?*
G04 #@! TF.SameCoordinates,PXb874050PY8789ff8*
G04 #@! TF.FileFunction,Soldermask,Bot*
G04 #@! TF.FilePolarity,Negative*
%FSLAX46Y46*%
G04 Gerber Fmt 4.6, Leading zero omitted, Abs format (unit mm)*
G04 Created by KiCad (PCBNEW (5.1.5)-3) date 2020-04-20 12:10:48*
%MOMM*%
%LPD*%
G04 APERTURE LIST*
%ADD10C,0.254000*%
%ADD11C,1.000000*%
%ADD12C,0.584200*%
%ADD13C,0.100000*%
G04 APERTURE END LIST*
D10*
X19940814Y-27849285D02*
X20122242Y-27909761D01*
X20182719Y-27970238D01*
X20243195Y-28091190D01*
X20243195Y-28272619D01*
X20182719Y-28393571D01*
X20122242Y-28454047D01*
X20001290Y-28514523D01*
X19517480Y-28514523D01*
X19517480Y-27244523D01*
X19940814Y-27244523D01*
X20061766Y-27305000D01*
X20122242Y-27365476D01*
X20182719Y-27486428D01*
X20182719Y-27607380D01*
X20122242Y-27728333D01*
X20061766Y-27788809D01*
X19940814Y-27849285D01*
X19517480Y-27849285D01*
X21029385Y-27244523D02*
X21271290Y-27244523D01*
X21392242Y-27305000D01*
X21513195Y-27425952D01*
X21573671Y-27667857D01*
X21573671Y-28091190D01*
X21513195Y-28333095D01*
X21392242Y-28454047D01*
X21271290Y-28514523D01*
X21029385Y-28514523D01*
X20908433Y-28454047D01*
X20787480Y-28333095D01*
X20727004Y-28091190D01*
X20727004Y-27667857D01*
X20787480Y-27425952D01*
X20908433Y-27305000D01*
X21029385Y-27244523D01*
X21936528Y-27244523D02*
X22662242Y-27244523D01*
X22299385Y-28514523D02*
X22299385Y-27244523D01*
X22904147Y-27244523D02*
X23629861Y-27244523D01*
X23267004Y-28514523D02*
X23267004Y-27244523D01*
X24295100Y-27244523D02*
X24537004Y-27244523D01*
X24657957Y-27305000D01*
X24778909Y-27425952D01*
X24839385Y-27667857D01*
X24839385Y-28091190D01*
X24778909Y-28333095D01*
X24657957Y-28454047D01*
X24537004Y-28514523D01*
X24295100Y-28514523D01*
X24174147Y-28454047D01*
X24053195Y-28333095D01*
X23992719Y-28091190D01*
X23992719Y-27667857D01*
X24053195Y-27425952D01*
X24174147Y-27305000D01*
X24295100Y-27244523D01*
X25383671Y-28514523D02*
X25383671Y-27244523D01*
X25807004Y-28151666D01*
X26230338Y-27244523D01*
X26230338Y-28514523D01*
X27742242Y-28454047D02*
X27923671Y-28514523D01*
X28226052Y-28514523D01*
X28347004Y-28454047D01*
X28407480Y-28393571D01*
X28467957Y-28272619D01*
X28467957Y-28151666D01*
X28407480Y-28030714D01*
X28347004Y-27970238D01*
X28226052Y-27909761D01*
X27984147Y-27849285D01*
X27863195Y-27788809D01*
X27802719Y-27728333D01*
X27742242Y-27607380D01*
X27742242Y-27486428D01*
X27802719Y-27365476D01*
X27863195Y-27305000D01*
X27984147Y-27244523D01*
X28286528Y-27244523D01*
X28467957Y-27305000D01*
X29254147Y-27244523D02*
X29496052Y-27244523D01*
X29617004Y-27305000D01*
X29737957Y-27425952D01*
X29798433Y-27667857D01*
X29798433Y-28091190D01*
X29737957Y-28333095D01*
X29617004Y-28454047D01*
X29496052Y-28514523D01*
X29254147Y-28514523D01*
X29133195Y-28454047D01*
X29012242Y-28333095D01*
X28951766Y-28091190D01*
X28951766Y-27667857D01*
X29012242Y-27425952D01*
X29133195Y-27305000D01*
X29254147Y-27244523D01*
X30947480Y-28514523D02*
X30342719Y-28514523D01*
X30342719Y-27244523D01*
X31370814Y-28514523D02*
X31370814Y-27244523D01*
X31673195Y-27244523D01*
X31854623Y-27305000D01*
X31975576Y-27425952D01*
X32036052Y-27546904D01*
X32096528Y-27788809D01*
X32096528Y-27970238D01*
X32036052Y-28212142D01*
X31975576Y-28333095D01*
X31854623Y-28454047D01*
X31673195Y-28514523D01*
X31370814Y-28514523D01*
X32640814Y-27849285D02*
X33064147Y-27849285D01*
X33245576Y-28514523D02*
X32640814Y-28514523D01*
X32640814Y-27244523D01*
X33245576Y-27244523D01*
X34515576Y-28514523D02*
X34092242Y-27909761D01*
X33789861Y-28514523D02*
X33789861Y-27244523D01*
X34273671Y-27244523D01*
X34394623Y-27305000D01*
X34455100Y-27365476D01*
X34515576Y-27486428D01*
X34515576Y-27667857D01*
X34455100Y-27788809D01*
X34394623Y-27849285D01*
X34273671Y-27909761D01*
X33789861Y-27909761D01*
X35059861Y-28514523D02*
X35059861Y-27244523D01*
X35483195Y-28151666D01*
X35906528Y-27244523D01*
X35906528Y-28514523D01*
X36450814Y-28151666D02*
X37055576Y-28151666D01*
X36329861Y-28514523D02*
X36753195Y-27244523D01*
X37176528Y-28514523D01*
X37539385Y-28454047D02*
X37720814Y-28514523D01*
X38023195Y-28514523D01*
X38144147Y-28454047D01*
X38204623Y-28393571D01*
X38265100Y-28272619D01*
X38265100Y-28151666D01*
X38204623Y-28030714D01*
X38144147Y-27970238D01*
X38023195Y-27909761D01*
X37781290Y-27849285D01*
X37660338Y-27788809D01*
X37599861Y-27728333D01*
X37539385Y-27607380D01*
X37539385Y-27486428D01*
X37599861Y-27365476D01*
X37660338Y-27305000D01*
X37781290Y-27244523D01*
X38083671Y-27244523D01*
X38265100Y-27305000D01*
X38809385Y-28514523D02*
X38809385Y-27244523D01*
X39535100Y-28514523D02*
X38990814Y-27788809D01*
X39535100Y-27244523D02*
X38809385Y-27970238D01*
X41409861Y-28998333D02*
X41349385Y-28937857D01*
X41228433Y-28756428D01*
X41167957Y-28635476D01*
X41107480Y-28454047D01*
X41047004Y-28151666D01*
X41047004Y-27909761D01*
X41107480Y-27607380D01*
X41167957Y-27425952D01*
X41228433Y-27305000D01*
X41349385Y-27123571D01*
X41409861Y-27063095D01*
X42317004Y-27849285D02*
X42498433Y-27909761D01*
X42558909Y-27970238D01*
X42619385Y-28091190D01*
X42619385Y-28272619D01*
X42558909Y-28393571D01*
X42498433Y-28454047D01*
X42377480Y-28514523D01*
X41893671Y-28514523D01*
X41893671Y-27244523D01*
X42317004Y-27244523D01*
X42437957Y-27305000D01*
X42498433Y-27365476D01*
X42558909Y-27486428D01*
X42558909Y-27607380D01*
X42498433Y-27728333D01*
X42437957Y-27788809D01*
X42317004Y-27849285D01*
X41893671Y-27849285D01*
X42861290Y-28635476D02*
X43828909Y-28635476D01*
X44131290Y-28514523D02*
X44131290Y-27244523D01*
X44554623Y-28151666D01*
X44977957Y-27244523D01*
X44977957Y-28514523D01*
X45522242Y-28151666D02*
X46127004Y-28151666D01*
X45401290Y-28514523D02*
X45824623Y-27244523D01*
X46247957Y-28514523D01*
X46610814Y-28454047D02*
X46792242Y-28514523D01*
X47094623Y-28514523D01*
X47215576Y-28454047D01*
X47276052Y-28393571D01*
X47336528Y-28272619D01*
X47336528Y-28151666D01*
X47276052Y-28030714D01*
X47215576Y-27970238D01*
X47094623Y-27909761D01*
X46852719Y-27849285D01*
X46731766Y-27788809D01*
X46671290Y-27728333D01*
X46610814Y-27607380D01*
X46610814Y-27486428D01*
X46671290Y-27365476D01*
X46731766Y-27305000D01*
X46852719Y-27244523D01*
X47155100Y-27244523D01*
X47336528Y-27305000D01*
X47880814Y-28514523D02*
X47880814Y-27244523D01*
X48606528Y-28514523D02*
X48062242Y-27788809D01*
X48606528Y-27244523D02*
X47880814Y-27970238D01*
X49150814Y-28393571D02*
X49211290Y-28454047D01*
X49150814Y-28514523D01*
X49090338Y-28454047D01*
X49150814Y-28393571D01*
X49150814Y-28514523D01*
X50420814Y-27305000D02*
X50299861Y-27244523D01*
X50118433Y-27244523D01*
X49937004Y-27305000D01*
X49816052Y-27425952D01*
X49755576Y-27546904D01*
X49695100Y-27788809D01*
X49695100Y-27970238D01*
X49755576Y-28212142D01*
X49816052Y-28333095D01*
X49937004Y-28454047D01*
X50118433Y-28514523D01*
X50239385Y-28514523D01*
X50420814Y-28454047D01*
X50481290Y-28393571D01*
X50481290Y-27970238D01*
X50239385Y-27970238D01*
X51448909Y-27849285D02*
X51630338Y-27909761D01*
X51690814Y-27970238D01*
X51751290Y-28091190D01*
X51751290Y-28272619D01*
X51690814Y-28393571D01*
X51630338Y-28454047D01*
X51509385Y-28514523D01*
X51025576Y-28514523D01*
X51025576Y-27244523D01*
X51448909Y-27244523D01*
X51569861Y-27305000D01*
X51630338Y-27365476D01*
X51690814Y-27486428D01*
X51690814Y-27607380D01*
X51630338Y-27728333D01*
X51569861Y-27788809D01*
X51448909Y-27849285D01*
X51025576Y-27849285D01*
X53021290Y-28514523D02*
X52597957Y-27909761D01*
X52295576Y-28514523D02*
X52295576Y-27244523D01*
X52779385Y-27244523D01*
X52900338Y-27305000D01*
X52960814Y-27365476D01*
X53021290Y-27486428D01*
X53021290Y-27667857D01*
X52960814Y-27788809D01*
X52900338Y-27849285D01*
X52779385Y-27909761D01*
X52295576Y-27909761D01*
X53444623Y-28998333D02*
X53505100Y-28937857D01*
X53626052Y-28756428D01*
X53686528Y-28635476D01*
X53747004Y-28454047D01*
X53807480Y-28151666D01*
X53807480Y-27909761D01*
X53747004Y-27607380D01*
X53686528Y-27425952D01*
X53626052Y-27305000D01*
X53505100Y-27123571D01*
X53444623Y-27063095D01*
D11*
X58608216Y16992600D02*
G75*
G03X58608216Y16992600I-315216J0D01*
G01*
X62291216Y16992600D02*
G75*
G03X62291216Y16992600I-315216J0D01*
G01*
X35875216Y25400000D02*
G75*
G03X35875216Y25400000I-315216J0D01*
G01*
X40955216Y25400000D02*
G75*
G03X40955216Y25400000I-315216J0D01*
G01*
X40955216Y30480000D02*
G75*
G03X40955216Y30480000I-315216J0D01*
G01*
X30795216Y30480000D02*
G75*
G03X30795216Y30480000I-315216J0D01*
G01*
X35875216Y30480000D02*
G75*
G03X35875216Y30480000I-315216J0D01*
G01*
X35875216Y35560000D02*
G75*
G03X35875216Y35560000I-315216J0D01*
G01*
X40955216Y35560000D02*
G75*
G03X40955216Y35560000I-315216J0D01*
G01*
X40955216Y40640000D02*
G75*
G03X40955216Y40640000I-315216J0D01*
G01*
X35875216Y40640000D02*
G75*
G03X35875216Y40640000I-315216J0D01*
G01*
X61275216Y10160000D02*
G75*
G03X61275216Y10160000I-315216J0D01*
G01*
X61275216Y5080000D02*
G75*
G03X61275216Y5080000I-315216J0D01*
G01*
X56195216Y5080000D02*
G75*
G03X56195216Y5080000I-315216J0D01*
G01*
X40955216Y15240000D02*
G75*
G03X40955216Y15240000I-315216J0D01*
G01*
X46035216Y15240000D02*
G75*
G03X46035216Y15240000I-315216J0D01*
G01*
X30795216Y10160000D02*
G75*
G03X30795216Y10160000I-315216J0D01*
G01*
X46035216Y10160000D02*
G75*
G03X46035216Y10160000I-315216J0D01*
G01*
X30795216Y5080000D02*
G75*
G03X30795216Y5080000I-315216J0D01*
G01*
X51115216Y15240000D02*
G75*
G03X51115216Y15240000I-315216J0D01*
G01*
X40955216Y10160000D02*
G75*
G03X40955216Y10160000I-315216J0D01*
G01*
X35875216Y10160000D02*
G75*
G03X35875216Y10160000I-315216J0D01*
G01*
X51115216Y10160000D02*
G75*
G03X51115216Y10160000I-315216J0D01*
G01*
X35875216Y5080000D02*
G75*
G03X35875216Y5080000I-315216J0D01*
G01*
X35875216Y15240000D02*
G75*
G03X35875216Y15240000I-315216J0D01*
G01*
X40955216Y5080000D02*
G75*
G03X40955216Y5080000I-315216J0D01*
G01*
X51115216Y5080000D02*
G75*
G03X51115216Y5080000I-315216J0D01*
G01*
X46035216Y5080000D02*
G75*
G03X46035216Y5080000I-315216J0D01*
G01*
D12*
X43002200Y29997400D02*
X43002200Y44983400D01*
X43002200Y29997400D02*
X68021200Y29997400D01*
X68021200Y0D02*
X68021200Y29997400D01*
X0Y0D02*
X68021200Y0D01*
X0Y0D02*
X0Y44983400D01*
X0Y44983400D02*
X43002200Y44983400D01*
D13*
G36*
X55352528Y11104460D02*
G01*
X55752410Y10938823D01*
X55752412Y10938822D01*
X56112297Y10698355D01*
X56418355Y10392297D01*
X56658823Y10032410D01*
X56824460Y9632528D01*
X56908900Y9208017D01*
X56908900Y8775183D01*
X56824460Y8350672D01*
X56658823Y7950790D01*
X56658822Y7950788D01*
X56418355Y7590903D01*
X56112297Y7284845D01*
X55752412Y7044378D01*
X55752411Y7044377D01*
X55752410Y7044377D01*
X55352528Y6878740D01*
X54928017Y6794300D01*
X54495183Y6794300D01*
X54070672Y6878740D01*
X53670790Y7044377D01*
X53670789Y7044377D01*
X53670788Y7044378D01*
X53310903Y7284845D01*
X53004845Y7590903D01*
X52764378Y7950788D01*
X52764377Y7950790D01*
X52598740Y8350672D01*
X52514300Y8775183D01*
X52514300Y9208017D01*
X52598740Y9632528D01*
X52764377Y10032410D01*
X53004845Y10392297D01*
X53310903Y10698355D01*
X53670788Y10938822D01*
X53670790Y10938823D01*
X54070672Y11104460D01*
X54495183Y11188900D01*
X54928017Y11188900D01*
X55352528Y11104460D01*
G37*
G36*
X28280867Y19618692D02*
G01*
X28368959Y19582203D01*
X28493540Y19530600D01*
X28684939Y19402711D01*
X28847711Y19239939D01*
X28975600Y19048540D01*
X29027203Y18923959D01*
X29063692Y18835867D01*
X29108600Y18610098D01*
X29108600Y18379902D01*
X29063692Y18154133D01*
X29027203Y18066041D01*
X28975600Y17941460D01*
X28847711Y17750061D01*
X28684939Y17587289D01*
X28493540Y17459400D01*
X28368959Y17407797D01*
X28280867Y17371308D01*
X28055098Y17326400D01*
X27824902Y17326400D01*
X27599133Y17371308D01*
X27511041Y17407797D01*
X27386460Y17459400D01*
X27195061Y17587289D01*
X27032289Y17750061D01*
X26904400Y17941460D01*
X26852797Y18066041D01*
X26816308Y18154133D01*
X26771400Y18379902D01*
X26771400Y18610098D01*
X26816308Y18835867D01*
X26852797Y18923959D01*
X26904400Y19048540D01*
X27032289Y19239939D01*
X27195061Y19402711D01*
X27386460Y19530600D01*
X27511041Y19582203D01*
X27599133Y19618692D01*
X27824902Y19663600D01*
X28055098Y19663600D01*
X28280867Y19618692D01*
G37*
G36*
X30780867Y22118692D02*
G01*
X30868959Y22082203D01*
X30993540Y22030600D01*
X31184939Y21902711D01*
X31347711Y21739939D01*
X31475600Y21548540D01*
X31527203Y21423959D01*
X31563692Y21335867D01*
X31608600Y21110098D01*
X31608600Y20879902D01*
X31563692Y20654133D01*
X31527203Y20566041D01*
X31475600Y20441460D01*
X31347711Y20250061D01*
X31184939Y20087289D01*
X30993540Y19959400D01*
X30868959Y19907797D01*
X30780867Y19871308D01*
X30555098Y19826400D01*
X30324902Y19826400D01*
X30099133Y19871308D01*
X30011041Y19907797D01*
X29886460Y19959400D01*
X29695061Y20087289D01*
X29532289Y20250061D01*
X29404400Y20441460D01*
X29352797Y20566041D01*
X29316308Y20654133D01*
X29271400Y20879902D01*
X29271400Y21110098D01*
X29316308Y21335867D01*
X29352797Y21423959D01*
X29404400Y21548540D01*
X29532289Y21739939D01*
X29695061Y21902711D01*
X29886460Y22030600D01*
X30011041Y22082203D01*
X30099133Y22118692D01*
X30324902Y22163600D01*
X30555098Y22163600D01*
X30780867Y22118692D01*
G37*
G36*
X25780867Y22118692D02*
G01*
X25868959Y22082203D01*
X25993540Y22030600D01*
X26184939Y21902711D01*
X26347711Y21739939D01*
X26475600Y21548540D01*
X26527203Y21423959D01*
X26563692Y21335867D01*
X26608600Y21110098D01*
X26608600Y20879902D01*
X26563692Y20654133D01*
X26527203Y20566041D01*
X26475600Y20441460D01*
X26347711Y20250061D01*
X26184939Y20087289D01*
X25993540Y19959400D01*
X25868959Y19907797D01*
X25780867Y19871308D01*
X25555098Y19826400D01*
X25324902Y19826400D01*
X25099133Y19871308D01*
X25011041Y19907797D01*
X24886460Y19959400D01*
X24695061Y20087289D01*
X24532289Y20250061D01*
X24404400Y20441460D01*
X24352797Y20566041D01*
X24316308Y20654133D01*
X24271400Y20879902D01*
X24271400Y21110098D01*
X24316308Y21335867D01*
X24352797Y21423959D01*
X24404400Y21548540D01*
X24532289Y21739939D01*
X24695061Y21902711D01*
X24886460Y22030600D01*
X25011041Y22082203D01*
X25099133Y22118692D01*
X25324902Y22163600D01*
X25555098Y22163600D01*
X25780867Y22118692D01*
G37*
G36*
X28280867Y24618692D02*
G01*
X28368959Y24582203D01*
X28493540Y24530600D01*
X28684939Y24402711D01*
X28847711Y24239939D01*
X28975600Y24048540D01*
X29027203Y23923959D01*
X29063692Y23835867D01*
X29108600Y23610098D01*
X29108600Y23379902D01*
X29063692Y23154133D01*
X29027203Y23066041D01*
X28975600Y22941460D01*
X28847711Y22750061D01*
X28684939Y22587289D01*
X28493540Y22459400D01*
X28368959Y22407797D01*
X28280867Y22371308D01*
X28055098Y22326400D01*
X27824902Y22326400D01*
X27599133Y22371308D01*
X27511041Y22407797D01*
X27386460Y22459400D01*
X27195061Y22587289D01*
X27032289Y22750061D01*
X26904400Y22941460D01*
X26852797Y23066041D01*
X26816308Y23154133D01*
X26771400Y23379902D01*
X26771400Y23610098D01*
X26816308Y23835867D01*
X26852797Y23923959D01*
X26904400Y24048540D01*
X27032289Y24239939D01*
X27195061Y24402711D01*
X27386460Y24530600D01*
X27511041Y24582203D01*
X27599133Y24618692D01*
X27824902Y24663600D01*
X28055098Y24663600D01*
X28280867Y24618692D01*
G37*
G36*
X30780867Y27118692D02*
G01*
X30868959Y27082203D01*
X30993540Y27030600D01*
X31184939Y26902711D01*
X31347711Y26739939D01*
X31475600Y26548540D01*
X31527203Y26423959D01*
X31563692Y26335867D01*
X31608600Y26110098D01*
X31608600Y25879902D01*
X31563692Y25654133D01*
X31527203Y25566041D01*
X31475600Y25441460D01*
X31347711Y25250061D01*
X31184939Y25087289D01*
X30993540Y24959400D01*
X30868959Y24907797D01*
X30780867Y24871308D01*
X30555098Y24826400D01*
X30324902Y24826400D01*
X30099133Y24871308D01*
X30011041Y24907797D01*
X29886460Y24959400D01*
X29695061Y25087289D01*
X29532289Y25250061D01*
X29404400Y25441460D01*
X29352797Y25566041D01*
X29316308Y25654133D01*
X29271400Y25879902D01*
X29271400Y26110098D01*
X29316308Y26335867D01*
X29352797Y26423959D01*
X29404400Y26548540D01*
X29532289Y26739939D01*
X29695061Y26902711D01*
X29886460Y27030600D01*
X30011041Y27082203D01*
X30099133Y27118692D01*
X30324902Y27163600D01*
X30555098Y27163600D01*
X30780867Y27118692D01*
G37*
G36*
X25780867Y27118692D02*
G01*
X25868959Y27082203D01*
X25993540Y27030600D01*
X26184939Y26902711D01*
X26347711Y26739939D01*
X26475600Y26548540D01*
X26527203Y26423959D01*
X26563692Y26335867D01*
X26608600Y26110098D01*
X26608600Y25879902D01*
X26563692Y25654133D01*
X26527203Y25566041D01*
X26475600Y25441460D01*
X26347711Y25250061D01*
X26184939Y25087289D01*
X25993540Y24959400D01*
X25868959Y24907797D01*
X25780867Y24871308D01*
X25555098Y24826400D01*
X25324902Y24826400D01*
X25099133Y24871308D01*
X25011041Y24907797D01*
X24886460Y24959400D01*
X24695061Y25087289D01*
X24532289Y25250061D01*
X24404400Y25441460D01*
X24352797Y25566041D01*
X24316308Y25654133D01*
X24271400Y25879902D01*
X24271400Y26110098D01*
X24316308Y26335867D01*
X24352797Y26423959D01*
X24404400Y26548540D01*
X24532289Y26739939D01*
X24695061Y26902711D01*
X24886460Y27030600D01*
X25011041Y27082203D01*
X25099133Y27118692D01*
X25324902Y27163600D01*
X25555098Y27163600D01*
X25780867Y27118692D01*
G37*
G36*
X27508400Y31114800D02*
G01*
X25831600Y31114800D01*
X25831600Y32791600D01*
X27508400Y32791600D01*
X27508400Y31114800D01*
G37*
G36*
X16673564Y32775490D02*
G01*
X16754552Y32759381D01*
X16907131Y32696181D01*
X17044449Y32604428D01*
X17161228Y32487649D01*
X17252981Y32350331D01*
X17316181Y32197752D01*
X17348400Y32035775D01*
X17348400Y31870625D01*
X17316181Y31708648D01*
X17252981Y31556069D01*
X17161228Y31418751D01*
X17044449Y31301972D01*
X16907131Y31210219D01*
X16754552Y31147019D01*
X16673563Y31130909D01*
X16592576Y31114800D01*
X16427424Y31114800D01*
X16346437Y31130909D01*
X16265448Y31147019D01*
X16112869Y31210219D01*
X15975551Y31301972D01*
X15858772Y31418751D01*
X15767019Y31556069D01*
X15703819Y31708648D01*
X15671600Y31870625D01*
X15671600Y32035775D01*
X15703819Y32197752D01*
X15767019Y32350331D01*
X15858772Y32487649D01*
X15975551Y32604428D01*
X16112869Y32696181D01*
X16265448Y32759381D01*
X16346436Y32775490D01*
X16427424Y32791600D01*
X16592576Y32791600D01*
X16673564Y32775490D01*
G37*
G36*
X19213564Y32775490D02*
G01*
X19294552Y32759381D01*
X19447131Y32696181D01*
X19584449Y32604428D01*
X19701228Y32487649D01*
X19792981Y32350331D01*
X19856181Y32197752D01*
X19888400Y32035775D01*
X19888400Y31870625D01*
X19856181Y31708648D01*
X19792981Y31556069D01*
X19701228Y31418751D01*
X19584449Y31301972D01*
X19447131Y31210219D01*
X19294552Y31147019D01*
X19213563Y31130909D01*
X19132576Y31114800D01*
X18967424Y31114800D01*
X18886437Y31130909D01*
X18805448Y31147019D01*
X18652869Y31210219D01*
X18515551Y31301972D01*
X18398772Y31418751D01*
X18307019Y31556069D01*
X18243819Y31708648D01*
X18211600Y31870625D01*
X18211600Y32035775D01*
X18243819Y32197752D01*
X18307019Y32350331D01*
X18398772Y32487649D01*
X18515551Y32604428D01*
X18652869Y32696181D01*
X18805448Y32759381D01*
X18886436Y32775490D01*
X18967424Y32791600D01*
X19132576Y32791600D01*
X19213564Y32775490D01*
G37*
G36*
X24293564Y32775490D02*
G01*
X24374552Y32759381D01*
X24527131Y32696181D01*
X24664449Y32604428D01*
X24781228Y32487649D01*
X24872981Y32350331D01*
X24936181Y32197752D01*
X24968400Y32035775D01*
X24968400Y31870625D01*
X24936181Y31708648D01*
X24872981Y31556069D01*
X24781228Y31418751D01*
X24664449Y31301972D01*
X24527131Y31210219D01*
X24374552Y31147019D01*
X24293563Y31130909D01*
X24212576Y31114800D01*
X24047424Y31114800D01*
X23966437Y31130909D01*
X23885448Y31147019D01*
X23732869Y31210219D01*
X23595551Y31301972D01*
X23478772Y31418751D01*
X23387019Y31556069D01*
X23323819Y31708648D01*
X23291600Y31870625D01*
X23291600Y32035775D01*
X23323819Y32197752D01*
X23387019Y32350331D01*
X23478772Y32487649D01*
X23595551Y32604428D01*
X23732869Y32696181D01*
X23885448Y32759381D01*
X23966436Y32775490D01*
X24047424Y32791600D01*
X24212576Y32791600D01*
X24293564Y32775490D01*
G37*
G36*
X21753564Y32775490D02*
G01*
X21834552Y32759381D01*
X21987131Y32696181D01*
X22124449Y32604428D01*
X22241228Y32487649D01*
X22332981Y32350331D01*
X22396181Y32197752D01*
X22428400Y32035775D01*
X22428400Y31870625D01*
X22396181Y31708648D01*
X22332981Y31556069D01*
X22241228Y31418751D01*
X22124449Y31301972D01*
X21987131Y31210219D01*
X21834552Y31147019D01*
X21753563Y31130909D01*
X21672576Y31114800D01*
X21507424Y31114800D01*
X21426437Y31130909D01*
X21345448Y31147019D01*
X21192869Y31210219D01*
X21055551Y31301972D01*
X20938772Y31418751D01*
X20847019Y31556069D01*
X20783819Y31708648D01*
X20751600Y31870625D01*
X20751600Y32035775D01*
X20783819Y32197752D01*
X20847019Y32350331D01*
X20938772Y32487649D01*
X21055551Y32604428D01*
X21192869Y32696181D01*
X21345448Y32759381D01*
X21426436Y32775490D01*
X21507424Y32791600D01*
X21672576Y32791600D01*
X21753564Y32775490D01*
G37*
G36*
X21753564Y35315490D02*
G01*
X21834552Y35299381D01*
X21987131Y35236181D01*
X22124449Y35144428D01*
X22241228Y35027649D01*
X22332981Y34890331D01*
X22396181Y34737752D01*
X22428400Y34575775D01*
X22428400Y34410625D01*
X22396181Y34248648D01*
X22332981Y34096069D01*
X22241228Y33958751D01*
X22124449Y33841972D01*
X21987131Y33750219D01*
X21834552Y33687019D01*
X21753564Y33670910D01*
X21672576Y33654800D01*
X21507424Y33654800D01*
X21426436Y33670910D01*
X21345448Y33687019D01*
X21192869Y33750219D01*
X21055551Y33841972D01*
X20938772Y33958751D01*
X20847019Y34096069D01*
X20783819Y34248648D01*
X20751600Y34410625D01*
X20751600Y34575775D01*
X20783819Y34737752D01*
X20847019Y34890331D01*
X20938772Y35027649D01*
X21055551Y35144428D01*
X21192869Y35236181D01*
X21345448Y35299381D01*
X21426436Y35315490D01*
X21507424Y35331600D01*
X21672576Y35331600D01*
X21753564Y35315490D01*
G37*
G36*
X24293564Y35315490D02*
G01*
X24374552Y35299381D01*
X24527131Y35236181D01*
X24664449Y35144428D01*
X24781228Y35027649D01*
X24872981Y34890331D01*
X24936181Y34737752D01*
X24968400Y34575775D01*
X24968400Y34410625D01*
X24936181Y34248648D01*
X24872981Y34096069D01*
X24781228Y33958751D01*
X24664449Y33841972D01*
X24527131Y33750219D01*
X24374552Y33687019D01*
X24293564Y33670910D01*
X24212576Y33654800D01*
X24047424Y33654800D01*
X23966436Y33670910D01*
X23885448Y33687019D01*
X23732869Y33750219D01*
X23595551Y33841972D01*
X23478772Y33958751D01*
X23387019Y34096069D01*
X23323819Y34248648D01*
X23291600Y34410625D01*
X23291600Y34575775D01*
X23323819Y34737752D01*
X23387019Y34890331D01*
X23478772Y35027649D01*
X23595551Y35144428D01*
X23732869Y35236181D01*
X23885448Y35299381D01*
X23966436Y35315490D01*
X24047424Y35331600D01*
X24212576Y35331600D01*
X24293564Y35315490D01*
G37*
G36*
X26833564Y35315490D02*
G01*
X26914552Y35299381D01*
X27067131Y35236181D01*
X27204449Y35144428D01*
X27321228Y35027649D01*
X27412981Y34890331D01*
X27476181Y34737752D01*
X27508400Y34575775D01*
X27508400Y34410625D01*
X27476181Y34248648D01*
X27412981Y34096069D01*
X27321228Y33958751D01*
X27204449Y33841972D01*
X27067131Y33750219D01*
X26914552Y33687019D01*
X26833564Y33670910D01*
X26752576Y33654800D01*
X26587424Y33654800D01*
X26506436Y33670910D01*
X26425448Y33687019D01*
X26272869Y33750219D01*
X26135551Y33841972D01*
X26018772Y33958751D01*
X25927019Y34096069D01*
X25863819Y34248648D01*
X25831600Y34410625D01*
X25831600Y34575775D01*
X25863819Y34737752D01*
X25927019Y34890331D01*
X26018772Y35027649D01*
X26135551Y35144428D01*
X26272869Y35236181D01*
X26425448Y35299381D01*
X26506436Y35315490D01*
X26587424Y35331600D01*
X26752576Y35331600D01*
X26833564Y35315490D01*
G37*
G36*
X19213564Y35315490D02*
G01*
X19294552Y35299381D01*
X19447131Y35236181D01*
X19584449Y35144428D01*
X19701228Y35027649D01*
X19792981Y34890331D01*
X19856181Y34737752D01*
X19888400Y34575775D01*
X19888400Y34410625D01*
X19856181Y34248648D01*
X19792981Y34096069D01*
X19701228Y33958751D01*
X19584449Y33841972D01*
X19447131Y33750219D01*
X19294552Y33687019D01*
X19213564Y33670910D01*
X19132576Y33654800D01*
X18967424Y33654800D01*
X18886436Y33670910D01*
X18805448Y33687019D01*
X18652869Y33750219D01*
X18515551Y33841972D01*
X18398772Y33958751D01*
X18307019Y34096069D01*
X18243819Y34248648D01*
X18211600Y34410625D01*
X18211600Y34575775D01*
X18243819Y34737752D01*
X18307019Y34890331D01*
X18398772Y35027649D01*
X18515551Y35144428D01*
X18652869Y35236181D01*
X18805448Y35299381D01*
X18886436Y35315490D01*
X18967424Y35331600D01*
X19132576Y35331600D01*
X19213564Y35315490D01*
G37*
G36*
X16673564Y35315490D02*
G01*
X16754552Y35299381D01*
X16907131Y35236181D01*
X17044449Y35144428D01*
X17161228Y35027649D01*
X17252981Y34890331D01*
X17316181Y34737752D01*
X17348400Y34575775D01*
X17348400Y34410625D01*
X17316181Y34248648D01*
X17252981Y34096069D01*
X17161228Y33958751D01*
X17044449Y33841972D01*
X16907131Y33750219D01*
X16754552Y33687019D01*
X16673564Y33670910D01*
X16592576Y33654800D01*
X16427424Y33654800D01*
X16346436Y33670910D01*
X16265448Y33687019D01*
X16112869Y33750219D01*
X15975551Y33841972D01*
X15858772Y33958751D01*
X15767019Y34096069D01*
X15703819Y34248648D01*
X15671600Y34410625D01*
X15671600Y34575775D01*
X15703819Y34737752D01*
X15767019Y34890331D01*
X15858772Y35027649D01*
X15975551Y35144428D01*
X16112869Y35236181D01*
X16265448Y35299381D01*
X16346436Y35315490D01*
X16427424Y35331600D01*
X16592576Y35331600D01*
X16673564Y35315490D01*
G37*
M02*
