G04 #@! TF.GenerationSoftware,KiCad,Pcbnew,(5.1.5)-3*
G04 #@! TF.CreationDate,2020-04-20T12:10:47-07:00*
G04 #@! TF.ProjectId,10096510 Battery Connection,31303039-3635-4313-9020-426174746572,rev?*
G04 #@! TF.SameCoordinates,PXb874050PY8789ff8*
G04 #@! TF.FileFunction,Paste,Bot*
G04 #@! TF.FilePolarity,Positive*
%FSLAX46Y46*%
G04 Gerber Fmt 4.6, Leading zero omitted, Abs format (unit mm)*
G04 Created by KiCad (PCBNEW (5.1.5)-3) date 2020-04-20 12:10:47*
%MOMM*%
%LPD*%
G04 APERTURE LIST*
%ADD10C,0.254000*%
G04 APERTURE END LIST*
D10*
X19940814Y-30389285D02*
X20122242Y-30449761D01*
X20182719Y-30510238D01*
X20243195Y-30631190D01*
X20243195Y-30812619D01*
X20182719Y-30933571D01*
X20122242Y-30994047D01*
X20001290Y-31054523D01*
X19517480Y-31054523D01*
X19517480Y-29784523D01*
X19940814Y-29784523D01*
X20061766Y-29845000D01*
X20122242Y-29905476D01*
X20182719Y-30026428D01*
X20182719Y-30147380D01*
X20122242Y-30268333D01*
X20061766Y-30328809D01*
X19940814Y-30389285D01*
X19517480Y-30389285D01*
X21029385Y-29784523D02*
X21271290Y-29784523D01*
X21392242Y-29845000D01*
X21513195Y-29965952D01*
X21573671Y-30207857D01*
X21573671Y-30631190D01*
X21513195Y-30873095D01*
X21392242Y-30994047D01*
X21271290Y-31054523D01*
X21029385Y-31054523D01*
X20908433Y-30994047D01*
X20787480Y-30873095D01*
X20727004Y-30631190D01*
X20727004Y-30207857D01*
X20787480Y-29965952D01*
X20908433Y-29845000D01*
X21029385Y-29784523D01*
X21936528Y-29784523D02*
X22662242Y-29784523D01*
X22299385Y-31054523D02*
X22299385Y-29784523D01*
X22904147Y-29784523D02*
X23629861Y-29784523D01*
X23267004Y-31054523D02*
X23267004Y-29784523D01*
X24295100Y-29784523D02*
X24537004Y-29784523D01*
X24657957Y-29845000D01*
X24778909Y-29965952D01*
X24839385Y-30207857D01*
X24839385Y-30631190D01*
X24778909Y-30873095D01*
X24657957Y-30994047D01*
X24537004Y-31054523D01*
X24295100Y-31054523D01*
X24174147Y-30994047D01*
X24053195Y-30873095D01*
X23992719Y-30631190D01*
X23992719Y-30207857D01*
X24053195Y-29965952D01*
X24174147Y-29845000D01*
X24295100Y-29784523D01*
X25383671Y-31054523D02*
X25383671Y-29784523D01*
X25807004Y-30691666D01*
X26230338Y-29784523D01*
X26230338Y-31054523D01*
X27802719Y-31054523D02*
X27802719Y-29784523D01*
X28286528Y-29784523D01*
X28407480Y-29845000D01*
X28467957Y-29905476D01*
X28528433Y-30026428D01*
X28528433Y-30207857D01*
X28467957Y-30328809D01*
X28407480Y-30389285D01*
X28286528Y-30449761D01*
X27802719Y-30449761D01*
X29012242Y-30691666D02*
X29617004Y-30691666D01*
X28891290Y-31054523D02*
X29314623Y-29784523D01*
X29737957Y-31054523D01*
X30100814Y-30994047D02*
X30282242Y-31054523D01*
X30584623Y-31054523D01*
X30705576Y-30994047D01*
X30766052Y-30933571D01*
X30826528Y-30812619D01*
X30826528Y-30691666D01*
X30766052Y-30570714D01*
X30705576Y-30510238D01*
X30584623Y-30449761D01*
X30342719Y-30389285D01*
X30221766Y-30328809D01*
X30161290Y-30268333D01*
X30100814Y-30147380D01*
X30100814Y-30026428D01*
X30161290Y-29905476D01*
X30221766Y-29845000D01*
X30342719Y-29784523D01*
X30645100Y-29784523D01*
X30826528Y-29845000D01*
X31189385Y-29784523D02*
X31915100Y-29784523D01*
X31552242Y-31054523D02*
X31552242Y-29784523D01*
X32338433Y-30389285D02*
X32761766Y-30389285D01*
X32943195Y-31054523D02*
X32338433Y-31054523D01*
X32338433Y-29784523D01*
X32943195Y-29784523D01*
X33487480Y-31054523D02*
X33487480Y-29784523D01*
X33910814Y-30691666D01*
X34334147Y-29784523D01*
X34334147Y-31054523D01*
X34878433Y-30691666D02*
X35483195Y-30691666D01*
X34757480Y-31054523D02*
X35180814Y-29784523D01*
X35604147Y-31054523D01*
X35967004Y-30994047D02*
X36148433Y-31054523D01*
X36450814Y-31054523D01*
X36571766Y-30994047D01*
X36632242Y-30933571D01*
X36692719Y-30812619D01*
X36692719Y-30691666D01*
X36632242Y-30570714D01*
X36571766Y-30510238D01*
X36450814Y-30449761D01*
X36208909Y-30389285D01*
X36087957Y-30328809D01*
X36027480Y-30268333D01*
X35967004Y-30147380D01*
X35967004Y-30026428D01*
X36027480Y-29905476D01*
X36087957Y-29845000D01*
X36208909Y-29784523D01*
X36511290Y-29784523D01*
X36692719Y-29845000D01*
X37237004Y-31054523D02*
X37237004Y-29784523D01*
X37962719Y-31054523D02*
X37418433Y-30328809D01*
X37962719Y-29784523D02*
X37237004Y-30510238D01*
X39837480Y-31538333D02*
X39777004Y-31477857D01*
X39656052Y-31296428D01*
X39595576Y-31175476D01*
X39535100Y-30994047D01*
X39474623Y-30691666D01*
X39474623Y-30449761D01*
X39535100Y-30147380D01*
X39595576Y-29965952D01*
X39656052Y-29845000D01*
X39777004Y-29663571D01*
X39837480Y-29603095D01*
X40744623Y-30389285D02*
X40926052Y-30449761D01*
X40986528Y-30510238D01*
X41047004Y-30631190D01*
X41047004Y-30812619D01*
X40986528Y-30933571D01*
X40926052Y-30994047D01*
X40805100Y-31054523D01*
X40321290Y-31054523D01*
X40321290Y-29784523D01*
X40744623Y-29784523D01*
X40865576Y-29845000D01*
X40926052Y-29905476D01*
X40986528Y-30026428D01*
X40986528Y-30147380D01*
X40926052Y-30268333D01*
X40865576Y-30328809D01*
X40744623Y-30389285D01*
X40321290Y-30389285D01*
X41288909Y-31175476D02*
X42256528Y-31175476D01*
X42558909Y-31054523D02*
X42558909Y-29784523D01*
X43042719Y-29784523D01*
X43163671Y-29845000D01*
X43224147Y-29905476D01*
X43284623Y-30026428D01*
X43284623Y-30207857D01*
X43224147Y-30328809D01*
X43163671Y-30389285D01*
X43042719Y-30449761D01*
X42558909Y-30449761D01*
X43768433Y-30691666D02*
X44373195Y-30691666D01*
X43647480Y-31054523D02*
X44070814Y-29784523D01*
X44494147Y-31054523D01*
X44857004Y-30994047D02*
X45038433Y-31054523D01*
X45340814Y-31054523D01*
X45461766Y-30994047D01*
X45522242Y-30933571D01*
X45582719Y-30812619D01*
X45582719Y-30691666D01*
X45522242Y-30570714D01*
X45461766Y-30510238D01*
X45340814Y-30449761D01*
X45098909Y-30389285D01*
X44977957Y-30328809D01*
X44917480Y-30268333D01*
X44857004Y-30147380D01*
X44857004Y-30026428D01*
X44917480Y-29905476D01*
X44977957Y-29845000D01*
X45098909Y-29784523D01*
X45401290Y-29784523D01*
X45582719Y-29845000D01*
X45945576Y-29784523D02*
X46671290Y-29784523D01*
X46308433Y-31054523D02*
X46308433Y-29784523D01*
X47094623Y-30389285D02*
X47517957Y-30389285D01*
X47699385Y-31054523D02*
X47094623Y-31054523D01*
X47094623Y-29784523D01*
X47699385Y-29784523D01*
X48243671Y-30933571D02*
X48304147Y-30994047D01*
X48243671Y-31054523D01*
X48183195Y-30994047D01*
X48243671Y-30933571D01*
X48243671Y-31054523D01*
X49513671Y-29845000D02*
X49392719Y-29784523D01*
X49211290Y-29784523D01*
X49029861Y-29845000D01*
X48908909Y-29965952D01*
X48848433Y-30086904D01*
X48787957Y-30328809D01*
X48787957Y-30510238D01*
X48848433Y-30752142D01*
X48908909Y-30873095D01*
X49029861Y-30994047D01*
X49211290Y-31054523D01*
X49332242Y-31054523D01*
X49513671Y-30994047D01*
X49574147Y-30933571D01*
X49574147Y-30510238D01*
X49332242Y-30510238D01*
X50541766Y-30389285D02*
X50723195Y-30449761D01*
X50783671Y-30510238D01*
X50844147Y-30631190D01*
X50844147Y-30812619D01*
X50783671Y-30933571D01*
X50723195Y-30994047D01*
X50602242Y-31054523D01*
X50118433Y-31054523D01*
X50118433Y-29784523D01*
X50541766Y-29784523D01*
X50662719Y-29845000D01*
X50723195Y-29905476D01*
X50783671Y-30026428D01*
X50783671Y-30147380D01*
X50723195Y-30268333D01*
X50662719Y-30328809D01*
X50541766Y-30389285D01*
X50118433Y-30389285D01*
X52114147Y-31054523D02*
X51690814Y-30449761D01*
X51388433Y-31054523D02*
X51388433Y-29784523D01*
X51872242Y-29784523D01*
X51993195Y-29845000D01*
X52053671Y-29905476D01*
X52114147Y-30026428D01*
X52114147Y-30207857D01*
X52053671Y-30328809D01*
X51993195Y-30389285D01*
X51872242Y-30449761D01*
X51388433Y-30449761D01*
X52537480Y-31538333D02*
X52597957Y-31477857D01*
X52718909Y-31296428D01*
X52779385Y-31175476D01*
X52839861Y-30994047D01*
X52900338Y-30691666D01*
X52900338Y-30449761D01*
X52839861Y-30147380D01*
X52779385Y-29965952D01*
X52718909Y-29845000D01*
X52597957Y-29663571D01*
X52537480Y-29603095D01*
M02*
