G04 #@! TF.GenerationSoftware,KiCad,Pcbnew,(5.1.5)-3*
G04 #@! TF.CreationDate,2020-04-20T12:10:47-07:00*
G04 #@! TF.ProjectId,10096510 Battery Connection,31303039-3635-4313-9020-426174746572,rev?*
G04 #@! TF.SameCoordinates,PXb874050PY8789ff8*
G04 #@! TF.FileFunction,Legend,Bot*
G04 #@! TF.FilePolarity,Positive*
%FSLAX46Y46*%
G04 Gerber Fmt 4.6, Leading zero omitted, Abs format (unit mm)*
G04 Created by KiCad (PCBNEW (5.1.5)-3) date 2020-04-20 12:10:47*
%MOMM*%
%LPD*%
G04 APERTURE LIST*
%ADD10C,0.254000*%
%ADD11C,0.177800*%
%ADD12C,0.200000*%
G04 APERTURE END LIST*
D10*
X19940814Y-32929285D02*
X20122242Y-32989761D01*
X20182719Y-33050238D01*
X20243195Y-33171190D01*
X20243195Y-33352619D01*
X20182719Y-33473571D01*
X20122242Y-33534047D01*
X20001290Y-33594523D01*
X19517480Y-33594523D01*
X19517480Y-32324523D01*
X19940814Y-32324523D01*
X20061766Y-32385000D01*
X20122242Y-32445476D01*
X20182719Y-32566428D01*
X20182719Y-32687380D01*
X20122242Y-32808333D01*
X20061766Y-32868809D01*
X19940814Y-32929285D01*
X19517480Y-32929285D01*
X21029385Y-32324523D02*
X21271290Y-32324523D01*
X21392242Y-32385000D01*
X21513195Y-32505952D01*
X21573671Y-32747857D01*
X21573671Y-33171190D01*
X21513195Y-33413095D01*
X21392242Y-33534047D01*
X21271290Y-33594523D01*
X21029385Y-33594523D01*
X20908433Y-33534047D01*
X20787480Y-33413095D01*
X20727004Y-33171190D01*
X20727004Y-32747857D01*
X20787480Y-32505952D01*
X20908433Y-32385000D01*
X21029385Y-32324523D01*
X21936528Y-32324523D02*
X22662242Y-32324523D01*
X22299385Y-33594523D02*
X22299385Y-32324523D01*
X22904147Y-32324523D02*
X23629861Y-32324523D01*
X23267004Y-33594523D02*
X23267004Y-32324523D01*
X24295100Y-32324523D02*
X24537004Y-32324523D01*
X24657957Y-32385000D01*
X24778909Y-32505952D01*
X24839385Y-32747857D01*
X24839385Y-33171190D01*
X24778909Y-33413095D01*
X24657957Y-33534047D01*
X24537004Y-33594523D01*
X24295100Y-33594523D01*
X24174147Y-33534047D01*
X24053195Y-33413095D01*
X23992719Y-33171190D01*
X23992719Y-32747857D01*
X24053195Y-32505952D01*
X24174147Y-32385000D01*
X24295100Y-32324523D01*
X25383671Y-33594523D02*
X25383671Y-32324523D01*
X25807004Y-33231666D01*
X26230338Y-32324523D01*
X26230338Y-33594523D01*
X27742242Y-33534047D02*
X27923671Y-33594523D01*
X28226052Y-33594523D01*
X28347004Y-33534047D01*
X28407480Y-33473571D01*
X28467957Y-33352619D01*
X28467957Y-33231666D01*
X28407480Y-33110714D01*
X28347004Y-33050238D01*
X28226052Y-32989761D01*
X27984147Y-32929285D01*
X27863195Y-32868809D01*
X27802719Y-32808333D01*
X27742242Y-32687380D01*
X27742242Y-32566428D01*
X27802719Y-32445476D01*
X27863195Y-32385000D01*
X27984147Y-32324523D01*
X28286528Y-32324523D01*
X28467957Y-32385000D01*
X29012242Y-33594523D02*
X29012242Y-32324523D01*
X30221766Y-33594523D02*
X29617004Y-33594523D01*
X29617004Y-32324523D01*
X30645100Y-33594523D02*
X30645100Y-32324523D01*
X31370814Y-33594523D02*
X30826528Y-32868809D01*
X31370814Y-32324523D02*
X30645100Y-33050238D01*
X31854623Y-33534047D02*
X32036052Y-33594523D01*
X32338433Y-33594523D01*
X32459385Y-33534047D01*
X32519861Y-33473571D01*
X32580338Y-33352619D01*
X32580338Y-33231666D01*
X32519861Y-33110714D01*
X32459385Y-33050238D01*
X32338433Y-32989761D01*
X32096528Y-32929285D01*
X31975576Y-32868809D01*
X31915100Y-32808333D01*
X31854623Y-32687380D01*
X31854623Y-32566428D01*
X31915100Y-32445476D01*
X31975576Y-32385000D01*
X32096528Y-32324523D01*
X32398909Y-32324523D01*
X32580338Y-32385000D01*
X33850338Y-33473571D02*
X33789861Y-33534047D01*
X33608433Y-33594523D01*
X33487480Y-33594523D01*
X33306052Y-33534047D01*
X33185100Y-33413095D01*
X33124623Y-33292142D01*
X33064147Y-33050238D01*
X33064147Y-32868809D01*
X33124623Y-32626904D01*
X33185100Y-32505952D01*
X33306052Y-32385000D01*
X33487480Y-32324523D01*
X33608433Y-32324523D01*
X33789861Y-32385000D01*
X33850338Y-32445476D01*
X35120338Y-33594523D02*
X34697004Y-32989761D01*
X34394623Y-33594523D02*
X34394623Y-32324523D01*
X34878433Y-32324523D01*
X34999385Y-32385000D01*
X35059861Y-32445476D01*
X35120338Y-32566428D01*
X35120338Y-32747857D01*
X35059861Y-32868809D01*
X34999385Y-32929285D01*
X34878433Y-32989761D01*
X34394623Y-32989761D01*
X35664623Y-32929285D02*
X36087957Y-32929285D01*
X36269385Y-33594523D02*
X35664623Y-33594523D01*
X35664623Y-32324523D01*
X36269385Y-32324523D01*
X36813671Y-32929285D02*
X37237004Y-32929285D01*
X37418433Y-33594523D02*
X36813671Y-33594523D01*
X36813671Y-32324523D01*
X37418433Y-32324523D01*
X37962719Y-33594523D02*
X37962719Y-32324523D01*
X38688433Y-33594523D01*
X38688433Y-32324523D01*
X40623671Y-34078333D02*
X40563195Y-34017857D01*
X40442242Y-33836428D01*
X40381766Y-33715476D01*
X40321290Y-33534047D01*
X40260814Y-33231666D01*
X40260814Y-32989761D01*
X40321290Y-32687380D01*
X40381766Y-32505952D01*
X40442242Y-32385000D01*
X40563195Y-32203571D01*
X40623671Y-32143095D01*
X41530814Y-32929285D02*
X41712242Y-32989761D01*
X41772719Y-33050238D01*
X41833195Y-33171190D01*
X41833195Y-33352619D01*
X41772719Y-33473571D01*
X41712242Y-33534047D01*
X41591290Y-33594523D01*
X41107480Y-33594523D01*
X41107480Y-32324523D01*
X41530814Y-32324523D01*
X41651766Y-32385000D01*
X41712242Y-32445476D01*
X41772719Y-32566428D01*
X41772719Y-32687380D01*
X41712242Y-32808333D01*
X41651766Y-32868809D01*
X41530814Y-32929285D01*
X41107480Y-32929285D01*
X42075100Y-33715476D02*
X43042719Y-33715476D01*
X43284623Y-33534047D02*
X43466052Y-33594523D01*
X43768433Y-33594523D01*
X43889385Y-33534047D01*
X43949861Y-33473571D01*
X44010338Y-33352619D01*
X44010338Y-33231666D01*
X43949861Y-33110714D01*
X43889385Y-33050238D01*
X43768433Y-32989761D01*
X43526528Y-32929285D01*
X43405576Y-32868809D01*
X43345100Y-32808333D01*
X43284623Y-32687380D01*
X43284623Y-32566428D01*
X43345100Y-32445476D01*
X43405576Y-32385000D01*
X43526528Y-32324523D01*
X43828909Y-32324523D01*
X44010338Y-32385000D01*
X44554623Y-33594523D02*
X44554623Y-32324523D01*
X45764147Y-33594523D02*
X45159385Y-33594523D01*
X45159385Y-32324523D01*
X46187480Y-33594523D02*
X46187480Y-32324523D01*
X46913195Y-33594523D02*
X46368909Y-32868809D01*
X46913195Y-32324523D02*
X46187480Y-33050238D01*
X47457480Y-33473571D02*
X47517957Y-33534047D01*
X47457480Y-33594523D01*
X47397004Y-33534047D01*
X47457480Y-33473571D01*
X47457480Y-33594523D01*
X48727480Y-32385000D02*
X48606528Y-32324523D01*
X48425100Y-32324523D01*
X48243671Y-32385000D01*
X48122719Y-32505952D01*
X48062242Y-32626904D01*
X48001766Y-32868809D01*
X48001766Y-33050238D01*
X48062242Y-33292142D01*
X48122719Y-33413095D01*
X48243671Y-33534047D01*
X48425100Y-33594523D01*
X48546052Y-33594523D01*
X48727480Y-33534047D01*
X48787957Y-33473571D01*
X48787957Y-33050238D01*
X48546052Y-33050238D01*
X49755576Y-32929285D02*
X49937004Y-32989761D01*
X49997480Y-33050238D01*
X50057957Y-33171190D01*
X50057957Y-33352619D01*
X49997480Y-33473571D01*
X49937004Y-33534047D01*
X49816052Y-33594523D01*
X49332242Y-33594523D01*
X49332242Y-32324523D01*
X49755576Y-32324523D01*
X49876528Y-32385000D01*
X49937004Y-32445476D01*
X49997480Y-32566428D01*
X49997480Y-32687380D01*
X49937004Y-32808333D01*
X49876528Y-32868809D01*
X49755576Y-32929285D01*
X49332242Y-32929285D01*
X51327957Y-33594523D02*
X50904623Y-32989761D01*
X50602242Y-33594523D02*
X50602242Y-32324523D01*
X51086052Y-32324523D01*
X51207004Y-32385000D01*
X51267480Y-32445476D01*
X51327957Y-32566428D01*
X51327957Y-32747857D01*
X51267480Y-32868809D01*
X51207004Y-32929285D01*
X51086052Y-32989761D01*
X50602242Y-32989761D01*
X51751290Y-34078333D02*
X51811766Y-34017857D01*
X51932719Y-33836428D01*
X51993195Y-33715476D01*
X52053671Y-33534047D01*
X52114147Y-33231666D01*
X52114147Y-32989761D01*
X52053671Y-32687380D01*
X51993195Y-32505952D01*
X51932719Y-32385000D01*
X51811766Y-32203571D01*
X51751290Y-32143095D01*
D11*
X4470400Y1651000D02*
X4470400Y13639800D01*
X4470400Y13639800D02*
X29464000Y13639800D01*
X29464000Y1651000D02*
X29464000Y13639800D01*
X4470400Y1651000D02*
X29464000Y1651000D01*
D12*
X11340000Y44153200D02*
X11340000Y35253200D01*
X31750000Y44153200D02*
X11340000Y44153200D01*
X31750000Y31953200D02*
X31750000Y44153200D01*
D10*
X34081230Y26135000D02*
G75*
G03X34081230Y26135000I-62230J0D01*
G01*
D12*
X33440000Y17495000D02*
X33440000Y29495000D01*
X22440000Y17495000D02*
X33440000Y17495000D01*
X22440000Y29495000D02*
X22440000Y17495000D01*
X33440000Y29495000D02*
X22440000Y29495000D01*
D10*
X9290133Y32648477D02*
X9290133Y31741334D01*
X9350609Y31559905D01*
X9471561Y31438953D01*
X9652990Y31378477D01*
X9773942Y31378477D01*
X8020133Y31378477D02*
X8745847Y31378477D01*
X8382990Y31378477D02*
X8382990Y32648477D01*
X8503942Y32467048D01*
X8624895Y32346096D01*
X8745847Y32285620D01*
X21112514Y23593715D02*
X21535847Y23593715D01*
X21535847Y22928477D02*
X21535847Y24198477D01*
X20931085Y24198477D01*
X20447276Y22928477D02*
X20447276Y24198477D01*
X19177276Y22928477D02*
X19902990Y22928477D01*
X19540133Y22928477D02*
X19540133Y24198477D01*
X19661085Y24017048D01*
X19782038Y23896096D01*
X19902990Y23835620D01*
M02*
