M48
VER,1
FMAT,2
INCH,LZ
ICI,OFF
DETECT,ON
ATC,ON
T01C.01575
T02C.036
T03C.048
T04C.114
G75*
%
T01
X014Y012
X012Y012
X014Y016
X016Y016
X016Y014
X014Y01
X016Y012
X024Y004
X024Y002
X022Y002
X02Y002
X018Y002
X018Y004
X014Y002
X016Y002
X014Y004
X016Y004
X014Y006
X016Y006
X018Y006
X02Y006
X02Y004
X012Y002
X02295Y006693
X0244Y006693
X016Y01
X014Y014
X012Y004
T02
X010496Y012583
X010496Y013583
X009496Y012583
X009496Y013583
X008496Y012583
X008496Y013583
X007496Y012583
X007496Y013583
X006496Y012583
X006496Y013583
T03
X010016Y008266
X011984Y008266
X011984Y010234
X011Y00925
X011Y007281
X010016Y010234
T04
X021535Y003543
M30
